SplineFontDB: 3.0
FontName: NewCode-RegularItalic
FullName: New Code Italic
FamilyName: New Code Italic
Weight: Regular
Copyright: (c) 2015 Adobe & Nathan Rutzky & Guillaume Vivies
Version: 1.001
ItalicAngle: -9
UnderlinePosition: -100
UnderlineWidth: 50
Ascent: 750
Descent: 250
InvalidEm: 0
sfntRevision: 0x00010000
LayerCount: 2
Layer: 0 0 "Arri+AOgA-re" 1
Layer: 1 0 "Avant" 0
XUID: [1021 924 1960966456 16407]
StyleMap: 0x0040
FSType: 8
OS2Version: 3
OS2_WeightWidthSlopeOnly: 0
OS2_UseTypoMetrics: 0
CreationTime: 1432776643
ModificationTime: 1557162675
PfmFamily: 81
TTFWeight: 400
TTFWidth: 5
LineGap: 0
VLineGap: 0
Panose: 0 0 4 9 0 0 0 0 0 0
OS2TypoAscent: 750
OS2TypoAOffset: 0
OS2TypoDescent: -250
OS2TypoDOffset: 0
OS2TypoLinegap: 0
OS2WinAscent: 984
OS2WinAOffset: 0
OS2WinDescent: 273
OS2WinDOffset: 0
HheadAscent: 984
HheadAOffset: 0
HheadDescent: -273
HheadDOffset: 0
OS2SubXSize: 650
OS2SubYSize: 600
OS2SubXOff: -12
OS2SubYOff: 75
OS2SupXSize: 650
OS2SupYSize: 600
OS2SupXOff: 55
OS2SupYOff: 350
OS2StrikeYSize: 50
OS2StrikeYPos: 306
OS2CapHeight: 660
OS2XHeight: 510
OS2Vendor: 'GVIV'
OS2CodePages: 20000193.00000000
OS2UnicodeRanges: 00000007.00000000.00000000.00000000
Lookup: 260 0 0 "'mark' Positionnement de signe dans Latin lookup 0" { "sous-table 'mark' Positionnement de signe dans Latin lookup 0"  } ['mark' ('DFLT' <'dflt' > 'latn' <'CAT ' 'dflt' > ) ]
Lookup: 262 256 0 "'mkmk' Signe sur signe dans Latin lookup 1" { "sous-table 'mkmk' Signe sur signe dans Latin lookup 1"  } ['mkmk' ('DFLT' <'dflt' > 'latn' <'CAT ' 'dflt' > ) ]
Lookup: 262 512 0 "'mkmk' Signe sur signe dans Latin lookup 2" { "sous-table 'mkmk' Signe sur signe dans Latin lookup 2"  } ['mkmk' ('DFLT' <'dflt' > 'latn' <'CAT ' 'dflt' > ) ]
MarkAttachClasses: 3
"Classe de signes 1" 7 uni0327
"Classe de signes 2" 93 acutecomb uni0306 uni030C uni0302 uni0308 uni0307 gravecomb uni030B uni0304 uni030A tildecomb
DEI: 91125

StartChar: .notdef
Encoding: 65536 -1 0
Width: 600
Flags: W
HStem: 0 60<170 427> 602 58<182 417>
VStem: 62 65<112 574> 472 66<112 574>
LayerCount: 2
Fore
SplineSet
62 0 m 1
 62 660 l 1
 538 660 l 1
 538 0 l 1
 62 0 l 1
298 389 m 1
 302 389 l 1
 339 461 378 532 417 602 c 1
 182 602 l 1
 221 532 260 461 298 389 c 1
127 112 m 1
 255 342 l 1
 127 574 l 1
 127 112 l 1
472 112 m 1
 472 574 l 1
 345 342 l 1
 472 112 l 1
170 60 m 1
 427 60 l 1
 354 192 l 1
 302 295 l 1
 298 295 l 1
 257 215 214 137 170 60 c 1
EndSplineSet
Validated: 1
EndChar

StartChar: A
Encoding: 65 65 2
Width: 600
GlyphClass: 2
Flags: W
HStem: 0 21G<36 118.619 484.952 564> 210 58<239 446> 600 60<382.485 398.839>
LayerCount: 2
Fore
SplineSet
36 0 m 1
 366 660 l 1
 444 660 l 1
 564 0 l 1
 488 0 l 1
 456 210 l 1
 210 210 l 1
 109 0 l 1
 36 0 l 1
239 268 m 1
 446 268 l 1
 429 376 l 2
 417 452 406 522 396 600 c 1
 392 600 l 1
 358 522 326 452 290 376 c 2
 239 268 l 1
EndSplineSet
Validated: 1
EndChar

StartChar: Aacute
Encoding: 193 193 3
Width: 600
GlyphClass: 2
Flags: W
HStem: 0 21G<36 118.619 484.952 564> 210 58<239 446> 600 60<383.461 399.814>
LayerCount: 2
Fore
SplineSet
366 710 m 1
 472 822 l 1
 555 822 l 1
 426 710 l 1
 366 710 l 1
36 0 m 1
 366 660 l 1
 444 660 l 1
 564 0 l 1
 488 0 l 1
 456 210 l 1
 210 210 l 1
 109 0 l 1
 36 0 l 1
239 268 m 1
 446 268 l 1
 429 377 l 2
 417 453 407 522 397 600 c 1
 393 600 l 1
 359 522 326 453 290 377 c 2
 239 268 l 1
EndSplineSet
Validated: 1
EndChar

StartChar: Abreve
Encoding: 258 258 4
Width: 600
GlyphClass: 2
Flags: W
HStem: 0 21G<36 118.619 484.952 564> 210 58<239 446> 600 60<383.461 399.814> 712 42<370.347 474.601>
VStem: 310 44<770.048 822>
LayerCount: 2
Fore
SplineSet
413 712 m 0
 338 712 310 766 310 817 c 0
 310 819 310 820 310 822 c 1
 354 822 l 1
 355 789 372 754 420 754 c 0
 467 754 495 789 506 822 c 1
 550 822 l 1
 535 769 492 712 413 712 c 0
36 0 m 1
 366 660 l 1
 444 660 l 1
 564 0 l 1
 488 0 l 1
 456 210 l 1
 210 210 l 1
 109 0 l 1
 36 0 l 1
239 268 m 1
 446 268 l 1
 429 377 l 2
 417 453 407 522 397 600 c 1
 393 600 l 1
 359 522 326 453 290 377 c 2
 239 268 l 1
EndSplineSet
Validated: 1
EndChar

StartChar: uni01CD
Encoding: 461 461 5
Width: 600
GlyphClass: 2
Flags: W
HStem: 0 21G<36 118.619 484.952 564> 210 58<239 446> 600 60<383.461 399.814>
LayerCount: 2
Fore
SplineSet
378 710 m 1
 300 822 l 1
 358 822 l 1
 416 752 l 1
 420 752 l 1
 502 822 l 1
 560 822 l 1
 446 710 l 1
 378 710 l 1
36 0 m 1
 366 660 l 1
 444 660 l 1
 564 0 l 1
 488 0 l 1
 456 210 l 1
 210 210 l 1
 109 0 l 1
 36 0 l 1
239 268 m 1
 446 268 l 1
 429 377 l 2
 417 453 407 522 397 600 c 1
 393 600 l 1
 359 522 326 453 290 377 c 2
 239 268 l 1
EndSplineSet
Validated: 1
EndChar

StartChar: Acircumflex
Encoding: 194 194 6
Width: 600
GlyphClass: 2
Flags: W
HStem: 0 21G<36 118.619 484.952 564> 210 58<239 446> 600 60<383.461 399.814>
LayerCount: 2
Fore
SplineSet
282 710 m 1
 396 822 l 1
 464 822 l 1
 542 710 l 1
 484 710 l 1
 425 780 l 1
 421 780 l 1
 340 710 l 1
 282 710 l 1
36 0 m 1
 366 660 l 1
 444 660 l 1
 564 0 l 1
 488 0 l 1
 456 210 l 1
 210 210 l 1
 109 0 l 1
 36 0 l 1
239 268 m 1
 446 268 l 1
 429 377 l 2
 417 453 407 522 397 600 c 1
 393 600 l 1
 359 522 326 453 290 377 c 2
 239 268 l 1
EndSplineSet
Validated: 1
EndChar

StartChar: Adieresis
Encoding: 196 196 7
Width: 600
GlyphClass: 2
Flags: W
HStem: 0 21G<36 118.619 484.952 564> 210 58<239 446> 600 60<382.485 398.839> 722 90<301.27 373.097 469.387 541.324>
VStem: 292 92<732.602 802.238> 460 92<732.602 802.351>
LayerCount: 2
Fore
SplineSet
331 722 m 0
 307 722 292 739 292 761 c 0
 292 791 316 812 346 812 c 0
 369 812 384 797 384 774 c 0
 384 746 359 722 331 722 c 0
498 722 m 0
 475 722 460 739 460 761 c 0
 460 791 485 812 513 812 c 0
 535 812 552 797 552 775 c 0
 552 745 528 722 498 722 c 0
36 0 m 1
 366 660 l 1
 444 660 l 1
 564 0 l 1
 488 0 l 1
 456 210 l 1
 210 210 l 1
 109 0 l 1
 36 0 l 1
239 268 m 1
 446 268 l 1
 429 377 l 2
 417 453 406 522 396 600 c 1
 392 600 l 1
 358 522 326 453 290 377 c 2
 239 268 l 1
EndSplineSet
Validated: 1
EndChar

StartChar: Agrave
Encoding: 192 192 8
Width: 600
GlyphClass: 2
Flags: W
HStem: 0 21G<36 118.619 484.952 564> 210 58<239 446> 600 60<383.461 399.814>
LayerCount: 2
Fore
SplineSet
398 710 m 1
 304 822 l 1
 387 822 l 1
 458 710 l 1
 398 710 l 1
36 0 m 1
 366 660 l 1
 444 660 l 1
 564 0 l 1
 488 0 l 1
 456 210 l 1
 210 210 l 1
 109 0 l 1
 36 0 l 1
239 268 m 1
 446 268 l 1
 429 377 l 2
 417 453 407 522 397 600 c 1
 393 600 l 1
 359 522 326 453 290 377 c 2
 239 268 l 1
EndSplineSet
Validated: 1
EndChar

StartChar: Amacron
Encoding: 256 256 9
Width: 600
GlyphClass: 2
Flags: W
HStem: 0 21G<36 118.619 484.952 564> 210 58<239 446> 600 60<382.485 398.839> 735 51<304 537>
LayerCount: 2
Fore
SplineSet
296 735 m 1
 304 786 l 1
 545 786 l 1
 537 735 l 1
 296 735 l 1
36 0 m 1
 366 660 l 1
 444 660 l 1
 564 0 l 1
 488 0 l 1
 456 210 l 1
 210 210 l 1
 109 0 l 1
 36 0 l 1
239 268 m 1
 446 268 l 1
 429 376 l 2
 417 452 406 522 396 600 c 1
 392 600 l 1
 358 523 326 452 290 376 c 2
 239 268 l 1
EndSplineSet
Validated: 1
EndChar

StartChar: Aogonek
Encoding: 260 260 10
Width: 600
GlyphClass: 2
Flags: W
HStem: -211 53<471.204 555.616> 0 21G<36 118.619> 210 58<239 446> 600 60<382.485 398.839>
VStem: 409 58<-153.411 -70.5402>
LayerCount: 2
Fore
SplineSet
488 -211 m 0
 443 -211 409 -185 409 -138 c 0
 409 -79 460 -26 504 0 c 1
 488 0 l 1
 456 210 l 1
 210 210 l 1
 109 0 l 1
 36 0 l 1
 366 660 l 1
 444 660 l 1
 564 0 l 1
 512 -24 467 -76 467 -118 c 0
 467 -145 486 -158 508 -158 c 0
 525 -158 538 -154 552 -144 c 1
 568 -184 l 1
 548 -198 514 -211 488 -211 c 0
239 268 m 1
 446 268 l 1
 429 376 l 2
 417 452 406 522 396 600 c 1
 392 600 l 1
 358 522 326 452 290 376 c 2
 239 268 l 1
EndSplineSet
Validated: 1
EndChar

StartChar: Aring
Encoding: 197 197 11
Width: 600
GlyphClass: 2
Flags: W
HStem: 0 21G<36 118.665 484.938 564> 209 59<238 444> 600 60<382.436 398.814> 703 33<382.473 455.577> 842 34<392.333 466.008>
VStem: 334 40<741.91 826.012> 474 42<750.347 836.543>
LayerCount: 2
Fore
SplineSet
411 703 m 0
 365 703 334 731 334 776 c 0
 334 836 380 876 438 876 c 0
 484 876 516 847 516 802 c 0
 516 742 467 703 411 703 c 0
416 736 m 0
 444 736 474 759 474 797 c 0
 474 825 456 842 434 842 c 0
 402 842 374 818 374 780 c 0
 374 752 391 736 416 736 c 0
36 0 m 1
 366 660 l 1
 444 660 l 1
 564 0 l 1
 488 0 l 1
 456 209 l 1
 210 209 l 1
 109 0 l 1
 36 0 l 1
238 268 m 1
 444 268 l 1
 428 376 l 2
 416 452 406 522 396 600 c 1
 392 600 l 1
 358 522 324 452 288 376 c 2
 238 268 l 1
EndSplineSet
Validated: 1
EndChar

StartChar: Atilde
Encoding: 195 195 12
Width: 600
GlyphClass: 2
Flags: W
HStem: 0 21G<36 118.619 484.952 564> 210 58<239 446> 600 60<382.485 398.839> 716 49<438.204 513.25> 770 50<329.328 405.522>
VStem: 272 42<716 754.366> 530 41<782.871 820>
LayerCount: 2
Fore
SplineSet
272 716 m 1
 286 774 324 820 371 820 c 0
 424 820 442 765 480 765 c 0
 500 765 520 787 530 820 c 1
 571 820 l 1
 557 765 519 716 472 716 c 0
 419 716 401 770 363 770 c 0
 343 770 324 751 314 716 c 1
 272 716 l 1
36 0 m 1
 366 660 l 1
 444 660 l 1
 564 0 l 1
 488 0 l 1
 456 210 l 1
 210 210 l 1
 109 0 l 1
 36 0 l 1
239 268 m 1
 446 268 l 1
 429 376 l 2
 417 452 406 522 396 600 c 1
 392 600 l 1
 358 522 326 452 290 376 c 2
 239 268 l 1
EndSplineSet
Validated: 1
EndChar

StartChar: AE
Encoding: 198 198 13
Width: 600
GlyphClass: 2
Flags: W
HStem: 0 61<394 590> 200 59<218 350> 318 62<444 586> 600 60<396.775 414 478 676>
LayerCount: 2
Fore
SplineSet
-0 0 m 1
 374 660 l 1
 686 660 l 1
 676 600 l 1
 478 600 l 1
 444 380 l 1
 597 380 l 1
 586 318 l 1
 434 318 l 1
 394 61 l 1
 600 61 l 1
 590 0 l 1
 318 0 l 1
 350 200 l 1
 185 200 l 1
 74 0 l 1
 -0 0 l 1
218 259 m 1
 359 259 l 1
 414 602 l 1
 410 602 l 1
 370 529 327 458 287 384 c 2
 218 259 l 1
EndSplineSet
Validated: 1
EndChar

StartChar: B
Encoding: 66 66 14
Width: 600
GlyphClass: 2
Flags: W
HStem: 0 57<188 414.823> 321 54<238 442.449> 603 57<274 473.234>
VStem: 505 71<134.212 275.288> 514 72<441.917 567.908>
LayerCount: 2
Fore
SplineSet
106 0 m 1xf0
 212 660 l 1
 387 660 l 2
 507 660 586 619 586 524 c 0xe8
 586 446 536 378 445 356 c 1
 445 352 l 1
 527 340 576 294 576 218 c 0
 576 76 459 0 296 0 c 2
 106 0 l 1xf0
238 375 m 1
 326 375 l 2
 464 375 514 426 514 510 c 0
 514 574 463 603 367 603 c 2
 274 603 l 1
 238 375 l 1
188 57 m 1
 293 57 l 2
 425 57 505 108 505 214 c 0xf0
 505 287 445 321 335 321 c 2
 230 321 l 1
 188 57 l 1
EndSplineSet
Validated: 1
EndChar

StartChar: uni0243
Encoding: 579 579 15
Width: 600
GlyphClass: 2
Flags: W
HStem: 0 55<188 424.192> 178 42<65 136 214 356> 330 48<239 451.564> 606 54<275 482.409>
VStem: 517 69<136.243 282.146> 524 72<441.539 570.034>
LayerCount: 2
Fore
SplineSet
108 0 m 1xf8
 136 178 l 1
 58 178 l 1
 65 216 l 1
 143 220 l 1
 213 660 l 1
 396 660 l 2
 516 660 596 619 596 525 c 0xf4
 596 447 548 383 454 360 c 1
 454 356 l 1
 537 344 586 298 586 222 c 0
 586 77 472 0 306 0 c 2
 108 0 l 1xf8
239 378 m 1
 336 378 l 2
 472 378 524 428 524 514 c 0
 524 578 472 606 376 606 c 2
 275 606 l 1
 239 378 l 1
188 55 m 1
 302 55 l 2
 435 55 517 109 517 219 c 0xf8
 517 294 456 330 346 330 c 2
 231 330 l 1
 214 220 l 1
 364 220 l 1
 356 178 l 1
 207 178 l 1
 188 55 l 1
EndSplineSet
Validated: 1
EndChar

StartChar: C
Encoding: 67 67 16
Width: 600
GlyphClass: 2
Flags: W
HStem: -12 63<279.355 456.042> 609 63<355.818 535.611>
VStem: 114 74<156.5 411.274>
LayerCount: 2
Fore
SplineSet
350 -12 m 0
 206 -12 114 94 114 266 c 0
 114 510 268 672 464 672 c 0
 542 672 596 635 628 593 c 1
 580 547 l 1
 552 584 510 609 454 609 c 0
 298 609 188 471 188 273 c 0
 188 137 253 51 365 51 c 0
 427 51 478 77 529 126 c 1
 564 82 l 1
 504 23 434 -12 350 -12 c 0
EndSplineSet
Validated: 1
EndChar

StartChar: Cacute
Encoding: 262 262 17
Width: 600
GlyphClass: 2
Flags: W
HStem: -12 63<279.355 456.042> 610 62<355.818 534.155>
VStem: 114 74<156.5 411.563>
LayerCount: 2
Fore
SplineSet
411 710 m 1
 518 822 l 1
 600 822 l 1
 471 710 l 1
 411 710 l 1
350 -12 m 0
 206 -12 114 94 114 266 c 0
 114 510 268 672 464 672 c 0
 542 672 596 635 628 593 c 1
 580 547 l 1
 552 585 510 610 454 610 c 0
 298 610 188 472 188 273 c 0
 188 137 253 51 365 51 c 0
 427 51 478 77 529 126 c 1
 564 82 l 1
 504 23 434 -12 350 -12 c 0
EndSplineSet
Validated: 1
EndChar

StartChar: Ccaron
Encoding: 268 268 18
Width: 600
GlyphClass: 2
Flags: W
HStem: -12 63<279.355 456.042> 610 62<355.818 534.155>
VStem: 114 74<156.5 411.563>
LayerCount: 2
Fore
SplineSet
424 710 m 1
 346 822 l 1
 404 822 l 1
 462 752 l 1
 466 752 l 1
 547 822 l 1
 606 822 l 1
 492 710 l 1
 424 710 l 1
350 -12 m 0
 206 -12 114 94 114 266 c 0
 114 510 268 672 464 672 c 0
 542 672 596 635 628 593 c 1
 580 547 l 1
 552 585 510 610 454 610 c 0
 298 610 188 472 188 273 c 0
 188 137 253 51 365 51 c 0
 427 51 478 77 529 126 c 1
 564 82 l 1
 504 23 434 -12 350 -12 c 0
EndSplineSet
Validated: 1
EndChar

StartChar: Ccedilla
Encoding: 199 199 19
Width: 600
GlyphClass: 2
Flags: W
HStem: -212 38<233.632 304.143> -12 63<364 456.148> 609 63<355.818 535.611>
VStem: 114 74<156.859 411.035> 331 57<-151.783 -88.5914>
LayerCount: 2
Fore
SplineSet
234 -212 m 1
 232 -174 l 1
 288 -167 331 -152 331 -121 c 0
 331 -97 308 -83 272 -74 c 1
 316 -12 l 1
 192 3 114 107 114 265 c 0
 114 510 268 672 464 672 c 0
 542 672 596 635 628 593 c 1
 580 547 l 1
 552 584 510 609 454 609 c 0
 298 609 188 471 188 273 c 0
 188 137 253 51 365 51 c 0
 427 51 478 77 529 126 c 1
 564 82 l 1
 506 26 444 -8 364 -12 c 1
 338 -51 l 1
 366 -61 388 -79 388 -112 c 0
 388 -176 313 -204 234 -212 c 1
EndSplineSet
Validated: 1
EndChar

StartChar: Ccircumflex
Encoding: 264 264 20
Width: 600
GlyphClass: 2
Flags: W
HStem: -12 63<279.355 456.042> 610 62<355.818 534.155>
VStem: 114 74<156.5 411.563>
LayerCount: 2
Fore
SplineSet
328 710 m 1
 442 822 l 1
 510 822 l 1
 588 710 l 1
 530 710 l 1
 471 780 l 1
 467 780 l 1
 386 710 l 1
 328 710 l 1
350 -12 m 0
 206 -12 114 94 114 266 c 0
 114 510 268 672 464 672 c 0
 542 672 596 635 628 593 c 1
 580 547 l 1
 552 585 510 610 454 610 c 0
 298 610 188 472 188 273 c 0
 188 137 253 51 365 51 c 0
 427 51 478 77 529 126 c 1
 564 82 l 1
 504 23 434 -12 350 -12 c 0
EndSplineSet
Validated: 1
EndChar

StartChar: Cdotaccent
Encoding: 266 266 21
Width: 600
GlyphClass: 2
Flags: W
HStem: -12 63<279.355 456.042> 610 62<355.818 534.155> 720 99<429.457 506.852>
VStem: 114 74<156.5 411.352> 416 104<733.725 805.705>
LayerCount: 2
Fore
SplineSet
460 720 m 0
 434 720 416 738 416 763 c 0
 416 795 445 819 476 819 c 0
 502 819 520 802 520 777 c 0
 520 745 492 720 460 720 c 0
350 -12 m 0
 206 -12 114 94 114 266 c 0
 114 510 268 672 464 672 c 0
 542 672 596 635 628 593 c 1
 580 547 l 1
 552 585 510 610 454 610 c 0
 298 610 188 471 188 273 c 0
 188 137 253 51 365 51 c 0
 427 51 478 77 529 126 c 1
 564 82 l 1
 504 23 434 -12 350 -12 c 0
EndSplineSet
Validated: 1
EndChar

StartChar: D
Encoding: 68 68 22
Width: 600
GlyphClass: 2
Flags: W
HStem: 0 58<169 358.854> 602 58<255 436.78>
VStem: 533 75<249.425 503.046>
LayerCount: 2
Fore
SplineSet
89 0 m 1
 194 660 l 1
 350 660 l 2
 521 660 608 563 608 400 c 0
 608 164 480 0 249 0 c 2
 89 0 l 1
169 58 m 1
 250 58 l 2
 440 58 533 201 533 392 c 0
 533 522 470 602 336 602 c 2
 255 602 l 1
 169 58 l 1
EndSplineSet
Validated: 1
EndChar

StartChar: Eth
Encoding: 208 208 23
Width: 600
GlyphClass: 2
Flags: W
HStem: 0 58<175 367.205> 326 42<76 146 224 367> 602 58<261 442.78>
VStem: 539 75<245.3 502.822>
LayerCount: 2
Fore
SplineSet
95 0 m 1
 146 326 l 1
 70 326 l 1
 76 364 l 1
 154 368 l 1
 200 660 l 1
 358 660 l 2
 528 660 614 563 614 399 c 0
 614 163 484 0 254 0 c 2
 95 0 l 1
175 58 m 1
 256 58 l 2
 447 58 539 201 539 392 c 0
 539 522 476 602 342 602 c 2
 261 602 l 1
 224 368 l 1
 374 368 l 1
 367 326 l 1
 217 326 l 1
 175 58 l 1
EndSplineSet
Validated: 1
EndChar

StartChar: Dcaron
Encoding: 270 270 24
Width: 600
GlyphClass: 2
Flags: W
HStem: 0 58<169 358.854> 602 58<255 436.78>
VStem: 533 75<249.219 502.84>
LayerCount: 2
Fore
SplineSet
378 710 m 1
 299 822 l 1
 358 822 l 1
 416 752 l 1
 420 752 l 1
 500 822 l 1
 558 822 l 1
 444 710 l 1
 378 710 l 1
89 0 m 1
 194 660 l 1
 351 660 l 2
 521 660 608 562 608 400 c 0
 608 163 480 0 249 0 c 2
 89 0 l 1
169 58 m 1
 250 58 l 2
 440 58 533 201 533 392 c 0
 533 522 470 602 336 602 c 2
 255 602 l 1
 169 58 l 1
EndSplineSet
Validated: 1
EndChar

StartChar: Dcroat
Encoding: 272 272 25
Width: 600
GlyphClass: 2
Flags: W
HStem: 0 58<175 367.205> 326 42<76 146 224 367> 602 58<261 442.78>
VStem: 539 75<245.3 502.822>
LayerCount: 2
Fore
SplineSet
95 0 m 1
 146 326 l 1
 70 326 l 1
 76 364 l 1
 154 368 l 1
 200 660 l 1
 358 660 l 2
 528 660 614 563 614 399 c 0
 614 163 484 0 254 0 c 2
 95 0 l 1
175 58 m 1
 256 58 l 2
 447 58 539 201 539 392 c 0
 539 522 476 602 342 602 c 2
 261 602 l 1
 224 368 l 1
 374 368 l 1
 367 326 l 1
 217 326 l 1
 175 58 l 1
EndSplineSet
Validated: 1
EndChar

StartChar: E
Encoding: 69 69 26
Width: 600
GlyphClass: 2
Flags: W
HStem: 0 61<200 530> 317 61<252 518> 600 60<286 614>
LayerCount: 2
Fore
SplineSet
119 0 m 1
 224 660 l 1
 624 660 l 1
 614 600 l 1
 286 600 l 1
 252 378 l 1
 528 378 l 1
 518 317 l 1
 241 317 l 1
 200 61 l 1
 538 61 l 1
 530 0 l 1
 119 0 l 1
EndSplineSet
Validated: 1
EndChar

StartChar: Eacute
Encoding: 201 201 27
Width: 600
GlyphClass: 2
Flags: W
HStem: 0 61<200 530> 317 61<252 518> 600 60<286 614>
LayerCount: 2
Fore
SplineSet
398 710 m 1
 506 822 l 1
 588 822 l 1
 458 710 l 1
 398 710 l 1
119 0 m 1
 224 660 l 1
 624 660 l 1
 614 600 l 1
 286 600 l 1
 252 378 l 1
 528 378 l 1
 518 317 l 1
 241 317 l 1
 200 61 l 1
 538 61 l 1
 530 0 l 1
 119 0 l 1
EndSplineSet
Validated: 1
EndChar

StartChar: Ebreve
Encoding: 276 276 28
Width: 600
GlyphClass: 2
Flags: W
HStem: 0 61<200 530> 317 61<252 518> 600 60<286 614> 712 42<402.786 506.787>
VStem: 342 44<770.048 822>
LayerCount: 2
Fore
SplineSet
446 712 m 0
 371 712 342 766 342 817 c 0
 342 819 342 820 342 822 c 1
 386 822 l 1
 387 789 404 754 452 754 c 0
 499 754 527 789 538 822 c 1
 583 822 l 1
 567 769 524 712 446 712 c 0
119 0 m 1
 224 660 l 1
 624 660 l 1
 614 600 l 1
 286 600 l 1
 252 378 l 1
 528 378 l 1
 518 317 l 1
 241 317 l 1
 200 61 l 1
 538 61 l 1
 530 0 l 1
 119 0 l 1
EndSplineSet
Validated: 1
EndChar

StartChar: Ecaron
Encoding: 282 282 29
Width: 600
GlyphClass: 2
Flags: W
HStem: 0 61<200 530> 317 61<252 518> 600 60<286 614>
LayerCount: 2
Fore
SplineSet
410 710 m 1
 332 822 l 1
 391 822 l 1
 449 752 l 1
 453 752 l 1
 534 822 l 1
 592 822 l 1
 478 710 l 1
 410 710 l 1
119 0 m 1
 224 660 l 1
 624 660 l 1
 614 600 l 1
 286 600 l 1
 252 378 l 1
 528 378 l 1
 518 317 l 1
 241 317 l 1
 200 61 l 1
 538 61 l 1
 530 0 l 1
 119 0 l 1
EndSplineSet
Validated: 1
EndChar

StartChar: Ecircumflex
Encoding: 202 202 30
Width: 600
GlyphClass: 2
Flags: W
HStem: 0 61<200 530> 317 61<252 518> 600 60<286 614>
LayerCount: 2
Fore
SplineSet
314 710 m 1
 428 822 l 1
 496 822 l 1
 574 710 l 1
 516 710 l 1
 458 780 l 1
 454 780 l 1
 374 710 l 1
 314 710 l 1
119 0 m 1
 224 660 l 1
 624 660 l 1
 614 600 l 1
 286 600 l 1
 252 378 l 1
 528 378 l 1
 518 317 l 1
 241 317 l 1
 200 61 l 1
 538 61 l 1
 530 0 l 1
 119 0 l 1
EndSplineSet
Validated: 1
EndChar

StartChar: Edieresis
Encoding: 203 203 31
Width: 600
GlyphClass: 2
Flags: W
HStem: 0 61<200 530> 317 61<252 518> 600 60<286 614> 722 90<333.176 405.03 501.517 573.529>
VStem: 324 92<733.079 802.351> 492 92<733.004 802.238>
LayerCount: 2
Fore
SplineSet
362 722 m 0
 339 722 324 739 324 761 c 0
 324 791 348 812 378 812 c 0
 400 812 416 797 416 775 c 0
 416 745 391 722 362 722 c 0
530 722 m 0
 508 722 492 739 492 761 c 0
 492 791 516 812 546 812 c 0
 569 812 584 797 584 774 c 0
 584 745 558 722 530 722 c 0
119 0 m 1
 224 660 l 1
 624 660 l 1
 614 600 l 1
 286 600 l 1
 252 378 l 1
 528 378 l 1
 518 317 l 1
 241 317 l 1
 200 61 l 1
 538 61 l 1
 530 0 l 1
 119 0 l 1
EndSplineSet
Validated: 1
EndChar

StartChar: Edotaccent
Encoding: 278 278 32
Width: 600
GlyphClass: 2
Flags: W
HStem: 0 61<200 530> 317 61<252 518> 600 60<286 614> 720 99<416.073 493.014>
VStem: 403 103<732.849 805.705>
LayerCount: 2
Fore
SplineSet
447 720 m 0
 421 720 403 738 403 763 c 0
 403 795 431 819 462 819 c 0
 488 819 506 802 506 777 c 0
 506 745 479 720 447 720 c 0
119 0 m 1
 224 660 l 1
 624 660 l 1
 614 600 l 1
 286 600 l 1
 252 378 l 1
 528 378 l 1
 518 317 l 1
 241 317 l 1
 200 61 l 1
 538 61 l 1
 530 0 l 1
 119 0 l 1
EndSplineSet
Validated: 1
EndChar

StartChar: Egrave
Encoding: 200 200 33
Width: 600
GlyphClass: 2
Flags: W
HStem: 0 61<200 530> 317 61<252 518> 600 60<286 614>
LayerCount: 2
Fore
SplineSet
432 710 m 1
 338 822 l 1
 420 822 l 1
 492 710 l 1
 432 710 l 1
119 0 m 1
 224 660 l 1
 624 660 l 1
 614 600 l 1
 286 600 l 1
 252 378 l 1
 528 378 l 1
 518 317 l 1
 241 317 l 1
 200 61 l 1
 538 61 l 1
 530 0 l 1
 119 0 l 1
EndSplineSet
Validated: 1
EndChar

StartChar: Emacron
Encoding: 274 274 34
Width: 600
GlyphClass: 2
Flags: W
HStem: 0 61<200 530> 317 61<252 518> 600 60<286 614> 735 51<336 570>
LayerCount: 2
Fore
SplineSet
328 735 m 1
 336 786 l 1
 578 786 l 1
 570 735 l 1
 328 735 l 1
119 0 m 1
 224 660 l 1
 624 660 l 1
 614 600 l 1
 286 600 l 1
 252 378 l 1
 528 378 l 1
 518 317 l 1
 241 317 l 1
 200 61 l 1
 538 61 l 1
 530 0 l 1
 119 0 l 1
EndSplineSet
Validated: 1
EndChar

StartChar: Eogonek
Encoding: 280 280 35
Width: 600
GlyphClass: 2
Flags: W
HStem: -211 53<419.424 502.427> 0 61<200 451 475.772 530> 317 61<252 518> 600 60<286 614>
VStem: 356 59<-153.214 -70.2179>
LayerCount: 2
Fore
SplineSet
434 -211 m 0
 390 -211 356 -185 356 -138 c 0
 356 -78 405 -28 451 0 c 1
 119 0 l 1
 224 660 l 1
 624 660 l 1
 614 600 l 1
 286 600 l 1
 252 378 l 1
 528 378 l 1
 518 317 l 1
 241 317 l 1
 200 61 l 1
 538 61 l 1
 530 0 l 1
 526 0 l 1
 476 -8 415 -62 415 -118 c 0
 415 -145 435 -158 457 -158 c 0
 473 -158 484 -154 500 -144 c 1
 514 -184 l 1
 493 -198 460 -211 434 -211 c 0
EndSplineSet
Validated: 1
EndChar

StartChar: uni1EBC
Encoding: 7868 7868 36
Width: 600
GlyphClass: 2
Flags: W
HStem: 0 61<200 530> 317 61<252 518> 600 60<286 614> 716 49<470.02 544.881> 770 50<361.776 438.717>
VStem: 306 40<716 751.984>
LayerCount: 2
Fore
SplineSet
306 716 m 1
 320 774 356 820 402 820 c 0
 455 820 474 765 512 765 c 0
 532 765 551 787 563 820 c 1
 602 820 l 1
 588 765 553 716 506 716 c 0
 453 716 434 770 396 770 c 0
 376 770 357 751 346 716 c 1
 306 716 l 1
119 0 m 1
 224 660 l 1
 624 660 l 1
 614 600 l 1
 286 600 l 1
 252 378 l 1
 528 378 l 1
 518 317 l 1
 241 317 l 1
 200 61 l 1
 538 61 l 1
 530 0 l 1
 119 0 l 1
EndSplineSet
Validated: 1
EndChar

StartChar: F
Encoding: 70 70 37
Width: 600
GlyphClass: 2
Flags: W
HStem: 0 21G<140 214.158> 304 59<268 534> 600 60<306 630>
LayerCount: 2
Fore
SplineSet
140 0 m 1
 245 660 l 1
 640 660 l 1
 630 600 l 1
 306 600 l 1
 268 363 l 1
 543 363 l 1
 534 304 l 1
 259 304 l 1
 211 0 l 1
 140 0 l 1
EndSplineSet
Validated: 1
EndChar

StartChar: G
Encoding: 71 71 38
Width: 600
GlyphClass: 2
Flags: W
HStem: -12 63<263.81 444.547> 277 59<379 508> 609 63<342.827 524.072>
VStem: 101 75<149.337 410.364>
LayerCount: 2
Fore
SplineSet
334 -12 m 0
 192 -12 101 92 101 264 c 0
 101 511 254 672 450 672 c 0
 536 672 587 631 617 593 c 1
 568 547 l 1
 542 582 505 609 440 609 c 0
 288 609 176 472 176 269 c 0
 176 136 235 51 349 51 c 0
 399 51 447 68 478 94 c 1
 508 277 l 1
 370 277 l 1
 379 336 l 1
 584 336 l 1
 540 64 l 1
 492 22 420 -12 334 -12 c 0
EndSplineSet
Validated: 1
EndChar

StartChar: Gbreve
Encoding: 286 286 39
Width: 600
GlyphClass: 2
Flags: W
HStem: -12 63<263.81 444.547> 278 59<379 508> 610 62<342.827 524.072> 712 42<402.583 505.318>
VStem: 101 75<149.337 410.653> 340 46<770.048 822>
LayerCount: 2
Fore
SplineSet
444 712 m 0
 368 712 340 766 340 817 c 0
 340 819 340 820 340 822 c 1
 386 822 l 1
 387 789 403 754 450 754 c 0
 497 754 526 789 537 822 c 1
 582 822 l 1
 568 769 522 712 444 712 c 0
334 -12 m 0
 192 -12 101 92 101 264 c 0
 101 511 254 672 450 672 c 0
 536 672 587 631 617 593 c 1
 568 547 l 1
 542 582 505 610 440 610 c 0
 288 610 176 473 176 269 c 0
 176 136 235 51 349 51 c 0
 399 51 447 68 478 94 c 1
 508 278 l 1
 370 278 l 1
 379 337 l 1
 584 337 l 1
 540 64 l 1
 492 22 420 -12 334 -12 c 0
EndSplineSet
Validated: 1
EndChar

StartChar: Gcaron
Encoding: 486 486 40
Width: 600
GlyphClass: 2
Flags: W
HStem: -12 63<263.81 444.547> 278 59<379 508> 610 62<342.827 524.072>
VStem: 101 75<149.337 410.653>
LayerCount: 2
Fore
SplineSet
410 710 m 1
 332 822 l 1
 390 822 l 1
 448 752 l 1
 452 752 l 1
 532 822 l 1
 591 822 l 1
 477 710 l 1
 410 710 l 1
334 -12 m 0
 192 -12 101 92 101 264 c 0
 101 511 254 672 450 672 c 0
 536 672 587 631 617 593 c 1
 568 547 l 1
 542 582 505 610 440 610 c 0
 288 610 176 473 176 269 c 0
 176 136 235 51 349 51 c 0
 399 51 447 68 478 94 c 1
 508 278 l 1
 370 278 l 1
 379 337 l 1
 584 337 l 1
 540 64 l 1
 492 22 420 -12 334 -12 c 0
EndSplineSet
Validated: 1
EndChar

StartChar: Gcircumflex
Encoding: 284 284 41
Width: 600
GlyphClass: 2
Flags: W
HStem: -12 63<263.81 444.547> 278 59<379 508> 610 62<342.827 524.072>
VStem: 101 75<149.337 410.653>
LayerCount: 2
Fore
SplineSet
314 710 m 1
 428 822 l 1
 495 822 l 1
 573 710 l 1
 514 710 l 1
 456 780 l 1
 452 780 l 1
 372 710 l 1
 314 710 l 1
334 -12 m 0
 192 -12 101 92 101 264 c 0
 101 511 254 672 450 672 c 0
 536 672 587 631 617 593 c 1
 568 547 l 1
 542 582 505 610 440 610 c 0
 288 610 176 473 176 269 c 0
 176 136 235 51 349 51 c 0
 399 51 447 68 478 94 c 1
 508 278 l 1
 370 278 l 1
 379 337 l 1
 584 337 l 1
 540 64 l 1
 492 22 420 -12 334 -12 c 0
EndSplineSet
Validated: 1
EndChar

StartChar: Gdotaccent
Encoding: 288 288 42
Width: 600
GlyphClass: 2
Flags: W
HStem: -12 63<263.81 444.547> 278 59<379 508> 610 62<342.827 524.072> 720 99<414.764 492.491>
VStem: 101 75<149.337 410.442> 402 104<733.725 806.288>
LayerCount: 2
Fore
SplineSet
446 720 m 0
 420 720 402 738 402 763 c 0
 402 795 429 819 461 819 c 0
 487 819 506 801 506 777 c 0
 506 745 477 720 446 720 c 0
334 -12 m 0
 192 -12 101 92 101 264 c 0
 101 511 254 672 450 672 c 0
 536 672 587 631 617 593 c 1
 568 547 l 1
 542 582 505 610 440 610 c 0
 288 610 176 472 176 269 c 0
 176 136 235 51 349 51 c 0
 399 51 447 68 478 94 c 1
 508 278 l 1
 370 278 l 1
 379 337 l 1
 584 337 l 1
 540 64 l 1
 492 22 420 -12 334 -12 c 0
EndSplineSet
Validated: 1
EndChar

StartChar: uni1E20
Encoding: 7712 7712 43
Width: 600
GlyphClass: 2
Flags: W
HStem: -12 63<263.81 444.547> 278 59<379 508> 609 63<342.827 524.072> 735 51<334 568>
VStem: 101 75<149.337 410.364>
LayerCount: 2
Fore
SplineSet
326 735 m 1
 334 786 l 1
 576 786 l 1
 568 735 l 1
 326 735 l 1
334 -12 m 0
 192 -12 101 92 101 264 c 0
 101 511 254 672 450 672 c 0
 536 672 587 631 617 593 c 1
 568 547 l 1
 542 582 505 609 440 609 c 0
 288 609 176 472 176 269 c 0
 176 136 235 51 349 51 c 0
 399 51 447 68 478 94 c 1
 508 278 l 1
 370 278 l 1
 379 337 l 1
 584 337 l 1
 540 64 l 1
 492 22 420 -12 334 -12 c 0
EndSplineSet
Validated: 1
EndChar

StartChar: H
Encoding: 72 72 44
Width: 600
GlyphClass: 2
Flags: W
HStem: 0 21G<82 157.145 446 521.182> 318 61<214 496> 640 20G<183.818 259 547.797 623>
LayerCount: 2
Fore
SplineSet
82 0 m 1
 187 660 l 1
 259 660 l 1
 214 379 l 1
 506 379 l 1
 551 660 l 1
 623 660 l 1
 518 0 l 1
 446 0 l 1
 496 318 l 1
 204 318 l 1
 154 0 l 1
 82 0 l 1
EndSplineSet
Validated: 1
EndChar

StartChar: Hbar
Encoding: 294 294 45
Width: 600
GlyphClass: 2
Flags: W
HStem: 0 21G<82 157.145 446 521.145> 318 61<214 496> 496 42<96 160 240 524 604 666> 640 20G<183.885 259 547.885 623>
LayerCount: 2
Fore
SplineSet
82 0 m 1
 160 496 l 1
 90 496 l 1
 96 534 l 1
 168 538 l 1
 187 660 l 1
 259 660 l 1
 240 538 l 1
 532 538 l 1
 551 660 l 1
 623 660 l 1
 604 538 l 1
 674 538 l 1
 666 496 l 1
 596 496 l 1
 518 0 l 1
 446 0 l 1
 496 318 l 1
 204 318 l 1
 154 0 l 1
 82 0 l 1
214 379 m 1
 506 379 l 1
 524 496 l 1
 232 496 l 1
 214 379 l 1
EndSplineSet
Validated: 1
EndChar

StartChar: Hcircumflex
Encoding: 292 292 46
Width: 600
GlyphClass: 2
Flags: W
HStem: 0 21G<82 157.145 446 521.212> 318 61<214 496> 640 20G<183.818 259 547.797 624>
LayerCount: 2
Fore
SplineSet
282 710 m 1
 396 822 l 1
 463 822 l 1
 541 710 l 1
 484 710 l 1
 426 780 l 1
 422 780 l 1
 340 710 l 1
 282 710 l 1
82 0 m 1
 187 660 l 1
 259 660 l 1
 214 379 l 1
 506 379 l 1
 551 660 l 1
 624 660 l 1
 518 0 l 1
 446 0 l 1
 496 318 l 1
 204 318 l 1
 154 0 l 1
 82 0 l 1
EndSplineSet
Validated: 1
EndChar

StartChar: I
Encoding: 73 73 47
Width: 600
GlyphClass: 2
Flags: W
HStem: 0 61<108 274 346 501> 600 60<204 358 430 596>
LayerCount: 2
Fore
SplineSet
99 0 m 1
 108 61 l 1
 274 61 l 1
 358 600 l 1
 194 600 l 1
 204 660 l 1
 606 660 l 1
 596 600 l 1
 430 600 l 1
 346 61 l 1
 510 61 l 1
 501 0 l 1
 99 0 l 1
EndSplineSet
Validated: 1
EndChar

StartChar: Iacute
Encoding: 205 205 48
Width: 600
GlyphClass: 2
Flags: W
HStem: 0 61<108 274 346 501> 600 60<204 358 430 596>
LayerCount: 2
Fore
SplineSet
366 710 m 1
 472 822 l 1
 555 822 l 1
 426 710 l 1
 366 710 l 1
99 0 m 1
 108 61 l 1
 274 61 l 1
 358 600 l 1
 194 600 l 1
 204 660 l 1
 606 660 l 1
 596 600 l 1
 430 600 l 1
 346 61 l 1
 510 61 l 1
 501 0 l 1
 99 0 l 1
EndSplineSet
Validated: 1
EndChar

StartChar: Ibreve
Encoding: 300 300 49
Width: 600
GlyphClass: 2
Flags: W
HStem: 0 61<108 274 346 501> 600 60<204 358 430 596> 712 42<370.347 474.601>
VStem: 310 44<770.048 822>
LayerCount: 2
Fore
SplineSet
413 712 m 0
 338 712 310 766 310 817 c 0
 310 819 310 820 310 822 c 1
 354 822 l 1
 355 789 372 754 420 754 c 0
 467 754 495 789 506 822 c 1
 550 822 l 1
 535 769 492 712 413 712 c 0
99 0 m 1
 108 61 l 1
 274 61 l 1
 358 600 l 1
 194 600 l 1
 204 660 l 1
 606 660 l 1
 596 600 l 1
 430 600 l 1
 346 61 l 1
 510 61 l 1
 501 0 l 1
 99 0 l 1
EndSplineSet
Validated: 1
EndChar

StartChar: uni01CF
Encoding: 463 463 50
Width: 600
GlyphClass: 2
Flags: W
HStem: 0 61<108 274 346 501> 600 60<204 358 430 596>
LayerCount: 2
Fore
SplineSet
378 710 m 1
 300 822 l 1
 358 822 l 1
 416 752 l 1
 420 752 l 1
 502 822 l 1
 560 822 l 1
 446 710 l 1
 378 710 l 1
99 0 m 1
 108 61 l 1
 274 61 l 1
 358 600 l 1
 194 600 l 1
 204 660 l 1
 606 660 l 1
 596 600 l 1
 430 600 l 1
 346 61 l 1
 510 61 l 1
 501 0 l 1
 99 0 l 1
EndSplineSet
Validated: 1
EndChar

StartChar: Icircumflex
Encoding: 206 206 51
Width: 600
GlyphClass: 2
Flags: W
HStem: 0 61<108 274 346 501> 600 60<204 358 430 596>
LayerCount: 2
Fore
SplineSet
282 710 m 1
 396 822 l 1
 464 822 l 1
 542 710 l 1
 484 710 l 1
 425 780 l 1
 421 780 l 1
 340 710 l 1
 282 710 l 1
99 0 m 1
 108 61 l 1
 274 61 l 1
 358 600 l 1
 194 600 l 1
 204 660 l 1
 606 660 l 1
 596 600 l 1
 430 600 l 1
 346 61 l 1
 510 61 l 1
 501 0 l 1
 99 0 l 1
EndSplineSet
Validated: 1
EndChar

StartChar: Idieresis
Encoding: 207 207 52
Width: 600
GlyphClass: 2
Flags: W
HStem: 0 61<108 274 346 501> 600 60<204 358 430 596> 722 90<301.27 373.097 469.387 541.324>
VStem: 292 92<732.602 802.238> 460 92<732.602 802.351>
LayerCount: 2
Fore
SplineSet
331 722 m 0
 307 722 292 739 292 761 c 0
 292 791 316 812 346 812 c 0
 369 812 384 797 384 774 c 0
 384 746 359 722 331 722 c 0
498 722 m 0
 475 722 460 739 460 761 c 0
 460 791 485 812 513 812 c 0
 535 812 552 797 552 775 c 0
 552 745 528 722 498 722 c 0
99 0 m 1
 108 61 l 1
 274 61 l 1
 358 600 l 1
 194 600 l 1
 204 660 l 1
 606 660 l 1
 596 600 l 1
 430 600 l 1
 346 61 l 1
 510 61 l 1
 501 0 l 1
 99 0 l 1
EndSplineSet
Validated: 1
EndChar

StartChar: Idotaccent
Encoding: 304 304 53
Width: 600
GlyphClass: 2
Flags: W
HStem: 0 61<108 274 346 501> 600 60<204 358 430 596> 720 99<383.148 460.852>
VStem: 370 104<733.725 805.705>
LayerCount: 2
Fore
SplineSet
414 720 m 0
 388 720 370 738 370 763 c 0
 370 795 398 819 430 819 c 0
 456 819 474 802 474 777 c 0
 474 745 446 720 414 720 c 0
99 0 m 1
 108 61 l 1
 274 61 l 1
 358 600 l 1
 194 600 l 1
 204 660 l 1
 606 660 l 1
 596 600 l 1
 430 600 l 1
 346 61 l 1
 510 61 l 1
 501 0 l 1
 99 0 l 1
EndSplineSet
Validated: 1
EndChar

StartChar: Igrave
Encoding: 204 204 54
Width: 600
GlyphClass: 2
Flags: W
HStem: 0 61<108 274 346 501> 600 60<204 358 430 596>
LayerCount: 2
Fore
SplineSet
398 710 m 1
 304 822 l 1
 387 822 l 1
 458 710 l 1
 398 710 l 1
99 0 m 1
 108 61 l 1
 274 61 l 1
 358 600 l 1
 194 600 l 1
 204 660 l 1
 606 660 l 1
 596 600 l 1
 430 600 l 1
 346 61 l 1
 510 61 l 1
 501 0 l 1
 99 0 l 1
EndSplineSet
Validated: 1
EndChar

StartChar: Imacron
Encoding: 298 298 55
Width: 600
GlyphClass: 2
Flags: W
HStem: 0 61<108 274 346 501> 600 60<204 358 430 596> 735 51<304 537>
LayerCount: 2
Fore
SplineSet
296 735 m 1
 304 786 l 1
 545 786 l 1
 537 735 l 1
 296 735 l 1
99 0 m 1
 108 61 l 1
 274 61 l 1
 358 600 l 1
 194 600 l 1
 204 660 l 1
 606 660 l 1
 596 600 l 1
 430 600 l 1
 346 61 l 1
 510 61 l 1
 501 0 l 1
 99 0 l 1
EndSplineSet
Validated: 1
EndChar

StartChar: Iogonek
Encoding: 302 302 56
Width: 600
GlyphClass: 2
Flags: W
HStem: -211 53<257.3 342.116> 0 61<108 274 346 501> 600 60<204 358 430 596>
VStem: 195 58<-153.214 -65.7002>
LayerCount: 2
Fore
SplineSet
274 -211 m 0
 229 -211 195 -185 195 -138 c 0
 195 -76 236 -35 280 0 c 1
 99 0 l 1
 108 61 l 1
 274 61 l 1
 358 600 l 1
 194 600 l 1
 204 660 l 1
 606 660 l 1
 596 600 l 1
 430 600 l 1
 346 61 l 1
 510 61 l 1
 501 0 l 1
 336 0 l 1
 284 -39 253 -74 253 -118 c 0
 253 -145 273 -158 296 -158 c 0
 312 -158 325 -154 339 -144 c 1
 354 -184 l 1
 334 -198 300 -211 274 -211 c 0
EndSplineSet
Validated: 1
EndChar

StartChar: Itilde
Encoding: 296 296 57
Width: 600
GlyphClass: 2
Flags: W
HStem: 0 61<108 274 346 501> 600 60<204 358 430 596> 716 49<438.204 513.25> 770 50<329.328 405.522>
VStem: 272 42<716 754.366> 530 41<782.871 820>
LayerCount: 2
Fore
SplineSet
272 716 m 1
 286 774 324 820 371 820 c 0
 424 820 442 765 480 765 c 0
 500 765 520 787 530 820 c 1
 571 820 l 1
 557 765 519 716 472 716 c 0
 419 716 401 770 363 770 c 0
 343 770 324 751 314 716 c 1
 272 716 l 1
99 0 m 1
 108 61 l 1
 274 61 l 1
 358 600 l 1
 194 600 l 1
 204 660 l 1
 606 660 l 1
 596 600 l 1
 430 600 l 1
 346 61 l 1
 510 61 l 1
 501 0 l 1
 99 0 l 1
EndSplineSet
Validated: 1
EndChar

StartChar: J
Encoding: 74 74 58
Width: 600
GlyphClass: 2
Flags: W
HStem: -12 63<210.696 372.369> 601 59<244 514>
LayerCount: 2
Fore
SplineSet
274 -12 m 0
 200 -12 132 22 102 98 c 1
 155 140 l 1
 184 79 232 51 284 51 c 0
 383 51 434 102 452 214 c 2
 514 601 l 1
 234 601 l 1
 244 660 l 1
 592 660 l 1
 522 208 l 1
 502 86 434 -12 274 -12 c 0
EndSplineSet
Validated: 1
EndChar

StartChar: Jcircumflex
Encoding: 308 308 59
Width: 600
GlyphClass: 2
Flags: W
HStem: -12 63<210.696 372.369> 602 58<244 514>
LayerCount: 2
Fore
SplineSet
303 710 m 1
 416 822 l 1
 484 822 l 1
 562 710 l 1
 504 710 l 1
 446 780 l 1
 442 780 l 1
 362 710 l 1
 303 710 l 1
274 -12 m 0
 200 -12 132 22 102 98 c 1
 155 140 l 1
 184 79 232 51 284 51 c 0
 383 51 434 102 452 214 c 2
 514 602 l 1
 234 602 l 1
 244 660 l 1
 592 660 l 1
 522 208 l 1
 502 86 434 -12 274 -12 c 0
EndSplineSet
Validated: 1
EndChar

StartChar: K
Encoding: 75 75 60
Width: 600
GlyphClass: 2
Flags: W
HStem: 0 21G<104 179.148 487.91 576> 640 20G<204.848 280 554.766 656>
LayerCount: 2
Fore
SplineSet
104 0 m 1
 208 660 l 1
 280 660 l 1
 226 318 l 1
 229 318 l 1
 575 660 l 1
 656 660 l 1
 408 412 l 1
 576 0 l 1
 496 0 l 1
 352 356 l 1
 210 216 l 1
 176 0 l 1
 104 0 l 1
EndSplineSet
Validated: 1
EndChar

StartChar: L
Encoding: 76 76 61
Width: 600
GlyphClass: 2
Flags: W
HStem: 0 61<218 540> 640 20G<240.818 314>
LayerCount: 2
Fore
SplineSet
139 0 m 1
 244 660 l 1
 314 660 l 1
 218 61 l 1
 550 61 l 1
 540 0 l 1
 139 0 l 1
EndSplineSet
Validated: 1
EndChar

StartChar: Lacute
Encoding: 313 313 62
Width: 600
GlyphClass: 2
Flags: W
HStem: 0 61<218 540> 640 20G<240.818 314>
LayerCount: 2
Fore
SplineSet
254 710 m 1
 362 822 l 1
 444 822 l 1
 314 710 l 1
 254 710 l 1
139 0 m 1
 244 660 l 1
 314 660 l 1
 218 61 l 1
 550 61 l 1
 540 0 l 1
 139 0 l 1
EndSplineSet
Validated: 1
EndChar

StartChar: Lcaron
Encoding: 317 317 63
Width: 600
GlyphClass: 2
Flags: W
HStem: 0 61<218 540> 518 21G<472 512.841> 640 20G<240.818 314> 708 20G<500.048 555>
VStem: 472 36<518 546.921>
LayerCount: 2
Fore
SplineSet
472 518 m 1
 503 728 l 1
 555 728 l 1
 546 675 l 1
 508 518 l 1
 472 518 l 1
139 0 m 1
 244 660 l 1
 314 660 l 1
 218 61 l 1
 550 61 l 1
 540 0 l 1
 139 0 l 1
EndSplineSet
Validated: 1
EndChar

StartChar: Ldot
Encoding: 319 319 64
Width: 600
GlyphClass: 2
Flags: W
HStem: 0 61<218 540> 290 116<438.391 525.045> 640 20G<240.818 314>
VStem: 420 122<307.505 387.5>
LayerCount: 2
Fore
SplineSet
139 0 m 1
 244 660 l 1
 314 660 l 1
 218 61 l 1
 550 61 l 1
 540 0 l 1
 139 0 l 1
472 290 m 0
 442 290 420 309 420 339 c 0
 420 379 453 406 490 406 c 0
 520 406 542 387 542 357 c 0
 542 316 511 290 472 290 c 0
EndSplineSet
Validated: 1
EndChar

StartChar: Lslash
Encoding: 321 321 65
Width: 600
GlyphClass: 2
Flags: W
HStem: 0 61<218 540> 640 20G<240.831 314>
LayerCount: 2
Fore
SplineSet
139 0 m 1
 176 234 l 1
 86 190 l 1
 96 248 l 1
 186 294 l 1
 244 660 l 1
 314 660 l 1
 260 328 l 1
 509 448 l 1
 501 389 l 1
 252 268 l 1
 218 61 l 1
 550 61 l 1
 540 0 l 1
 139 0 l 1
EndSplineSet
Validated: 1
EndChar

StartChar: M
Encoding: 77 77 66
Width: 642
GlyphClass: 2
Flags: W
HStem: 0 21G<78 148.134 496 567.182> 640 20G<179.818 276.552 544 669>
LayerCount: 2
Fore
SplineSet
78 0 m 1
 183 660 l 1
 272 660 l 1
 338 370 l 1
 361 260 l 1
 365 260 l 1
 432 398 508 527 580 660 c 1
 669 660 l 1
 564 0 l 1
 496 0 l 1
 560 402 l 2
 568 453 586 536 597 586 c 1
 593 586 l 1
 528 452 l 1
 370 180 l 1
 328 180 l 1
 258 452 l 1
 231 586 l 1
 228 586 l 1
 224 536 217 453 208 402 c 2
 145 0 l 1
 78 0 l 1
EndSplineSet
Validated: 1
EndChar

StartChar: N
Encoding: 78 78 67
Width: 600
GlyphClass: 2
Flags: W
HStem: 0 21G<86 157.169 407 517.182> 640 20G<187.818 298 546.915 619>
VStem: 550 69<616 660>
LayerCount: 2
Fore
SplineSet
86 0 m 1
 191 660 l 1
 264 660 l 1
 332 471 403 285 468 94 c 1
 470 94 l 1
 478 158 483 229 494 297 c 2
 550 660 l 1
 619 660 l 1
 514 0 l 1
 441 0 l 1
 373 189 301 374 236 566 c 1
 234 566 l 1
 226 500 222 432 212 366 c 2
 154 0 l 1
 86 0 l 1
EndSplineSet
Validated: 1
EndChar

StartChar: Nacute
Encoding: 323 323 68
Width: 600
GlyphClass: 2
Flags: W
HStem: 0 21G<86 157.169 407 517.182> 640 20G<188.788 298 546.915 619>
VStem: 550 69<616 660>
LayerCount: 2
Fore
SplineSet
372 710 m 1
 478 822 l 1
 561 822 l 1
 432 710 l 1
 372 710 l 1
86 0 m 1
 192 660 l 1
 264 660 l 1
 332 471 403 285 468 94 c 1
 470 94 l 1
 478 158 483 229 494 297 c 2
 550 660 l 1
 619 660 l 1
 514 0 l 1
 441 0 l 1
 373 189 301 375 236 567 c 1
 234 567 l 1
 226 501 223 432 212 366 c 2
 154 0 l 1
 86 0 l 1
EndSplineSet
Validated: 1
EndChar

StartChar: Ncaron
Encoding: 327 327 69
Width: 600
GlyphClass: 2
Flags: W
HStem: 0 21G<86 157.169 407 517.182> 640 20G<188.788 298 546.915 619>
VStem: 550 69<616 660>
LayerCount: 2
Fore
SplineSet
384 710 m 1
 306 822 l 1
 364 822 l 1
 422 752 l 1
 426 752 l 1
 508 822 l 1
 566 822 l 1
 452 710 l 1
 384 710 l 1
86 0 m 1
 192 660 l 1
 264 660 l 1
 332 471 403 285 468 94 c 1
 470 94 l 1
 478 158 483 229 494 297 c 2
 550 660 l 1
 619 660 l 1
 514 0 l 1
 441 0 l 1
 373 189 301 375 236 567 c 1
 234 567 l 1
 226 501 223 432 212 366 c 2
 154 0 l 1
 86 0 l 1
EndSplineSet
Validated: 1
EndChar

StartChar: uni1E44
Encoding: 7748 7748 70
Width: 600
GlyphClass: 2
Flags: W
HStem: 0 21G<86 157.169 407 517.182> 640 20G<188.788 298 546.915 619> 720 99<389.148 466.852>
VStem: 376 104<733.725 805.705> 550 69<616 660>
LayerCount: 2
Fore
SplineSet
420 720 m 0
 394 720 376 738 376 763 c 0
 376 795 404 819 436 819 c 0
 462 819 480 802 480 777 c 0
 480 745 452 720 420 720 c 0
86 0 m 1
 192 660 l 1
 264 660 l 1
 332 471 403 285 468 94 c 1
 470 94 l 1
 478 158 483 229 494 297 c 2
 550 660 l 1
 619 660 l 1
 514 0 l 1
 441 0 l 1
 373 189 301 374 236 566 c 1
 234 566 l 1
 226 500 223 432 212 366 c 2
 154 0 l 1
 86 0 l 1
EndSplineSet
Validated: 1
EndChar

StartChar: Ntilde
Encoding: 209 209 71
Width: 600
GlyphClass: 2
Flags: W
HStem: 0 21G<86 157.169 407 517.182> 640 20G<188.788 298 546.915 619> 716 49<444.204 519.25> 770 50<335.328 411.522>
VStem: 278 42<716 754.366> 536 41<782.871 820> 550 69<616 660>
LayerCount: 2
Fore
SplineSet
278 716 m 1xfc
 292 774 330 820 377 820 c 0
 430 820 448 765 486 765 c 0
 506 765 526 787 536 820 c 1
 577 820 l 1
 563 765 525 716 478 716 c 0
 425 716 407 770 369 770 c 0
 349 770 330 751 320 716 c 1
 278 716 l 1xfc
86 0 m 1
 192 660 l 1
 264 660 l 1
 332 471 403 285 468 94 c 1
 470 94 l 1
 478 158 483 229 494 297 c 2
 550 660 l 1
 619 660 l 1xfa
 514 0 l 1
 441 0 l 1
 373 189 301 374 236 566 c 1
 234 566 l 1
 226 500 223 432 212 366 c 2
 154 0 l 1
 86 0 l 1
EndSplineSet
Validated: 1
EndChar

StartChar: O
Encoding: 79 79 72
Width: 600
GlyphClass: 2
Flags: W
HStem: -12 63<241.477 385.265> 609 63<315.224 462.935>
VStem: 95 75<140.379 418.623> 536 74<254.925 522.184>
LayerCount: 2
Fore
SplineSet
298 -12 m 0
 173 -12 95 94 95 260 c 0
 95 506 234 672 406 672 c 0
 532 672 610 569 610 405 c 0
 610 160 470 -12 298 -12 c 0
308 51 m 0
 436 51 536 202 536 400 c 0
 536 528 484 609 396 609 c 0
 268 609 170 466 170 264 c 0
 170 134 220 51 308 51 c 0
EndSplineSet
Validated: 1
EndChar

StartChar: Oacute
Encoding: 211 211 73
Width: 600
GlyphClass: 2
Flags: W
HStem: -12 63<241.477 385.265> 610 62<315.224 462.935>
VStem: 95 75<140.379 418.719> 536 74<250.087 522.755>
LayerCount: 2
Fore
SplineSet
366 710 m 1
 472 822 l 1
 555 822 l 1
 426 710 l 1
 366 710 l 1
298 -12 m 0
 173 -12 95 94 95 260 c 0
 95 506 234 672 406 672 c 0
 532 672 610 570 610 406 c 0
 610 160 470 -12 298 -12 c 0
308 51 m 0
 436 51 536 201 536 400 c 0
 536 528 484 610 396 610 c 0
 268 610 170 466 170 264 c 0
 170 134 220 51 308 51 c 0
EndSplineSet
Validated: 1
EndChar

StartChar: Obreve
Encoding: 334 334 74
Width: 600
GlyphClass: 2
Flags: W
HStem: -12 63<241.477 385.265> 610 62<315.224 462.935> 712 42<370.347 474.601>
VStem: 95 75<140.379 418.719> 310 44<770.048 822> 536 74<250.087 522.755>
LayerCount: 2
Fore
SplineSet
413 712 m 0
 338 712 310 766 310 817 c 0
 310 819 310 820 310 822 c 1
 354 822 l 1
 355 789 372 754 420 754 c 0
 467 754 495 789 506 822 c 1
 550 822 l 1
 535 769 492 712 413 712 c 0
298 -12 m 0
 173 -12 95 94 95 260 c 0
 95 506 234 672 406 672 c 0
 532 672 610 570 610 406 c 0
 610 160 470 -12 298 -12 c 0
308 51 m 0
 436 51 536 201 536 400 c 0
 536 528 484 610 396 610 c 0
 268 610 170 466 170 264 c 0
 170 134 220 51 308 51 c 0
EndSplineSet
Validated: 1
EndChar

StartChar: uni01D1
Encoding: 465 465 75
Width: 600
GlyphClass: 2
Flags: W
HStem: -12 63<241.477 385.265> 610 62<315.224 462.935>
VStem: 95 75<140.379 418.719> 536 74<250.087 522.755>
LayerCount: 2
Fore
SplineSet
378 710 m 1
 300 822 l 1
 358 822 l 1
 416 752 l 1
 420 752 l 1
 502 822 l 1
 560 822 l 1
 446 710 l 1
 378 710 l 1
298 -12 m 0
 173 -12 95 94 95 260 c 0
 95 506 234 672 406 672 c 0
 532 672 610 570 610 406 c 0
 610 160 470 -12 298 -12 c 0
308 51 m 0
 436 51 536 201 536 400 c 0
 536 528 484 610 396 610 c 0
 268 610 170 466 170 264 c 0
 170 134 220 51 308 51 c 0
EndSplineSet
Validated: 1
EndChar

StartChar: Ocircumflex
Encoding: 212 212 76
Width: 600
GlyphClass: 2
Flags: W
HStem: -12 63<241.477 385.265> 610 62<315.224 462.935>
VStem: 95 75<140.379 418.719> 536 74<250.087 522.755>
LayerCount: 2
Fore
SplineSet
282 710 m 1
 396 822 l 1
 464 822 l 1
 542 710 l 1
 484 710 l 1
 425 780 l 1
 421 780 l 1
 340 710 l 1
 282 710 l 1
298 -12 m 0
 173 -12 95 94 95 260 c 0
 95 506 234 672 406 672 c 0
 532 672 610 570 610 406 c 0
 610 160 470 -12 298 -12 c 0
308 51 m 0
 436 51 536 201 536 400 c 0
 536 528 484 610 396 610 c 0
 268 610 170 466 170 264 c 0
 170 134 220 51 308 51 c 0
EndSplineSet
Validated: 1
EndChar

StartChar: Odieresis
Encoding: 214 214 77
Width: 600
GlyphClass: 2
Flags: W
HStem: -12 63<241.477 385.265> 610 62<315.224 462.935> 722 90<301.27 373.097 469.387 541.324>
VStem: 95 75<140.379 418.719> 292 92<732.602 802.238> 460 92<732.602 802.351> 536 74<254.711 522.342>
LayerCount: 2
Fore
SplineSet
331 722 m 0xf8
 307 722 292 739 292 761 c 0
 292 791 316 812 346 812 c 0
 369 812 384 797 384 774 c 0
 384 746 359 722 331 722 c 0xf8
498 722 m 0
 475 722 460 739 460 761 c 0
 460 791 485 812 513 812 c 0
 535 812 552 797 552 775 c 0xfc
 552 745 528 722 498 722 c 0
298 -12 m 0
 173 -12 95 94 95 260 c 0
 95 506 234 672 406 672 c 0
 532 672 610 569 610 405 c 0xfa
 610 160 470 -12 298 -12 c 0
308 51 m 0
 436 51 536 201 536 400 c 0
 536 528 484 610 396 610 c 0
 268 610 170 466 170 264 c 0
 170 134 220 51 308 51 c 0
EndSplineSet
Validated: 1
EndChar

StartChar: Ograve
Encoding: 210 210 78
Width: 600
GlyphClass: 2
Flags: W
HStem: -12 63<241.477 385.265> 610 62<315.224 462.935>
VStem: 95 75<140.379 418.719> 536 74<250.087 522.755>
LayerCount: 2
Fore
SplineSet
398 710 m 1
 304 822 l 1
 387 822 l 1
 458 710 l 1
 398 710 l 1
298 -12 m 0
 173 -12 95 94 95 260 c 0
 95 506 234 672 406 672 c 0
 532 672 610 570 610 406 c 0
 610 160 470 -12 298 -12 c 0
308 51 m 0
 436 51 536 201 536 400 c 0
 536 528 484 610 396 610 c 0
 268 610 170 466 170 264 c 0
 170 134 220 51 308 51 c 0
EndSplineSet
Validated: 1
EndChar

StartChar: Ohungarumlaut
Encoding: 336 336 79
Width: 600
GlyphClass: 2
Flags: W
HStem: -12 63<241.477 385.265> 610 62<315.224 462.935>
VStem: 95 75<140.379 418.719> 536 74<250.087 522.755>
LayerCount: 2
Fore
SplineSet
308 710 m 1
 392 822 l 1
 460 822 l 1
 361 710 l 1
 308 710 l 1
462 710 m 1
 546 822 l 1
 614 822 l 1
 514 710 l 1
 462 710 l 1
298 -12 m 0
 173 -12 95 94 95 260 c 0
 95 506 234 672 406 672 c 0
 532 672 610 570 610 406 c 0
 610 160 470 -12 298 -12 c 0
308 51 m 0
 436 51 536 201 536 400 c 0
 536 528 484 610 396 610 c 0
 268 610 170 466 170 264 c 0
 170 134 220 51 308 51 c 0
EndSplineSet
Validated: 1
EndChar

StartChar: Omacron
Encoding: 332 332 80
Width: 600
GlyphClass: 2
Flags: W
HStem: -12 63<241.477 385.265> 609 63<315.224 462.935> 735 51<304 537>
VStem: 95 75<140.379 418.623> 536 74<254.711 522.184>
LayerCount: 2
Fore
SplineSet
296 735 m 1
 304 786 l 1
 545 786 l 1
 537 735 l 1
 296 735 l 1
298 -12 m 0
 173 -12 95 94 95 260 c 0
 95 506 234 672 406 672 c 0
 532 672 610 569 610 405 c 0
 610 160 470 -12 298 -12 c 0
308 51 m 0
 436 51 536 201 536 400 c 0
 536 528 484 609 396 609 c 0
 268 609 170 466 170 264 c 0
 170 134 220 51 308 51 c 0
EndSplineSet
Validated: 1
EndChar

StartChar: uni01EA
Encoding: 490 490 81
Width: 600
GlyphClass: 2
Flags: W
HStem: -211 53<280.781 365.266> -12 63<242.274 298> 609 63<315.27 462.935>
VStem: 96 74<140.214 418.847> 218 59<-153.214 -71.9869> 536 74<253.746 522.184>
LayerCount: 2
Fore
SplineSet
297 -211 m 0
 252 -211 218 -185 218 -138 c 0
 218 -90 253 -46 298 -12 c 1
 154 -10 96 119 96 261 c 0
 96 506 234 672 406 672 c 0
 532 672 610 569 610 405 c 0
 610 195 515 59 375 -0 c 0
 311 -28 277 -82 277 -118 c 0
 277 -145 297 -158 318 -158 c 0
 334 -158 348 -154 362 -144 c 1
 378 -184 l 1
 356 -198 321 -211 297 -211 c 0
308 51 m 0
 436 51 536 202 536 400 c 0
 536 528 484 609 396 609 c 0
 268 609 170 466 170 264 c 0
 170 134 220 51 308 51 c 0
EndSplineSet
Validated: 1
EndChar

StartChar: Oslash
Encoding: 216 216 82
Width: 600
GlyphClass: 2
Flags: W
HStem: -12 63<239.01 385.588> 610 63<315.355 469.203>
VStem: 95 73<159.044 409.576> 538 72<256.211 502.957>
LayerCount: 2
Fore
SplineSet
86 -28 m 1
 48 0 l 1
 126 94 l 1
 106 134 95 198 95 260 c 0
 95 507 235 673 407 673 c 0
 469 673 518 651 553 608 c 1
 619 689 l 1
 656 660 l 1
 579 568 l 1
 600 530 610 468 610 406 c 0
 610 160 470 -12 298 -12 c 0
 237 -12 188 10 152 53 c 1
 86 -28 l 1
180 158 m 1
 508 549 l 1
 480 590 444 610 396 610 c 0
 267 610 168 466 168 263 c 0
 168 259 168 255 168 251 c 0
 169 220 172 180 180 158 c 1
308 51 m 0
 437 51 538 202 538 402 c 0
 538 406 538 410 538 414 c 0
 538 444 533 482 527 504 c 1
 202 112 l 1
 226 73 262 51 308 51 c 0
EndSplineSet
Validated: 1
EndChar

StartChar: Otilde
Encoding: 213 213 83
Width: 600
GlyphClass: 2
Flags: W
HStem: -12 63<241.477 385.265> 610 62<315.224 462.935> 716 49<438.204 513.25> 770 50<329.328 405.522>
VStem: 95 75<140.379 418.719> 272 42<716 754.366> 530 41<782.871 820> 536 74<254.711 522.342>
LayerCount: 2
Fore
SplineSet
272 716 m 1xfe
 286 774 324 820 371 820 c 0
 424 820 442 765 480 765 c 0
 500 765 520 787 530 820 c 1
 571 820 l 1
 557 765 519 716 472 716 c 0
 419 716 401 770 363 770 c 0
 343 770 324 751 314 716 c 1
 272 716 l 1xfe
298 -12 m 0
 173 -12 95 94 95 260 c 0
 95 506 234 672 406 672 c 0
 532 672 610 569 610 405 c 0xfd
 610 160 470 -12 298 -12 c 0
308 51 m 0
 436 51 536 201 536 400 c 0
 536 528 484 610 396 610 c 0
 268 610 170 466 170 264 c 0
 170 134 220 51 308 51 c 0
EndSplineSet
Validated: 1
EndChar

StartChar: OE
Encoding: 338 338 84
Width: 600
GlyphClass: 2
Flags: W
HStem: 0 58<225.895 322 389 590> 317 61<440 583> 601 59<294.266 408 476 676>
VStem: 80 74<138.672 416.655>
LayerCount: 2
Fore
SplineSet
298 0 m 2
 158 0 80 99 80 260 c 0
 80 502 205 660 405 660 c 2
 686 660 l 1
 676 601 l 1
 476 601 l 1
 440 378 l 1
 594 378 l 1
 583 317 l 1
 430 317 l 1
 389 61 l 1
 600 61 l 1
 590 0 l 1
 298 0 l 2
300 58 m 2
 322 58 l 1
 408 602 l 1
 386 602 l 2
 228 602 154 454 154 260 c 0
 154 136 200 58 300 58 c 2
EndSplineSet
Validated: 1
EndChar

StartChar: P
Encoding: 80 80 85
Width: 600
GlyphClass: 2
Flags: W
HStem: 0 21G<108 181.123> 269 59<230 462.208> 602 58<274 503.54>
VStem: 546 72<404.576 561.678>
LayerCount: 2
Fore
SplineSet
108 0 m 1
 212 660 l 1
 406 660 l 2
 536 660 618 618 618 504 c 0
 618 346 508 269 344 269 c 2
 220 269 l 1
 178 0 l 1
 108 0 l 1
230 328 m 1
 342 328 l 2
 484 328 546 382 546 496 c 0
 546 576 493 602 386 602 c 2
 274 602 l 1
 230 328 l 1
EndSplineSet
Validated: 1
EndChar

StartChar: Thorn
Encoding: 222 222 86
Width: 600
GlyphClass: 2
Flags: W
HStem: 0 21G<106 181.205> 156 58<213 443.267> 488 59<265 485.68> 640 20G<208.788 284>
VStem: 529 73<288.287 448.178>
LayerCount: 2
Fore
SplineSet
106 0 m 1
 212 660 l 1
 284 660 l 1
 265 547 l 1
 388 547 l 2
 518 547 602 505 602 391 c 0
 602 233 487 156 326 156 c 2
 203 156 l 1
 178 0 l 1
 106 0 l 1
213 214 m 1
 324 214 l 2
 466 214 529 268 529 382 c 0
 529 462 474 488 368 488 c 2
 256 488 l 1
 213 214 l 1
EndSplineSet
Validated: 1
EndChar

StartChar: Q
Encoding: 81 81 87
Width: 600
GlyphClass: 2
Flags: W
HStem: -161 62<387.169 521.184> -9 59<242.997 266.76 340 386.982> 612 61<318.182 464.778>
VStem: 96 74<139.786 418.333> 534 72<249.14 523.842>
LayerCount: 2
Fore
SplineSet
452 -161 m 0
 338 -161 279 -97 262 -9 c 1
 158 7 96 111 96 259 c 0
 96 505 232 673 406 673 c 0
 530 673 606 570 606 406 c 0
 606 183 492 18 340 -8 c 1
 352 -67 399 -99 471 -99 c 0
 491 -99 509 -94 521 -90 c 1
 524 -148 l 1
 502 -155 479 -161 452 -161 c 0
308 50 m 0
 436 50 534 203 534 402 c 0
 534 530 484 612 396 612 c 0
 266 612 170 465 170 264 c 0
 170 135 220 50 308 50 c 0
EndSplineSet
Validated: 1
EndChar

StartChar: R
Encoding: 82 82 88
Width: 600
GlyphClass: 2
Flags: W
HStem: 0 21G<106 179.217 457.608 547> 286 60<232 346> 602 58<272 495.235>
VStem: 536 73<415.696 564.556>
LayerCount: 2
Fore
SplineSet
106 0 m 1
 210 660 l 1
 410 660 l 2
 528 660 609 619 609 510 c 0
 609 390 533 317 423 292 c 1
 547 0 l 1
 466 0 l 1
 346 286 l 1
 222 286 l 1
 176 0 l 1
 106 0 l 1
232 346 m 1
 348 346 l 2
 469 346 536 398 536 500 c 0
 536 574 483 602 388 602 c 2
 272 602 l 1
 232 346 l 1
EndSplineSet
Validated: 1
EndChar

StartChar: Racute
Encoding: 340 340 89
Width: 600
GlyphClass: 2
Flags: W
HStem: 0 21G<106 179.217 457.608 547> 286 60<232 346> 602 58<272 495.235>
VStem: 536 73<415.721 564.898>
LayerCount: 2
Fore
SplineSet
370 710 m 1
 478 822 l 1
 560 822 l 1
 430 710 l 1
 370 710 l 1
106 0 m 1
 211 660 l 1
 410 660 l 2
 528 660 609 619 609 510 c 0
 609 389 533 318 423 292 c 1
 547 0 l 1
 466 0 l 1
 346 286 l 1
 222 286 l 1
 176 0 l 1
 106 0 l 1
232 346 m 1
 348 346 l 2
 469 346 536 398 536 501 c 0
 536 575 483 602 388 602 c 2
 272 602 l 1
 232 346 l 1
EndSplineSet
Validated: 1
EndChar

StartChar: Rcaron
Encoding: 344 344 90
Width: 600
GlyphClass: 2
Flags: W
HStem: 0 21G<106 179.217 457.608 547> 286 60<232 346> 602 58<272 495.235>
VStem: 536 73<415.721 564.898>
LayerCount: 2
Fore
SplineSet
384 710 m 1
 305 822 l 1
 364 822 l 1
 422 752 l 1
 426 752 l 1
 506 822 l 1
 564 822 l 1
 450 710 l 1
 384 710 l 1
106 0 m 1
 211 660 l 1
 410 660 l 2
 528 660 609 619 609 510 c 0
 609 389 533 318 423 292 c 1
 547 0 l 1
 466 0 l 1
 346 286 l 1
 222 286 l 1
 176 0 l 1
 106 0 l 1
232 346 m 1
 348 346 l 2
 469 346 536 398 536 501 c 0
 536 575 483 602 388 602 c 2
 272 602 l 1
 232 346 l 1
EndSplineSet
Validated: 1
EndChar

StartChar: S
Encoding: 83 83 91
Width: 600
GlyphClass: 2
Flags: W
HStem: -12 63<215.448 416.554> 609 63<314.363 504.165>
VStem: 180 74<440.876 556.46> 490 74<115.792 239.825>
LayerCount: 2
Fore
SplineSet
304 -12 m 0
 206 -12 131 26 84 86 c 1
 136 136 l 1
 176 84 241 51 316 51 c 0
 422 51 490 105 490 184 c 0
 490 244 442 264 386 291 c 1
 296 332 l 2
 242 356 180 399 180 480 c 0
 180 590 286 672 418 672 c 0
 500 672 566 638 606 592 c 1
 560 546 l 1
 524 584 476 609 410 609 c 0
 318 609 254 564 254 494 c 0
 254 436 309 414 357 390 c 2
 444 348 l 2
 509 316 564 279 564 198 c 0
 564 82 458 -12 304 -12 c 0
EndSplineSet
Validated: 1
EndChar

StartChar: Sacute
Encoding: 346 346 92
Width: 600
GlyphClass: 2
Flags: W
HStem: -12 63<215.448 416.554> 610 62<314.363 504.297>
VStem: 180 74<440.697 556.596> 490 74<115.792 239.972>
LayerCount: 2
Fore
SplineSet
377 710 m 1
 484 822 l 1
 567 822 l 1
 437 710 l 1
 377 710 l 1
304 -12 m 0
 206 -12 131 26 84 86 c 1
 136 136 l 1
 176 84 241 51 316 51 c 0
 422 51 490 105 490 184 c 0
 490 244 442 265 386 291 c 2
 296 333 l 1
 242 357 180 399 180 480 c 0
 180 590 286 672 418 672 c 0
 500 672 567 638 606 592 c 1
 560 546 l 1
 524 585 476 610 410 610 c 0
 318 610 254 564 254 494 c 0
 254 435 309 414 357 390 c 2
 444 348 l 2
 509 316 564 279 564 198 c 0
 564 82 458 -12 304 -12 c 0
EndSplineSet
Validated: 1
EndChar

StartChar: Scaron
Encoding: 352 352 93
Width: 600
GlyphClass: 2
Flags: W
HStem: -12 63<215.448 416.554> 610 62<314.363 504.297>
VStem: 180 74<440.697 556.596> 490 74<115.792 239.972>
LayerCount: 2
Fore
SplineSet
390 710 m 1
 312 822 l 1
 370 822 l 1
 428 752 l 1
 432 752 l 1
 513 822 l 1
 572 822 l 1
 458 710 l 1
 390 710 l 1
304 -12 m 0
 206 -12 131 26 84 86 c 1
 136 136 l 1
 176 84 241 51 316 51 c 0
 422 51 490 105 490 184 c 0
 490 244 442 265 386 291 c 2
 296 333 l 1
 242 357 180 399 180 480 c 0
 180 590 286 672 418 672 c 0
 500 672 567 638 606 592 c 1
 560 546 l 1
 524 585 476 610 410 610 c 0
 318 610 254 564 254 494 c 0
 254 435 309 414 357 390 c 2
 444 348 l 2
 509 316 564 279 564 198 c 0
 564 82 458 -12 304 -12 c 0
EndSplineSet
Validated: 1
EndChar

StartChar: Scedilla
Encoding: 350 350 94
Width: 600
GlyphClass: 2
Flags: W
HStem: -212 38<201 271.62> 609 63<314.363 504.165>
VStem: 180 74<440.876 556.46> 298 58<-152.222 -87.6698> 490 74<115.595 239.825>
LayerCount: 2
Fore
SplineSet
201 -212 m 1
 200 -174 l 1
 256 -167 298 -152 298 -121 c 0
 298 -97 276 -83 240 -74 c 1
 284 -12 l 1
 196 -7 128 30 84 86 c 1
 136 136 l 1
 176 84 241 51 316 51 c 0
 422 51 490 105 490 184 c 0
 490 244 442 264 386 291 c 1
 296 332 l 2
 242 356 180 399 180 480 c 0
 180 590 286 672 418 672 c 0
 500 672 566 638 606 592 c 1
 560 546 l 1
 524 584 476 609 410 609 c 0
 318 609 254 564 254 494 c 0
 254 436 309 414 357 390 c 2
 444 348 l 2
 509 316 564 279 564 198 c 0
 564 88 471 -1 332 -12 c 1
 306 -51 l 1
 334 -61 356 -79 356 -112 c 0
 356 -176 281 -204 201 -212 c 1
EndSplineSet
Validated: 1
EndChar

StartChar: Scircumflex
Encoding: 348 348 95
Width: 600
GlyphClass: 2
Flags: W
HStem: -12 63<215.448 416.554> 610 62<314.363 504.297>
VStem: 180 74<440.697 556.596> 490 74<115.792 239.972>
LayerCount: 2
Fore
SplineSet
294 710 m 1
 408 822 l 1
 476 822 l 1
 554 710 l 1
 495 710 l 1
 437 780 l 1
 433 780 l 1
 352 710 l 1
 294 710 l 1
304 -12 m 0
 206 -12 131 26 84 86 c 1
 136 136 l 1
 176 84 241 51 316 51 c 0
 422 51 490 105 490 184 c 0
 490 244 442 265 386 291 c 2
 296 333 l 1
 242 357 180 399 180 480 c 0
 180 590 286 672 418 672 c 0
 500 672 567 638 606 592 c 1
 560 546 l 1
 524 585 476 610 410 610 c 0
 318 610 254 564 254 494 c 0
 254 435 309 414 357 390 c 2
 444 348 l 2
 509 316 564 279 564 198 c 0
 564 82 458 -12 304 -12 c 0
EndSplineSet
Validated: 1
EndChar

StartChar: uni1E60
Encoding: 7776 7776 96
Width: 600
GlyphClass: 2
Flags: W
HStem: -12 63<215.448 416.554> 610 62<314.363 504.165> 720 99<395.148 472.259>
VStem: 180 74<440.915 556.596> 382 104<733.725 805.705> 490 74<115.792 239.972>
LayerCount: 2
Fore
SplineSet
426 720 m 0
 400 720 382 738 382 763 c 0
 382 795 410 819 442 819 c 0
 468 819 486 801 486 777 c 0
 486 745 457 720 426 720 c 0
304 -12 m 0
 206 -12 131 26 84 86 c 1
 136 136 l 1
 176 84 241 51 316 51 c 0
 422 51 490 105 490 184 c 0
 490 244 442 265 386 291 c 2
 296 333 l 1
 242 357 180 399 180 480 c 0
 180 590 286 672 418 672 c 0
 500 672 566 638 606 592 c 1
 560 546 l 1
 524 585 476 610 410 610 c 0
 318 610 254 564 254 494 c 0
 254 436 309 414 357 390 c 2
 444 348 l 2
 509 316 564 279 564 198 c 0
 564 82 458 -12 304 -12 c 0
EndSplineSet
Validated: 1
EndChar

StartChar: uni1E9E
Encoding: 7838 7838 97
Width: 600
GlyphClass: 2
Flags: W
HStem: -12 61<322.988 459.958> 0 21G<82 157.173> 612 60<320.508 474.013>
VStem: 516 76<108.119 253.365 517.678 569.635>
LayerCount: 2
Fore
SplineSet
388 -12 m 0xb0
 320 -12 267 16 237 62 c 1
 287 109 l 1
 315 67 348 49 392 49 c 0xb0
 468 49 516 112 516 191 c 0
 516 247 481 294 360 318 c 1
 364 366 l 1
 515 525 l 1
 503 573 469 612 407 612 c 0
 311 612 242 551 220 416 c 2
 154 0 l 1
 82 0 l 1x70
 150 433 l 2
 171 569 262 672 418 672 c 0
 518 672 573 613 591 522 c 1
 441 364 l 1
 547 341 592 280 592 200 c 0
 592 82 506 -12 388 -12 c 0xb0
EndSplineSet
Validated: 1
EndChar

StartChar: T
Encoding: 84 84 98
Width: 600
GlyphClass: 2
Flags: W
HStem: 0 21G<264 339.133> 600 60<149 358 430 650>
LayerCount: 2
Fore
SplineSet
264 0 m 1
 358 600 l 1
 138 600 l 1
 149 660 l 1
 661 660 l 1
 650 600 l 1
 430 600 l 1
 336 0 l 1
 264 0 l 1
EndSplineSet
Validated: 1
EndChar

StartChar: Tcaron
Encoding: 356 356 99
Width: 600
GlyphClass: 2
Flags: W
HStem: 0 21G<264 339.133> 600 60<150 358 430 650>
LayerCount: 2
Fore
SplineSet
378 710 m 1
 300 822 l 1
 357 822 l 1
 416 752 l 1
 420 752 l 1
 500 822 l 1
 558 822 l 1
 445 710 l 1
 378 710 l 1
264 0 m 1
 358 600 l 1
 138 600 l 1
 150 660 l 1
 661 660 l 1
 650 600 l 1
 430 600 l 1
 336 0 l 1
 264 0 l 1
EndSplineSet
Validated: 1
EndChar

StartChar: uni0162
Encoding: 354 354 100
Width: 600
GlyphClass: 2
Flags: W
HStem: -212 38<186 257.399> 600 60<149 358 430 650>
VStem: 284 57<-153.405 -88.4781>
LayerCount: 2
Fore
SplineSet
186 -212 m 1
 186 -174 l 1
 244 -167 284 -152 284 -121 c 0
 284 -97 262 -84 226 -74 c 1
 276 0 l 1
 264 0 l 1
 358 600 l 1
 138 600 l 1
 149 660 l 1
 661 660 l 1
 650 600 l 1
 430 600 l 1
 336 0 l 1
 325 0 l 1
 292 -51 l 1
 319 -61 341 -79 341 -112 c 0
 341 -176 266 -205 186 -212 c 1
EndSplineSet
Validated: 1
EndChar

StartChar: U
Encoding: 85 85 101
Width: 600
GlyphClass: 2
Flags: W
HStem: -12 63<235.895 392.238> 640 20G<182.796 258 548.878 622>
VStem: 114 74<102.867 288.056>
LayerCount: 2
Fore
SplineSet
299 -12 m 0
 192 -12 114 39 114 176 c 0
 114 198 116 222 120 248 c 2
 186 660 l 1
 258 660 l 1
 193 250 l 2
 189 227 188 207 188 189 c 0
 188 88 241 51 310 51 c 0
 392 51 464 102 488 250 c 2
 552 660 l 1
 622 660 l 1
 557 248 l 2
 527 56 421 -12 299 -12 c 0
EndSplineSet
Validated: 1
EndChar

StartChar: Uacute
Encoding: 218 218 102
Width: 600
GlyphClass: 2
Flags: W
HStem: -12 63<235.895 392.238> 640 20G<182.796 258 548.878 622>
VStem: 114 74<102.867 288.056>
LayerCount: 2
Fore
SplineSet
366 710 m 1
 472 822 l 1
 555 822 l 1
 426 710 l 1
 366 710 l 1
299 -12 m 0
 192 -12 114 39 114 176 c 0
 114 198 116 222 120 248 c 2
 186 660 l 1
 258 660 l 1
 193 250 l 2
 189 227 188 207 188 189 c 0
 188 88 241 51 310 51 c 0
 392 51 464 102 488 250 c 2
 552 660 l 1
 622 660 l 1
 557 248 l 2
 527 56 421 -12 299 -12 c 0
EndSplineSet
Validated: 1
EndChar

StartChar: Ubreve
Encoding: 364 364 103
Width: 600
GlyphClass: 2
Flags: W
HStem: -12 63<235.895 392.238> 640 20G<182.796 258 548.878 622> 712 42<370.347 474.601>
VStem: 114 74<102.867 288.056> 310 44<770.048 822>
LayerCount: 2
Fore
SplineSet
413 712 m 0
 338 712 310 766 310 817 c 0
 310 819 310 820 310 822 c 1
 354 822 l 1
 355 789 372 754 420 754 c 0
 467 754 495 789 506 822 c 1
 550 822 l 1
 535 769 492 712 413 712 c 0
299 -12 m 0
 192 -12 114 39 114 176 c 0
 114 198 116 222 120 248 c 2
 186 660 l 1
 258 660 l 1
 193 250 l 2
 189 227 188 207 188 189 c 0
 188 88 241 51 310 51 c 0
 392 51 464 102 488 250 c 2
 552 660 l 1
 622 660 l 1
 557 248 l 2
 527 56 421 -12 299 -12 c 0
EndSplineSet
Validated: 1
EndChar

StartChar: uni01D3
Encoding: 467 467 104
Width: 600
GlyphClass: 2
Flags: W
HStem: -12 63<235.895 392.238> 640 20G<182.796 258 548.878 622>
VStem: 114 74<102.867 288.056>
LayerCount: 2
Fore
SplineSet
378 710 m 1
 300 822 l 1
 358 822 l 1
 416 752 l 1
 420 752 l 1
 502 822 l 1
 560 822 l 1
 446 710 l 1
 378 710 l 1
299 -12 m 0
 192 -12 114 39 114 176 c 0
 114 198 116 222 120 248 c 2
 186 660 l 1
 258 660 l 1
 193 250 l 2
 189 227 188 207 188 189 c 0
 188 88 241 51 310 51 c 0
 392 51 464 102 488 250 c 2
 552 660 l 1
 622 660 l 1
 557 248 l 2
 527 56 421 -12 299 -12 c 0
EndSplineSet
Validated: 1
EndChar

StartChar: Ucircumflex
Encoding: 219 219 105
Width: 600
GlyphClass: 2
Flags: W
HStem: -12 63<235.895 392.238> 640 20G<182.796 258 548.878 622>
VStem: 114 74<102.867 288.056>
LayerCount: 2
Fore
SplineSet
282 710 m 1
 396 822 l 1
 464 822 l 1
 542 710 l 1
 484 710 l 1
 425 780 l 1
 421 780 l 1
 340 710 l 1
 282 710 l 1
299 -12 m 0
 192 -12 114 39 114 176 c 0
 114 198 116 222 120 248 c 2
 186 660 l 1
 258 660 l 1
 193 250 l 2
 189 227 188 207 188 189 c 0
 188 88 241 51 310 51 c 0
 392 51 464 102 488 250 c 2
 552 660 l 1
 622 660 l 1
 557 248 l 2
 527 56 421 -12 299 -12 c 0
EndSplineSet
Validated: 1
EndChar

StartChar: Udieresis
Encoding: 220 220 106
Width: 600
GlyphClass: 2
Flags: W
HStem: -12 63<233.848 392.325> 640 20G<183.829 258 548.878 624> 722 90<301.27 373.097 469.387 541.324>
VStem: 116 72<102.48 290.423> 292 92<732.602 802.238> 460 92<732.602 802.351>
LayerCount: 2
Fore
SplineSet
331 722 m 0
 307 722 292 739 292 761 c 0
 292 791 316 812 346 812 c 0
 369 812 384 797 384 774 c 0
 384 746 359 722 331 722 c 0
498 722 m 0
 475 722 460 739 460 761 c 0
 460 791 485 812 513 812 c 0
 535 812 552 797 552 775 c 0
 552 745 528 722 498 722 c 0
299 -12 m 0
 192 -12 116 38 116 176 c 0
 116 198 118 223 122 250 c 2
 187 660 l 1
 258 660 l 1
 193 250 l 2
 189 227 188 207 188 189 c 0
 188 88 241 51 310 51 c 0
 392 51 464 102 488 250 c 2
 552 660 l 1
 624 660 l 1
 558 250 l 1
 528 56 421 -12 299 -12 c 0
EndSplineSet
Validated: 1
EndChar

StartChar: Ugrave
Encoding: 217 217 107
Width: 600
GlyphClass: 2
Flags: W
HStem: -12 63<235.895 392.238> 640 20G<182.796 258 548.878 622>
VStem: 114 74<102.867 288.056>
LayerCount: 2
Fore
SplineSet
398 710 m 1
 304 822 l 1
 387 822 l 1
 458 710 l 1
 398 710 l 1
299 -12 m 0
 192 -12 114 39 114 176 c 0
 114 198 116 222 120 248 c 2
 186 660 l 1
 258 660 l 1
 193 250 l 2
 189 227 188 207 188 189 c 0
 188 88 241 51 310 51 c 0
 392 51 464 102 488 250 c 2
 552 660 l 1
 622 660 l 1
 557 248 l 2
 527 56 421 -12 299 -12 c 0
EndSplineSet
Validated: 1
EndChar

StartChar: Uhungarumlaut
Encoding: 368 368 108
Width: 600
GlyphClass: 2
Flags: W
HStem: -12 63<235.895 392.238> 640 20G<182.796 258 548.878 622>
VStem: 114 74<102.867 288.056>
LayerCount: 2
Fore
SplineSet
308 710 m 1
 392 822 l 1
 460 822 l 1
 361 710 l 1
 308 710 l 1
462 710 m 1
 546 822 l 1
 614 822 l 1
 514 710 l 1
 462 710 l 1
299 -12 m 0
 192 -12 114 39 114 176 c 0
 114 198 116 222 120 248 c 2
 186 660 l 1
 258 660 l 1
 193 250 l 2
 189 227 188 207 188 189 c 0
 188 88 241 51 310 51 c 0
 392 51 464 102 488 250 c 2
 552 660 l 1
 622 660 l 1
 557 248 l 2
 527 56 421 -12 299 -12 c 0
EndSplineSet
Validated: 1
EndChar

StartChar: Umacron
Encoding: 362 362 109
Width: 600
GlyphClass: 2
Flags: W
HStem: -12 63<233.848 392.325> 640 20G<183.829 258 548.878 624> 735 51<304 537>
VStem: 116 72<102.48 290.423>
LayerCount: 2
Fore
SplineSet
296 735 m 1
 304 786 l 1
 545 786 l 1
 537 735 l 1
 296 735 l 1
299 -12 m 0
 192 -12 116 38 116 176 c 0
 116 198 118 223 122 250 c 2
 187 660 l 1
 258 660 l 1
 193 250 l 2
 189 227 188 207 188 189 c 0
 188 88 241 51 310 51 c 0
 392 51 464 102 488 250 c 2
 552 660 l 1
 624 660 l 1
 558 250 l 1
 528 56 421 -12 299 -12 c 0
EndSplineSet
Validated: 1
EndChar

StartChar: Uogonek
Encoding: 370 370 110
Width: 600
GlyphClass: 2
Flags: W
HStem: -211 53<277.692 361.407> -12 63<235.345 298> 640 20G<182.796 258 548.878 622>
VStem: 114 73<99.576 288.056> 214 60<-153.214 -73.1804>
LayerCount: 2
Fore
SplineSet
294 -211 m 0
 249 -211 214 -185 214 -138 c 0
 214 -76 264 -42 298 -12 c 1
 175 -12 114 54 114 176 c 0
 114 198 116 222 120 248 c 2
 186 660 l 1
 258 660 l 1
 193 250 l 2
 189 227 187 206 187 187 c 0
 187 87 239 51 308 51 c 0
 390 51 464 102 488 250 c 2
 552 660 l 1
 622 660 l 1
 557 248 l 2
 535 110 473 37 395 4 c 0
 315 -30 274 -80 274 -118 c 0
 274 -145 293 -158 316 -158 c 0
 332 -158 343 -154 359 -144 c 1
 373 -184 l 1
 352 -198 318 -211 294 -211 c 0
EndSplineSet
Validated: 1
EndChar

StartChar: Uring
Encoding: 366 366 111
Width: 600
GlyphClass: 2
Flags: W
HStem: -12 63<233.725 392.238> 640 20G<182.796 258 548.893 622> 703 33<382.473 455.577> 842 34<392.333 466.008>
VStem: 114 74<99.584 288.056> 334 40<741.91 826.012> 474 42<750.347 836.543>
LayerCount: 2
Fore
SplineSet
411 703 m 0
 365 703 334 731 334 776 c 0
 334 836 380 876 438 876 c 0
 484 876 516 847 516 802 c 0
 516 742 467 703 411 703 c 0
416 736 m 0
 444 736 474 759 474 797 c 0
 474 825 456 842 434 842 c 0
 402 842 374 818 374 780 c 0
 374 752 391 736 416 736 c 0
299 -12 m 0
 192 -12 114 39 114 176 c 0
 114 198 116 222 120 248 c 2
 186 660 l 1
 258 660 l 1
 193 248 l 2
 189 225 188 205 188 187 c 0
 188 86 241 51 310 51 c 0
 392 51 464 100 488 248 c 2
 552 660 l 1
 622 660 l 1
 557 248 l 2
 527 56 421 -12 299 -12 c 0
EndSplineSet
Validated: 1
EndChar

StartChar: Utilde
Encoding: 360 360 112
Width: 600
GlyphClass: 2
Flags: W
HStem: -12 63<235.895 392.238> 640 20G<182.796 258 548.878 622> 716 49<438.204 513.25> 770 50<329.328 405.522>
VStem: 114 74<102.867 288.056> 272 42<716 754.366> 530 41<782.871 820>
LayerCount: 2
Fore
SplineSet
272 716 m 1
 286 774 324 820 371 820 c 0
 424 820 442 765 480 765 c 0
 500 765 520 787 530 820 c 1
 571 820 l 1
 557 765 519 716 472 716 c 0
 419 716 401 770 363 770 c 0
 343 770 324 751 314 716 c 1
 272 716 l 1
299 -12 m 0
 192 -12 114 39 114 176 c 0
 114 198 116 222 120 248 c 2
 186 660 l 1
 258 660 l 1
 193 250 l 2
 189 227 188 207 188 189 c 0
 188 88 241 51 310 51 c 0
 392 51 464 102 488 250 c 2
 552 660 l 1
 622 660 l 1
 557 248 l 2
 527 56 421 -12 299 -12 c 0
EndSplineSet
Validated: 1
EndChar

StartChar: V
Encoding: 86 86 113
Width: 600
GlyphClass: 2
Flags: W
HStem: 0 21G<256.788 351.545> 640 20G<154 230.896 574.765 657>
LayerCount: 2
Fore
SplineSet
260 0 m 1
 154 660 l 1
 228 660 l 1
 281 294 l 2
 293 215 299 154 311 75 c 1
 315 75 l 1
 353 154 379 215 415 294 c 2
 584 660 l 1
 657 660 l 1
 342 0 l 1
 260 0 l 1
EndSplineSet
Validated: 1
EndChar

StartChar: W
Encoding: 87 87 114
Width: 600
GlyphClass: 2
Flags: W
HStem: 0 72<168 179.953 454.711 466.252> 640 20G<115.97 186 620.178 694>
VStem: 115 63<74.5312 606.75> 116 70<287.25 660> 626 68<637.463 660>
LayerCount: 2
Fore
SplineSet
115 0 m 1xe8
 116 660 l 1
 186 660 l 1xd8
 178 234 l 1
 172 180 172 126 168 72 c 1
 171 72 l 1
 195 126 218 180 240 234 c 1
 354 490 l 1
 408 490 l 1
 440 234 l 1
 444 182 451 126 457 72 c 1
 461 72 l 1
 468 98 496 208 502 234 c 1
 626 660 l 1
 694 660 l 1
 489 0 l 1
 408 0 l 1
 373 290 l 1
 370 328 369 369 367 408 c 1
 364 408 l 1
 349 369 334 328 318 290 c 2
 194 0 l 1
 115 0 l 1xe8
EndSplineSet
Validated: 1
EndChar

StartChar: Wacute
Encoding: 7810 7810 115
Width: 600
GlyphClass: 2
Flags: W
HStem: 0 72<168 179.953 454.711 466.252> 640 20G<115.97 187 620.178 694>
VStem: 115 63<74.5312 565.333> 116 71<328.667 660> 626 68<637.463 660>
LayerCount: 2
Fore
SplineSet
366 710 m 1xc8
 472 822 l 1
 555 822 l 1
 426 710 l 1
 366 710 l 1xc8
115 0 m 1xe8
 116 660 l 1
 187 660 l 1xd8
 178 234 l 1
 172 180 172 126 168 72 c 1
 171 72 l 1
 195 126 218 180 240 234 c 1
 354 490 l 1
 408 490 l 1
 440 234 l 1
 444 182 451 126 457 72 c 1
 461 72 l 1
 468 98 496 207 502 234 c 1
 626 660 l 1
 694 660 l 1
 489 0 l 1
 408 0 l 1
 373 290 l 1
 370 328 369 369 367 408 c 1
 364 408 l 1
 349 369 334 328 318 290 c 2
 194 0 l 1
 115 0 l 1xe8
EndSplineSet
Validated: 1
EndChar

StartChar: Wcircumflex
Encoding: 372 372 116
Width: 600
GlyphClass: 2
Flags: W
HStem: 0 72<168 179.953 454.711 466.252> 640 20G<115.97 187 620.178 694>
VStem: 115 63<74.5312 565.333> 116 71<328.667 660> 626 68<637.463 660>
LayerCount: 2
Fore
SplineSet
282 710 m 1xc8
 396 822 l 1
 464 822 l 1
 542 710 l 1
 484 710 l 1
 425 780 l 1
 421 780 l 1
 340 710 l 1
 282 710 l 1xc8
115 0 m 1xe8
 116 660 l 1
 187 660 l 1xd8
 178 234 l 1
 172 180 172 126 168 72 c 1
 171 72 l 1
 195 126 218 180 240 234 c 1
 354 490 l 1
 408 490 l 1
 440 234 l 1
 444 182 451 126 457 72 c 1
 461 72 l 1
 468 98 496 207 502 234 c 1
 626 660 l 1
 694 660 l 1
 489 0 l 1
 408 0 l 1
 373 290 l 1
 370 328 369 369 367 408 c 1
 364 408 l 1
 349 369 334 328 318 290 c 2
 194 0 l 1
 115 0 l 1xe8
EndSplineSet
Validated: 1
EndChar

StartChar: Wdieresis
Encoding: 7812 7812 117
Width: 600
GlyphClass: 2
Flags: W
HStem: 0 72<168 179.953 454.711 466.252> 640 20G<115.97 187 620.178 694> 722 90<301.27 373.097 469.387 541.324>
VStem: 115 63<74.5312 565.333> 116 71<328.667 660> 292 92<732.602 802.238> 460 92<732.602 802.351> 626 68<637.463 660>
LayerCount: 2
Fore
SplineSet
331 722 m 0xe7
 307 722 292 739 292 761 c 0
 292 791 316 812 346 812 c 0
 369 812 384 797 384 774 c 0
 384 746 359 722 331 722 c 0xe7
498 722 m 0
 475 722 460 739 460 761 c 0
 460 791 485 812 513 812 c 0
 535 812 552 797 552 775 c 0
 552 745 528 722 498 722 c 0
115 0 m 1xf7
 116 660 l 1
 187 660 l 1xef
 178 234 l 1
 172 180 172 126 168 72 c 1
 171 72 l 1
 195 126 218 180 240 234 c 1
 354 490 l 1
 408 490 l 1
 440 234 l 1
 444 182 451 126 457 72 c 1
 461 72 l 1
 468 98 496 208 502 234 c 1
 626 660 l 1
 694 660 l 1
 489 0 l 1
 408 0 l 1
 373 290 l 1
 370 328 369 369 367 408 c 1
 364 408 l 1
 349 369 334 328 318 290 c 2
 194 0 l 1
 115 0 l 1xf7
EndSplineSet
Validated: 1
EndChar

StartChar: Wgrave
Encoding: 7808 7808 118
Width: 600
GlyphClass: 2
Flags: W
HStem: 0 72<168 179.953 454.711 466.252> 640 20G<115.97 187 620.178 694>
VStem: 115 63<74.5312 565.333> 116 71<328.667 660> 626 68<637.463 660>
LayerCount: 2
Fore
SplineSet
398 710 m 1xc8
 304 822 l 1
 387 822 l 1
 458 710 l 1
 398 710 l 1xc8
115 0 m 1xe8
 116 660 l 1
 187 660 l 1xd8
 178 234 l 1
 172 180 172 126 168 72 c 1
 171 72 l 1
 195 126 218 180 240 234 c 1
 354 490 l 1
 408 490 l 1
 440 234 l 1
 444 182 451 126 457 72 c 1
 461 72 l 1
 468 98 496 207 502 234 c 1
 626 660 l 1
 694 660 l 1
 489 0 l 1
 408 0 l 1
 373 290 l 1
 370 328 369 369 367 408 c 1
 364 408 l 1
 349 369 334 328 318 290 c 2
 194 0 l 1
 115 0 l 1xe8
EndSplineSet
Validated: 1
EndChar

StartChar: X
Encoding: 88 88 119
Width: 600
GlyphClass: 2
Flags: W
HStem: 0 21G<61 150.118 452.935 540> 640 20G<179 263.91 541.989 631>
LayerCount: 2
Fore
SplineSet
61 0 m 1
 312 342 l 1
 179 660 l 1
 256 660 l 1
 326 483 l 2
 332 468 358 407 366 389 c 1
 370 389 l 1
 394 426 411 453 432 483 c 2
 556 660 l 1
 631 660 l 1
 395 338 l 1
 540 0 l 1
 461 0 l 1
 386 186 l 1
 372 218 361 252 344 292 c 1
 340 292 l 1
 314 252 290 219 268 187 c 2
 136 0 l 1
 61 0 l 1
EndSplineSet
Validated: 1
EndChar

StartChar: Y
Encoding: 89 89 120
Width: 600
GlyphClass: 2
Flags: W
HStem: 0 21G<264 339.193> 640 20G<147 228.157 576.931 663>
LayerCount: 2
Fore
SplineSet
264 0 m 1
 302 238 l 1
 147 660 l 1
 221 660 l 1
 294 456 l 2
 312 406 328 355 348 302 c 1
 352 302 l 1
 387 355 424 407 458 458 c 2
 590 660 l 1
 663 660 l 1
 374 238 l 1
 336 0 l 1
 264 0 l 1
EndSplineSet
Validated: 1
EndChar

StartChar: Yacute
Encoding: 221 221 121
Width: 600
GlyphClass: 2
Flags: W
HStem: 0 21G<264 339.193> 640 20G<148 228.157 576.931 663>
LayerCount: 2
Fore
SplineSet
366 710 m 1
 472 822 l 1
 555 822 l 1
 426 710 l 1
 366 710 l 1
264 0 m 1
 302 238 l 1
 148 660 l 1
 221 660 l 1
 294 456 l 2
 312 406 328 356 348 302 c 1
 352 302 l 1
 387 356 424 407 458 458 c 2
 590 660 l 1
 663 660 l 1
 374 238 l 1
 336 0 l 1
 264 0 l 1
EndSplineSet
Validated: 1
EndChar

StartChar: Ycircumflex
Encoding: 374 374 122
Width: 600
GlyphClass: 2
Flags: W
HStem: 0 21G<264 339.193> 640 20G<148 228.157 576.931 663>
LayerCount: 2
Fore
SplineSet
282 710 m 1
 396 822 l 1
 464 822 l 1
 542 710 l 1
 484 710 l 1
 425 780 l 1
 421 780 l 1
 340 710 l 1
 282 710 l 1
264 0 m 1
 302 238 l 1
 148 660 l 1
 221 660 l 1
 294 456 l 2
 312 406 328 356 348 302 c 1
 352 302 l 1
 387 356 424 407 458 458 c 2
 590 660 l 1
 663 660 l 1
 374 238 l 1
 336 0 l 1
 264 0 l 1
EndSplineSet
Validated: 1
EndChar

StartChar: Ydieresis
Encoding: 376 376 123
Width: 600
GlyphClass: 2
Flags: W
HStem: 0 21G<264 339.193> 640 20G<148 228.228 576.931 663> 722 90<301.27 373.097 469.387 541.324>
VStem: 292 92<732.602 802.238> 460 92<732.602 802.351>
LayerCount: 2
Fore
SplineSet
331 722 m 0
 307 722 292 739 292 761 c 0
 292 791 316 812 346 812 c 0
 369 812 384 797 384 774 c 0
 384 746 359 722 331 722 c 0
498 722 m 0
 475 722 460 739 460 761 c 0
 460 791 485 812 513 812 c 0
 535 812 552 797 552 775 c 0
 552 745 528 722 498 722 c 0
264 0 m 1
 302 238 l 1
 148 660 l 1
 221 660 l 1
 294 458 l 2
 312 408 328 356 348 302 c 1
 352 302 l 1
 387 356 424 407 458 458 c 2
 590 660 l 1
 663 660 l 1
 374 238 l 1
 336 0 l 1
 264 0 l 1
EndSplineSet
Validated: 1
EndChar

StartChar: uni1E8E
Encoding: 7822 7822 124
Width: 600
GlyphClass: 2
Flags: W
HStem: 0 21G<264 339.193> 640 20G<148 228.157 576.931 663> 720 99<383.148 460.852>
VStem: 370 104<733.725 805.705>
LayerCount: 2
Fore
SplineSet
414 720 m 0
 388 720 370 738 370 763 c 0
 370 795 398 819 430 819 c 0
 456 819 474 802 474 777 c 0
 474 745 446 720 414 720 c 0
264 0 m 1
 302 238 l 1
 148 660 l 1
 221 660 l 1
 294 456 l 2
 312 406 328 356 348 302 c 1
 352 302 l 1
 387 356 424 407 458 458 c 2
 590 660 l 1
 663 660 l 1
 374 238 l 1
 336 0 l 1
 264 0 l 1
EndSplineSet
Validated: 1
EndChar

StartChar: Ygrave
Encoding: 7922 7922 125
Width: 600
GlyphClass: 2
Flags: W
HStem: 0 21G<264 339.193> 640 20G<148 228.157 576.931 663>
LayerCount: 2
Fore
SplineSet
398 710 m 1
 304 822 l 1
 387 822 l 1
 458 710 l 1
 398 710 l 1
264 0 m 1
 302 238 l 1
 148 660 l 1
 221 660 l 1
 294 456 l 2
 312 406 328 356 348 302 c 1
 352 302 l 1
 387 356 424 407 458 458 c 2
 590 660 l 1
 663 660 l 1
 374 238 l 1
 336 0 l 1
 264 0 l 1
EndSplineSet
Validated: 1
EndChar

StartChar: uni1EF8
Encoding: 7928 7928 126
Width: 600
GlyphClass: 2
Flags: W
HStem: 0 21G<264 339.193> 640 20G<148 228.157 576.931 663> 716 49<438.204 513.25> 770 50<329.328 405.522>
VStem: 272 42<716 754.366> 530 41<782.871 820>
LayerCount: 2
Fore
SplineSet
272 716 m 1
 286 774 324 820 371 820 c 0
 424 820 442 765 480 765 c 0
 500 765 520 787 530 820 c 1
 571 820 l 1
 557 765 519 716 472 716 c 0
 419 716 401 770 363 770 c 0
 343 770 324 751 314 716 c 1
 272 716 l 1
264 0 m 1
 302 238 l 1
 148 660 l 1
 221 660 l 1
 294 456 l 2
 312 406 328 356 348 302 c 1
 352 302 l 1
 387 356 424 407 458 458 c 2
 590 660 l 1
 663 660 l 1
 374 238 l 1
 336 0 l 1
 264 0 l 1
EndSplineSet
Validated: 1
EndChar

StartChar: Z
Encoding: 90 90 127
Width: 600
GlyphClass: 2
Flags: W
HStem: 0 61<162 538> 601 59<204 541>
LayerCount: 2
Fore
SplineSet
66 0 m 1
 74 42 l 1
 541 601 l 1
 195 601 l 1
 204 660 l 1
 638 660 l 1
 630 618 l 1
 162 61 l 1
 547 61 l 1
 538 0 l 1
 66 0 l 1
EndSplineSet
Validated: 1
EndChar

StartChar: Zacute
Encoding: 377 377 128
Width: 600
GlyphClass: 2
Flags: W
HStem: 0 61<162 538> 602 58<204 541>
LayerCount: 2
Fore
SplineSet
380 710 m 1
 488 822 l 1
 570 822 l 1
 440 710 l 1
 380 710 l 1
66 0 m 1
 74 42 l 1
 541 602 l 1
 195 602 l 1
 204 660 l 1
 638 660 l 1
 630 618 l 1
 162 61 l 1
 547 61 l 1
 538 0 l 1
 66 0 l 1
EndSplineSet
Validated: 1
EndChar

StartChar: Zcaron
Encoding: 381 381 129
Width: 600
GlyphClass: 2
Flags: W
HStem: 0 61<162 538> 602 58<204 541>
LayerCount: 2
Fore
SplineSet
394 710 m 1
 316 822 l 1
 374 822 l 1
 432 752 l 1
 436 752 l 1
 516 822 l 1
 575 822 l 1
 461 710 l 1
 394 710 l 1
66 0 m 1
 74 42 l 1
 541 602 l 1
 195 602 l 1
 204 660 l 1
 638 660 l 1
 630 618 l 1
 162 61 l 1
 547 61 l 1
 538 0 l 1
 66 0 l 1
EndSplineSet
Validated: 1
EndChar

StartChar: Zdotaccent
Encoding: 379 379 130
Width: 600
GlyphClass: 2
Flags: W
HStem: 0 61<162 538> 602 58<204 541> 720 99<398.764 476.491>
VStem: 386 104<733.725 806.288>
LayerCount: 2
Fore
SplineSet
430 720 m 0
 404 720 386 738 386 763 c 0
 386 795 413 819 445 819 c 0
 471 819 490 801 490 777 c 0
 490 745 461 720 430 720 c 0
66 0 m 1
 74 42 l 1
 541 602 l 1
 195 602 l 1
 204 660 l 1
 638 660 l 1
 630 618 l 1
 162 61 l 1
 547 61 l 1
 538 0 l 1
 66 0 l 1
EndSplineSet
Validated: 1
EndChar

StartChar: a
Encoding: 97 97 131
Width: 600
GlyphClass: 2
Flags: W
HStem: -12 58<226.563 356.82> 0 21G<445 506.176> 462 60<292.692 445.88> 490 20G<520.982 584>
VStem: 96 75<107.399 318.984> 445 58<0 44.0741>
LayerCount: 2
Fore
SplineSet
272 -12 m 0x8c
 162 -12 96 63 96 196 c 0
 96 397 236 522 368 522 c 0xac
 428 522 468 497 508 453 c 1
 528 510 l 1
 584 510 l 1
 503 0 l 1
 445 0 l 1x5c
 450 71 l 1
 447 71 l 1
 399 27 334 -12 272 -12 c 0x8c
294 46 m 0
 344 46 400 75 454 131 c 1
 496 396 l 1
 456 444 414 462 370 462 c 0
 268 462 171 356 171 208 c 0
 171 110 214 46 294 46 c 0
EndSplineSet
Validated: 1
EndChar

StartChar: aacute
Encoding: 225 225 132
Width: 600
GlyphClass: 2
Flags: W
HStem: -12 58<226.563 356.82> 0 21G<445 506.176> 462 60<292.692 445.88> 490 20G<520.982 584> 698 20G<404.276 498>
VStem: 96 75<107.399 318.984> 445 58<0 44.0741>
LayerCount: 2
Fore
SplineSet
306 573 m 1x0e
 420 718 l 1
 498 718 l 1
 362 573 l 1
 306 573 l 1x0e
272 -12 m 0x8e
 162 -12 96 63 96 196 c 0
 96 397 236 522 368 522 c 0xae
 428 522 468 497 508 453 c 1
 528 510 l 1
 584 510 l 1
 503 0 l 1
 445 0 l 1x5e
 450 71 l 1
 447 71 l 1
 399 27 334 -12 272 -12 c 0x8e
294 46 m 0
 344 46 400 75 454 131 c 1
 496 396 l 1
 456 444 414 462 370 462 c 0
 268 462 171 356 171 208 c 0
 171 110 214 46 294 46 c 0
EndSplineSet
Validated: 1
EndChar

StartChar: abreve
Encoding: 259 259 133
Width: 600
GlyphClass: 2
Flags: W
HStem: -12 58<226.563 356.82> 0 21G<445 506.176> 462 60<292.692 445.88> 490 20G<520.982 584> 575 45<349.085 453.784>
VStem: 96 75<107.399 318.984> 284 46<640.374 705> 445 58<0 44.0741> 493 45<662.195 705>
LayerCount: 2
Fore
SplineSet
391 575 m 0x0e80
 311 575 284 636 284 693 c 0
 284 697 284 701 284 705 c 1
 330 705 l 1
 330 662 348 620 398 620 c 0
 449 620 479 662 493 705 c 1
 538 705 l 1
 523 645 477 575 391 575 c 0x0e80
272 -12 m 0x8f
 162 -12 96 63 96 196 c 0
 96 397 236 522 368 522 c 0xaf
 428 522 468 497 508 453 c 1
 528 510 l 1
 584 510 l 1
 503 0 l 1
 445 0 l 1x5f
 450 71 l 1
 447 71 l 1
 399 27 334 -12 272 -12 c 0x8f
294 46 m 0
 344 46 400 75 454 131 c 1
 496 396 l 1
 456 444 414 462 370 462 c 0
 268 462 171 356 171 208 c 0
 171 110 214 46 294 46 c 0
EndSplineSet
Validated: 1
EndChar

StartChar: uni01CE
Encoding: 462 462 134
Width: 600
GlyphClass: 2
Flags: W
HStem: -12 58<226.563 356.82> 0 21G<445 506.176> 462 60<292.692 445.88> 490 20G<520.982 584> 698 20G<287 352.8 468 540>
VStem: 96 75<107.399 318.984> 445 58<0 44.0741>
LayerCount: 2
Fore
SplineSet
361 573 m 1x0e
 287 718 l 1
 342 718 l 1
 396 618 l 1
 400 618 l 1
 485 718 l 1
 540 718 l 1
 421 573 l 1
 361 573 l 1x0e
272 -12 m 0x8e
 162 -12 96 63 96 196 c 0
 96 397 236 522 368 522 c 0xae
 428 522 468 497 508 453 c 1
 528 510 l 1
 584 510 l 1
 503 0 l 1
 445 0 l 1x5e
 450 71 l 1
 447 71 l 1
 399 27 334 -12 272 -12 c 0x8e
294 46 m 0
 344 46 400 75 454 131 c 1
 496 396 l 1
 456 444 414 462 370 462 c 0
 268 462 171 356 171 208 c 0
 171 110 214 46 294 46 c 0
EndSplineSet
Validated: 1
EndChar

StartChar: acircumflex
Encoding: 226 226 135
Width: 600
GlyphClass: 2
Flags: W
HStem: -12 58<226.563 356.82> 0 21G<445 506.176> 462 60<292.692 445.88> 490 20G<520.982 584> 698 20G<367.448 454.207>
VStem: 96 75<107.399 318.984> 445 58<0 44.0741>
LayerCount: 2
Fore
SplineSet
264 573 m 1x0e
 384 718 l 1
 444 718 l 1
 518 573 l 1
 462 573 l 1
 408 672 l 1
 404 672 l 1
 320 573 l 1
 264 573 l 1x0e
272 -12 m 0x8e
 162 -12 96 63 96 196 c 0
 96 397 236 522 368 522 c 0xae
 428 522 468 497 508 453 c 1
 528 510 l 1
 584 510 l 1
 503 0 l 1
 445 0 l 1x5e
 450 71 l 1
 447 71 l 1
 399 27 334 -12 272 -12 c 0x8e
294 46 m 0
 344 46 400 75 454 131 c 1
 496 396 l 1
 456 444 414 462 370 462 c 0
 268 462 171 356 171 208 c 0
 171 110 214 46 294 46 c 0
EndSplineSet
Validated: 1
EndChar

StartChar: adieresis
Encoding: 228 228 136
Width: 600
GlyphClass: 2
Flags: W
HStem: -12 58<226.563 356.82> 0 21G<445 506.176> 462 60<292.692 445.88> 490 20G<520.982 584> 591 101<270.932 344.692 458.662 532.984>
VStem: 96 75<107.399 318.984> 258 101<605.351 679.151> 445 101<603.849 678.409> 445 58<0 44.0741>
LayerCount: 2
Fore
SplineSet
300 591 m 0x0e
 274 591 258 609 258 634 c 0
 258 666 283 692 316 692 c 0
 340 692 359 674 359 649 c 0
 359 617 330 591 300 591 c 0x0e
487 591 m 0
 461 591 445 609 445 634 c 0
 445 666 472 692 504 692 c 0
 529 692 546 674 546 649 c 0x0f
 546 617 521 591 487 591 c 0
272 -12 m 0x8e80
 162 -12 96 63 96 196 c 0
 96 397 236 522 368 522 c 0xae80
 428 522 468 497 508 453 c 1
 528 510 l 1
 584 510 l 1
 503 0 l 1
 445 0 l 1x5e80
 450 71 l 1
 447 71 l 1
 399 27 334 -12 272 -12 c 0x8e80
294 46 m 0
 344 46 400 75 454 131 c 1
 496 396 l 1
 456 444 414 462 370 462 c 0
 268 462 171 356 171 208 c 0
 171 110 214 46 294 46 c 0
EndSplineSet
Validated: 1
EndChar

StartChar: agrave
Encoding: 224 224 137
Width: 600
GlyphClass: 2
Flags: W
HStem: -12 58<226.563 356.82> 0 21G<445 506.176> 462 60<292.692 445.88> 490 20G<520.982 584> 698 20G<329 417.379>
VStem: 96 75<107.399 318.984> 445 58<0 44.0741>
LayerCount: 2
Fore
SplineSet
421 573 m 1x0e
 329 718 l 1
 408 718 l 1
 476 573 l 1
 421 573 l 1x0e
272 -12 m 0x8e
 162 -12 96 63 96 196 c 0
 96 397 236 522 368 522 c 0xae
 428 522 468 497 508 453 c 1
 528 510 l 1
 584 510 l 1
 503 0 l 1
 445 0 l 1x5e
 450 71 l 1
 447 71 l 1
 399 27 334 -12 272 -12 c 0x8e
294 46 m 0
 344 46 400 75 454 131 c 1
 496 396 l 1
 456 444 414 462 370 462 c 0
 268 462 171 356 171 208 c 0
 171 110 214 46 294 46 c 0
EndSplineSet
Validated: 1
EndChar

StartChar: amacron
Encoding: 257 257 138
Width: 600
GlyphClass: 2
Flags: W
HStem: -12 58<226.563 356.82> 0 21G<445 506.176> 462 60<292.692 445.88> 490 20G<520.982 584> 602 51<283 516>
VStem: 96 75<107.399 318.984> 445 58<0 44.0741>
LayerCount: 2
Fore
SplineSet
275 602 m 1x0e
 283 653 l 1
 524 653 l 1
 516 602 l 1
 275 602 l 1x0e
272 -12 m 0x8e
 162 -12 96 63 96 196 c 0
 96 397 236 522 368 522 c 0xae
 428 522 468 497 508 453 c 1
 528 510 l 1
 584 510 l 1
 503 0 l 1
 445 0 l 1x5e
 450 71 l 1
 447 71 l 1
 399 27 334 -12 272 -12 c 0x8e
294 46 m 0
 344 46 400 75 454 131 c 1
 496 396 l 1
 456 444 414 462 370 462 c 0
 268 462 171 356 171 208 c 0
 171 110 214 46 294 46 c 0
EndSplineSet
Validated: 1
EndChar

StartChar: aogonek
Encoding: 261 261 139
Width: 600
GlyphClass: 2
Flags: W
HStem: -206 50<417.865 500.668> 20 26<239.413 353.389> 462 33<304.36 435.788> 490 20G<532.667 560.588>
VStem: 124 47<106.981 310.217> 357 57<-152.245 -76.6187>
LayerCount: 2
Fore
SplineSet
454 -156 m 0xdc
 470 -156 485 -151 497 -143 c 1
 512 -180 l 1
 492 -194 456 -206 432 -206 c 0
 390 -206 357 -181 357 -136 c 0
 357 -78 404 -30 446 0 c 1
 447 24 447 47 448 71 c 1
 424 49 392 30 362 30 c 1
 339 23 315 20 291 20 c 0
 233 20 177 41 152 86 c 0
 132 122 124 161 124 201 c 0
 124 273 152 343 194 386 c 1
 217 464 299 495 375 495 c 0xec
 396 495 417 493 436 488 c 1
 453 488 470 492 486 492 c 0
 498 492 509 490 518 480 c 1
 562 510 l 1
 544 255 l 1
 498 0 l 1
 472 -18 460 -35 460 -55 c 1
 432 -86 414 -76 414 -117 c 0
 414 -143 432 -156 454 -156 c 0xdc
294 46 m 0
 344 46 400 75 454 131 c 1
 496 396 l 1
 456 444 414 462 370 462 c 0
 268 462 171 356 171 208 c 0
 171 110 214 46 294 46 c 0
EndSplineSet
Validated: 1
EndChar

StartChar: aring
Encoding: 229 229 140
Width: 600
GlyphClass: 2
Flags: W
HStem: -12 58<226.563 356.82> 0 21G<445 506.176> 462 60<292.692 445.88> 490 20G<520.982 584> 541 33<359.537 428.958> 688 34<370.459 442.06>
VStem: 96 75<107.399 318.984> 310 40<580.673 671.326> 445 58<0 44.0741> 450 41<591.556 682.529>
LayerCount: 2
Fore
SplineSet
386 541 m 0x0f40
 340 541 310 571 310 618 c 0
 310 678 356 722 414 722 c 0
 460 722 491 692 491 646 c 0
 491 584 443 541 386 541 c 0x0f40
392 574 m 0
 422 574 450 603 450 642 c 0
 450 671 433 688 409 688 c 0
 378 688 350 661 350 622 c 0
 350 593 367 574 392 574 c 0
272 -12 m 0x8f40
 162 -12 96 63 96 196 c 0
 96 397 236 522 368 522 c 0xaf40
 428 522 468 497 508 453 c 1
 528 510 l 1
 584 510 l 1
 503 0 l 1
 445 0 l 1x5f80
 450 71 l 1
 447 71 l 1
 399 27 334 -12 272 -12 c 0x8f40
294 46 m 0
 344 46 400 75 454 131 c 1
 496 396 l 1
 456 444 414 462 370 462 c 0
 268 462 171 356 171 208 c 0
 171 110 214 46 294 46 c 0
EndSplineSet
Validated: 1
EndChar

StartChar: atilde
Encoding: 227 227 141
Width: 600
GlyphClass: 2
Flags: W
HStem: -12 58<226.563 356.82> 0 21G<445 506.176> 462 60<292.692 445.88> 490 20G<520.982 584> 580 48<415.794 487.325> 635 47<312.951 383.425>
VStem: 96 75<107.399 318.984> 445 58<0 44.0741>
LayerCount: 2
Fore
SplineSet
256 580 m 1x0f
 272 636 302 682 354 682 c 0
 402 682 421 628 454 628 c 0
 475 628 491 646 503 682 c 1
 544 682 l 1
 529 626 498 580 446 580 c 0
 398 580 379 635 345 635 c 0
 324 635 310 616 298 580 c 1
 256 580 l 1x0f
272 -12 m 0x8f
 162 -12 96 63 96 196 c 0
 96 397 236 522 368 522 c 0xaf
 428 522 468 497 508 453 c 1
 528 510 l 1
 584 510 l 1
 503 0 l 1
 445 0 l 1x5f
 450 71 l 1
 447 71 l 1
 399 27 334 -12 272 -12 c 0x8f
294 46 m 0
 344 46 400 75 454 131 c 1
 496 396 l 1
 456 444 414 462 370 462 c 0
 268 462 171 356 171 208 c 0
 171 110 214 46 294 46 c 0
EndSplineSet
Validated: 1
EndChar

StartChar: ae
Encoding: 230 230 142
Width: 600
GlyphClass: 2
Flags: W
HStem: -12 56<117.611 219.719 404.133 545.468> 240 49<376 587.034> 274 48<225.367 312> 464 58<171.453 303.308 458.703 569.955>
VStem: 36 66<59.153 188.698> 302 62<116.822 239.503> 590 60<290.316 444.219>
LayerCount: 2
Fore
SplineSet
144 -12 m 0xde
 77 -12 36 32 36 106 c 0
 36 224 133 294 320 322 c 1xbe
 322 339 324 355 324 370 c 0
 324 426 304 464 250 464 c 0
 214 464 161 442 127 420 c 1
 108 468 l 1
 149 494 210 522 270 522 c 0
 334 522 368 474 374 413 c 1
 417 481 470 522 536 522 c 0
 615 522 650 442 650 348 c 0
 650 292 640 270 632 240 c 1
 368 240 l 1
 365 220 364 202 364 185 c 0
 364 100 395 44 465 44 c 0
 503 44 538 61 570 78 c 1
 588 32 l 1
 552 10 506 -12 454 -12 c 0
 384 -12 342 24 320 87 c 1
 256 24 196 -12 144 -12 c 0xde
376 289 m 1xde
 584 289 l 1
 588 313 590 337 590 359 c 0
 590 421 572 466 520 466 c 0
 452 466 398 397 376 289 c 1xde
168 44 m 0
 205 44 260 75 306 130 c 1
 303 143 302 158 302 174 c 0
 302 196 305 220 308 246 c 2
 312 274 l 1xbe
 160 248 102 199 102 117 c 0
 102 69 128 44 168 44 c 0
EndSplineSet
Validated: 1
EndChar

StartChar: b
Encoding: 98 98 143
Width: 600
GlyphClass: 2
Flags: W
HStem: -12 58<241.96 394.507> 0 21G<97 159.263> 462 60<327.482 462.22> 708 20G<208.841 282>
VStem: 512 74<189.975 409.009>
LayerCount: 2
Fore
SplineSet
314 -12 m 0xb8
 267 -12 212 15 172 57 c 1
 169 57 l 1
 154 0 l 1
 97 0 l 1x78
 212 728 l 1
 282 728 l 1
 253 543 l 1
 234 440 l 1
 290 490 360 522 418 522 c 0
 529 522 586 443 586 320 c 0
 586 112 447 -12 314 -12 c 0xb8
315 46 m 0xb8
 420 46 512 154 512 312 c 0
 512 401 477 462 393 462 c 0
 348 462 289 435 226 379 c 1
 185 114 l 1
 227 66 278 46 315 46 c 0xb8
EndSplineSet
Validated: 1
EndChar

StartChar: uni0180
Encoding: 384 384 144
Width: 600
GlyphClass: 2
Flags: W
HStem: -12 58<241.96 393.925> 0 21G<97 159.263> 442 59<324.81 462.364> 579 43<120 189 265 476> 708 20G<208.981 282>
VStem: 510 72<178.931 391.274>
LayerCount: 2
Fore
SplineSet
314 -12 m 0xbc
 267 -12 212 15 172 57 c 1
 169 57 l 1
 154 0 l 1
 97 0 l 1x7c
 189 579 l 1
 115 579 l 1
 120 618 l 1
 196 622 l 1
 212 728 l 1
 282 728 l 1
 265 622 l 1
 483 622 l 1
 476 579 l 1
 259 579 l 1
 251 525 241 471 232 418 c 1
 286 468 356 501 414 501 c 0
 527 501 582 424 582 306 c 0
 582 106 446 -12 314 -12 c 0xbc
315 46 m 0xbc
 420 46 510 148 510 298 c 0
 510 383 474 442 388 442 c 0
 343 442 286 414 224 358 c 1
 185 114 l 1
 227 66 278 46 315 46 c 0xbc
EndSplineSet
Validated: 1
EndChar

StartChar: c
Encoding: 99 99 145
Width: 600
GlyphClass: 2
Flags: W
HStem: -12 58<271.641 449.861> 464 58<329.238 505.055>
VStem: 118 74<126.262 321.359>
LayerCount: 2
Fore
SplineSet
344 -12 m 0
 210 -12 118 70 118 210 c 0
 118 407 271 522 434 522 c 0
 513 522 562 487 596 446 c 1
 553 400 l 1
 519 440 480 464 426 464 c 0
 294 464 192 361 192 220 c 0
 192 115 254 46 358 46 c 0
 420 46 476 76 524 114 c 1
 548 68 l 1
 488 18 417 -12 344 -12 c 0
EndSplineSet
Validated: 1
EndChar

StartChar: cacute
Encoding: 263 263 146
Width: 600
GlyphClass: 2
Flags: W
HStem: -12 58<271.641 449.861> 464 58<329.238 505.055> 698 20G<435.414 530>
VStem: 118 74<126.262 321.359>
LayerCount: 2
Fore
SplineSet
338 573 m 1
 451 718 l 1
 530 718 l 1
 394 573 l 1
 338 573 l 1
344 -12 m 0
 210 -12 118 70 118 210 c 0
 118 407 271 522 434 522 c 0
 513 522 562 487 596 446 c 1
 553 400 l 1
 519 440 480 464 426 464 c 0
 294 464 192 361 192 220 c 0
 192 115 254 46 358 46 c 0
 420 46 476 76 524 114 c 1
 548 68 l 1
 488 18 417 -12 344 -12 c 0
EndSplineSet
Validated: 1
EndChar

StartChar: ccaron
Encoding: 269 269 147
Width: 600
GlyphClass: 2
Flags: W
HStem: -12 58<271.641 449.861> 464 58<329.238 505.055> 698 20G<319 384.8 500 572>
VStem: 118 74<126.262 321.359>
LayerCount: 2
Fore
SplineSet
393 573 m 1
 319 718 l 1
 374 718 l 1
 428 618 l 1
 432 618 l 1
 517 718 l 1
 572 718 l 1
 453 573 l 1
 393 573 l 1
344 -12 m 0
 210 -12 118 70 118 210 c 0
 118 407 271 522 434 522 c 0
 513 522 562 487 596 446 c 1
 553 400 l 1
 519 440 480 464 426 464 c 0
 294 464 192 361 192 220 c 0
 192 115 254 46 358 46 c 0
 420 46 476 76 524 114 c 1
 548 68 l 1
 488 18 417 -12 344 -12 c 0
EndSplineSet
Validated: 1
EndChar

StartChar: ccedilla
Encoding: 231 231 148
Width: 600
GlyphClass: 2
Flags: W
HStem: -213 37<198 263.435> -12 53<327 450.75> 468 54<336.925 506.152>
VStem: 116 72<134.454 318.084> 298 54<-151.234 -85.5937>
AnchorPoint: "Ancre-0" 268 -213 basechar 0
AnchorPoint: "Ancre-1" 0 0 basechar 0
AnchorPoint: "Ancre-2" 411 510 basechar 0
LayerCount: 2
Fore
SplineSet
344 -12 m 2
 327 -12 l 1
 303 -50 l 1
 331 -60 352 -77 352 -110 c 0
 352 -176 280 -206 198 -213 c 1
 197 -176 l 1
 253 -169 298 -150 298 -119 c 0
 298 -96 276 -80 240 -71 c 1
 282 -7 l 1
 182 15 116 92 116 210 c 0
 116 407 270 522 434 522 c 0
 513 522 565 488 599 447 c 1
 559 404 l 1
 525 442 479 468 428 468 c 0
 302 468 188 356 188 221 c 0
 188 121 262 41 361 41 c 0
 421 41 482 72 529 108 c 1
 550 67 l 1
 489 17 415 -12 344 -12 c 2
EndSplineSet
Validated: 1
EndChar

StartChar: ccircumflex
Encoding: 265 265 149
Width: 600
GlyphClass: 2
Flags: W
HStem: -12 58<271.641 449.861> 464 58<329.238 505.055> 698 20G<399.448 486.207>
VStem: 118 74<126.262 321.359>
LayerCount: 2
Fore
SplineSet
296 573 m 1
 416 718 l 1
 476 718 l 1
 550 573 l 1
 494 573 l 1
 440 672 l 1
 436 672 l 1
 352 573 l 1
 296 573 l 1
344 -12 m 0
 210 -12 118 70 118 210 c 0
 118 407 271 522 434 522 c 0
 513 522 562 487 596 446 c 1
 553 400 l 1
 519 440 480 464 426 464 c 0
 294 464 192 361 192 220 c 0
 192 115 254 46 358 46 c 0
 420 46 476 76 524 114 c 1
 548 68 l 1
 488 18 417 -12 344 -12 c 0
EndSplineSet
Validated: 1
EndChar

StartChar: cdotaccent
Encoding: 267 267 150
Width: 600
GlyphClass: 2
Flags: W
HStem: -12 58<271.641 449.861> 464 58<329.238 505.055> 631 129<398.589 484.884>
VStem: 118 74<126.262 321.359> 377 131<654.248 737.755>
LayerCount: 2
Fore
SplineSet
432 631 m 0
 400 631 377 654 377 686 c 0
 377 730 413 760 452 760 c 0
 484 760 508 738 508 704 c 0
 508 662 471 631 432 631 c 0
344 -12 m 0
 210 -12 118 70 118 210 c 0
 118 407 271 522 434 522 c 0
 513 522 562 487 596 446 c 1
 553 400 l 1
 519 440 480 464 426 464 c 0
 294 464 192 361 192 220 c 0
 192 115 254 46 358 46 c 0
 420 46 476 76 524 114 c 1
 548 68 l 1
 488 18 417 -12 344 -12 c 0
EndSplineSet
Validated: 1
EndChar

StartChar: d
Encoding: 100 100 151
Width: 600
GlyphClass: 2
Flags: W
HStem: -12 58<226.563 356.82> 0 21G<445 506.159> 462 60<292.692 445.88> 708 20G<544.818 618>
VStem: 96 75<107.399 318.984> 445 58<0 44.313>
LayerCount: 2
Fore
SplineSet
272 -12 m 0xbc
 162 -12 96 63 96 196 c 0
 96 397 236 522 368 522 c 0
 428 522 468 497 508 453 c 1
 520 552 l 1
 548 728 l 1
 618 728 l 1
 503 0 l 1
 445 0 l 1x7c
 450 71 l 1
 447 71 l 1
 399 27 334 -12 272 -12 c 0xbc
294 46 m 0xbc
 344 46 400 75 454 131 c 1
 496 396 l 1
 456 444 414 462 370 462 c 0
 268 462 171 356 171 208 c 0
 171 110 214 46 294 46 c 0xbc
EndSplineSet
Validated: 1
EndChar

StartChar: eth
Encoding: 240 240 152
Width: 600
GlyphClass: 2
Flags: W
HStem: -12 58<231.25 391.39> 414 55<271.224 443.955> 515 21G<254.892 303.247> 708 20G<563.27 609.842>
VStem: 96 66<118.952 300.677> 517 67<378 490.283>
LayerCount: 2
Fore
SplineSet
296 -12 m 0
 184 -12 96 67 96 196 c 0
 96 356 214 469 366 469 c 0
 430 469 487 433 517 378 c 1
 515 482 480 536 426 596 c 1
 263 515 l 1
 248 552 l 1
 394 625 l 1
 362 653 324 677 282 703 c 1
 322 748 l 1
 372 720 417 690 456 654 c 1
 603 728 l 1
 616 690 l 1
 486 625 l 1
 545 558 584 471 584 349 c 0
 584 127 462 -12 296 -12 c 0
308 46 m 0
 421 46 484 141 508 266 c 0
 511 283 512 300 514 316 c 1
 476 388 420 414 366 414 c 0
 237 414 162 314 162 204 c 0
 162 110 225 46 308 46 c 0
EndSplineSet
Validated: 1
EndChar

StartChar: dcaron
Encoding: 271 271 153
Width: 600
GlyphClass: 2
Flags: W
HStem: -12 58<218.855 349.103> 0 21G<437 499.132> 462 60<285.192 438.06> 708 20G<536.818 610>
VStem: 88 76<107.61 319.222> 437 59<0 44.7018> 628 36<552 582.211>
LayerCount: 2
Fore
SplineSet
628 552 m 1x3e
 660 773 l 1
 712 773 l 1
 702 716 l 1
 664 552 l 1
 628 552 l 1x3e
264 -12 m 0xbe
 155 -12 88 63 88 197 c 0
 88 397 228 522 360 522 c 0
 420 522 460 497 500 453 c 1
 512 552 l 1
 540 728 l 1
 610 728 l 1
 496 0 l 1
 437 0 l 1x7e
 442 71 l 1
 440 71 l 1
 392 27 326 -12 264 -12 c 0xbe
286 46 m 0xbe
 337 46 391 75 446 131 c 1
 488 396 l 1
 448 444 407 462 363 462 c 0
 261 462 164 356 164 208 c 0
 164 110 206 46 286 46 c 0xbe
EndSplineSet
Validated: 1
EndChar

StartChar: dcroat
Encoding: 273 273 154
Width: 600
GlyphClass: 2
Flags: W
HStem: -12 58<222.538 356.82> 0 21G<445 506.207> 442 59<289.835 443.431> 581 44<354 526 602 670> 708 20G<544.893 618>
VStem: 96 73<103.8 306.562> 445 58<0 43.6559>
LayerCount: 2
Fore
SplineSet
272 -12 m 0xbe
 162 -12 96 61 96 190 c 0
 96 383 234 501 364 501 c 0
 424 501 464 476 504 432 c 1
 518 530 l 1
 526 581 l 1
 348 581 l 1
 354 625 l 1
 532 625 l 1
 548 728 l 1
 618 728 l 1
 602 625 l 1
 674 625 l 1
 670 586 l 1
 596 580 l 1
 503 0 l 1
 445 0 l 1x7e
 450 71 l 1
 447 71 l 1
 399 27 334 -12 272 -12 c 0xbe
294 46 m 0xbe
 344 46 400 75 454 131 c 1
 493 376 l 1
 453 424 411 442 367 442 c 0
 265 442 169 340 169 200 c 0
 169 105 213 46 294 46 c 0xbe
EndSplineSet
Validated: 1
EndChar

StartChar: e
Encoding: 101 101 155
Width: 600
GlyphClass: 2
Flags: W
HStem: -12 58<255.132 445.139> 240 52<190 518.679> 466 56<308.618 469.743>
VStem: 108 72<122.044 238.869> 520 64<292.694 416.589>
LayerCount: 2
Fore
SplineSet
328 -12 m 0
 200 -12 108 72 108 212 c 0
 108 402 261 522 400 522 c 0
 519 522 584 446 584 328 c 0
 584 296 578 265 570 240 c 1
 182 240 l 1
 181 229 180 219 180 209 c 0
 180 111 244 46 346 46 c 0
 405 46 455 65 505 96 c 1
 522 47 l 1
 470 16 408 -12 328 -12 c 0
190 292 m 1
 516 292 l 1
 518 307 520 322 520 335 c 0
 520 420 471 466 390 466 c 0
 306 466 220 400 190 292 c 1
EndSplineSet
Validated: 1
EndChar

StartChar: eacute
Encoding: 233 233 156
Width: 600
GlyphClass: 2
Flags: W
HStem: -12 58<255.132 445.139> 240 52<190 518.679> 466 56<308.618 469.743> 698 20G<420.414 514>
VStem: 108 72<122.044 238.869> 520 64<292.694 416.589>
LayerCount: 2
Fore
SplineSet
323 573 m 1
 436 718 l 1
 514 718 l 1
 378 573 l 1
 323 573 l 1
328 -12 m 0
 200 -12 108 72 108 212 c 0
 108 402 261 522 400 522 c 0
 519 522 584 446 584 328 c 0
 584 296 578 265 570 240 c 1
 182 240 l 1
 181 229 180 219 180 209 c 0
 180 111 244 46 346 46 c 0
 405 46 455 65 505 96 c 1
 522 47 l 1
 470 16 408 -12 328 -12 c 0
190 292 m 1
 516 292 l 1
 518 307 520 322 520 335 c 0
 520 420 471 466 390 466 c 0
 306 466 220 400 190 292 c 1
EndSplineSet
Validated: 1
EndChar

StartChar: ebreve
Encoding: 277 277 157
Width: 600
GlyphClass: 2
Flags: W
HStem: -12 58<255.132 445.139> 240 52<190 518.679> 466 56<308.618 469.743> 575 45<365.585 470.553>
VStem: 108 72<122.044 238.869> 301 45<640.374 705> 510 44<662.195 705> 520 64<292.694 416.589>
LayerCount: 2
Fore
SplineSet
408 575 m 0xfe
 328 575 301 636 301 693 c 0
 301 697 301 701 301 705 c 1
 346 705 l 1
 346 662 364 620 414 620 c 0
 465 620 497 662 510 705 c 1
 554 705 l 1
 539 645 494 575 408 575 c 0xfe
328 -12 m 0
 200 -12 108 72 108 212 c 0
 108 402 261 522 400 522 c 0
 519 522 584 446 584 328 c 0xfd
 584 296 578 265 570 240 c 1
 182 240 l 1
 181 229 180 219 180 209 c 0
 180 111 244 46 346 46 c 0
 405 46 455 65 505 96 c 1
 522 47 l 1
 470 16 408 -12 328 -12 c 0
190 292 m 1
 516 292 l 1
 518 307 520 322 520 335 c 0
 520 420 471 466 390 466 c 0
 306 466 220 400 190 292 c 1
EndSplineSet
Validated: 1
EndChar

StartChar: ecaron
Encoding: 283 283 158
Width: 600
GlyphClass: 2
Flags: W
HStem: -12 58<255.132 445.139> 240 52<190 518.679> 466 56<308.618 469.743> 698 20G<304 369 485 556>
VStem: 108 72<122.044 238.869> 520 64<292.694 416.589>
LayerCount: 2
Fore
SplineSet
378 573 m 1
 304 718 l 1
 358 718 l 1
 413 618 l 1
 417 618 l 1
 502 718 l 1
 556 718 l 1
 438 573 l 1
 378 573 l 1
328 -12 m 0
 200 -12 108 72 108 212 c 0
 108 402 261 522 400 522 c 0
 519 522 584 446 584 328 c 0
 584 296 578 265 570 240 c 1
 182 240 l 1
 181 229 180 219 180 209 c 0
 180 111 244 46 346 46 c 0
 405 46 455 65 505 96 c 1
 522 47 l 1
 470 16 408 -12 328 -12 c 0
190 292 m 1
 516 292 l 1
 518 307 520 322 520 335 c 0
 520 420 471 466 390 466 c 0
 306 466 220 400 190 292 c 1
EndSplineSet
Validated: 1
EndChar

StartChar: ecircumflex
Encoding: 234 234 159
Width: 600
GlyphClass: 2
Flags: W
HStem: -12 58<255.132 445.139> 240 52<190 518.679> 466 56<308.618 469.743> 698 20G<383.586 470.207>
VStem: 108 72<122.044 238.869> 520 64<292.694 416.589>
LayerCount: 2
Fore
SplineSet
281 573 m 1
 400 718 l 1
 460 718 l 1
 534 573 l 1
 479 573 l 1
 424 672 l 1
 420 672 l 1
 336 573 l 1
 281 573 l 1
328 -12 m 0
 200 -12 108 72 108 212 c 0
 108 402 261 522 400 522 c 0
 519 522 584 446 584 328 c 0
 584 296 578 265 570 240 c 1
 182 240 l 1
 181 229 180 219 180 209 c 0
 180 111 244 46 346 46 c 0
 405 46 455 65 505 96 c 1
 522 47 l 1
 470 16 408 -12 328 -12 c 0
190 292 m 1
 516 292 l 1
 518 307 520 322 520 335 c 0
 520 420 471 466 390 466 c 0
 306 466 220 400 190 292 c 1
EndSplineSet
Validated: 1
EndChar

StartChar: edieresis
Encoding: 235 235 160
Width: 600
GlyphClass: 2
Flags: W
HStem: -12 58<255.132 445.139> 240 52<190 518.679> 466 56<308.618 469.743> 591 101<287.422 361.286 475.255 549.391>
VStem: 108 72<122.044 238.869> 274 102<606.079 678.745> 462 100<603.381 678.745> 520 64<292.694 416.589>
LayerCount: 2
Fore
SplineSet
316 591 m 0xfc
 290 591 274 609 274 634 c 0
 274 666 300 692 334 692 c 0
 358 692 376 674 376 649 c 0
 376 617 346 591 316 591 c 0xfc
504 591 m 0
 478 591 462 609 462 634 c 0xfe
 462 666 488 692 520 692 c 0xfd
 546 692 562 674 562 649 c 0xfe
 562 617 538 591 504 591 c 0
328 -12 m 0
 200 -12 108 72 108 212 c 0
 108 402 261 522 400 522 c 0
 519 522 584 446 584 328 c 0xfd
 584 296 578 265 570 240 c 1
 182 240 l 1
 181 229 180 219 180 209 c 0
 180 111 244 46 346 46 c 0
 405 46 455 65 505 96 c 1
 522 47 l 1
 470 16 408 -12 328 -12 c 0
190 292 m 1
 516 292 l 1
 518 307 520 322 520 335 c 0
 520 420 471 466 390 466 c 0
 306 466 220 400 190 292 c 1
EndSplineSet
Validated: 1
EndChar

StartChar: edotaccent
Encoding: 279 279 161
Width: 600
GlyphClass: 2
Flags: W
HStem: -12 58<255.132 445.139> 240 52<190 518.679> 466 56<308.618 469.743> 631 129<383.793 469.546>
VStem: 108 72<122.044 238.869> 362 130<654.248 737.755> 520 64<292.694 416.589>
LayerCount: 2
Fore
SplineSet
416 631 m 0
 384 631 362 654 362 686 c 0
 362 730 398 760 437 760 c 0
 469 760 492 738 492 704 c 0
 492 662 455 631 416 631 c 0
328 -12 m 0
 200 -12 108 72 108 212 c 0
 108 402 261 522 400 522 c 0
 519 522 584 446 584 328 c 0
 584 296 578 265 570 240 c 1
 182 240 l 1
 181 229 180 219 180 209 c 0
 180 111 244 46 346 46 c 0
 405 46 455 65 505 96 c 1
 522 47 l 1
 470 16 408 -12 328 -12 c 0
190 292 m 1
 516 292 l 1
 518 307 520 322 520 335 c 0
 520 420 471 466 390 466 c 0
 306 466 220 400 190 292 c 1
EndSplineSet
Validated: 1
EndChar

StartChar: egrave
Encoding: 232 232 162
Width: 600
GlyphClass: 2
Flags: W
HStem: -12 58<255.132 445.139> 240 52<190 518.679> 466 56<308.618 469.743> 698 20G<346 433.379>
VStem: 108 72<122.044 238.869> 520 64<292.694 416.589>
LayerCount: 2
Fore
SplineSet
438 573 m 1
 346 718 l 1
 424 718 l 1
 492 573 l 1
 438 573 l 1
328 -12 m 0
 200 -12 108 72 108 212 c 0
 108 402 261 522 400 522 c 0
 519 522 584 446 584 328 c 0
 584 296 578 265 570 240 c 1
 182 240 l 1
 181 229 180 219 180 209 c 0
 180 111 244 46 346 46 c 0
 405 46 455 65 505 96 c 1
 522 47 l 1
 470 16 408 -12 328 -12 c 0
190 292 m 1
 516 292 l 1
 518 307 520 322 520 335 c 0
 520 420 471 466 390 466 c 0
 306 466 220 400 190 292 c 1
EndSplineSet
Validated: 1
EndChar

StartChar: emacron
Encoding: 275 275 163
Width: 600
GlyphClass: 2
Flags: W
HStem: -12 58<255.132 445.139> 240 52<190 518.679> 466 56<308.618 469.743> 602 51<300 532>
VStem: 108 72<122.044 238.869> 520 64<292.694 416.589>
LayerCount: 2
Fore
SplineSet
292 602 m 1
 300 653 l 1
 540 653 l 1
 532 602 l 1
 292 602 l 1
328 -12 m 0
 200 -12 108 72 108 212 c 0
 108 402 261 522 400 522 c 0
 519 522 584 446 584 328 c 0
 584 296 578 265 570 240 c 1
 182 240 l 1
 181 229 180 219 180 209 c 0
 180 111 244 46 346 46 c 0
 405 46 455 65 505 96 c 1
 522 47 l 1
 470 16 408 -12 328 -12 c 0
190 292 m 1
 516 292 l 1
 518 307 520 322 520 335 c 0
 520 420 471 466 390 466 c 0
 306 466 220 400 190 292 c 1
EndSplineSet
Validated: 1
EndChar

StartChar: eogonek
Encoding: 281 281 164
Width: 600
GlyphClass: 2
Flags: W
HStem: -206 50<335.865 418.668> -12 58<255.339 347> 240 52<190 518.679> 466 56<308.618 469.743>
VStem: 108 72<122.044 238.869> 275 57<-152.245 -68.1696> 520 64<292.694 416.589>
LayerCount: 2
Fore
SplineSet
570 240 m 1
 182 240 l 1
 181 229 180 219 180 209 c 0
 180 111 244 46 346 46 c 0
 405 46 455 65 505 96 c 1
 522 47 l 1
 490 27 455 11 414 0 c 1
 363 -35 332 -77 332 -117 c 0
 332 -143 350 -156 372 -156 c 0
 388 -156 403 -151 415 -143 c 1
 430 -180 l 1
 410 -194 374 -206 350 -206 c 0
 308 -206 275 -181 275 -136 c 0
 275 -86 310 -42 347 -12 c 1
 343 -12 332 -12 328 -12 c 0
 200 -12 108 72 108 212 c 0
 108 402 261 522 400 522 c 0
 519 522 584 446 584 328 c 0
 584 296 578 265 570 240 c 1
390 466 m 0
 306 466 220 400 190 292 c 1
 516 292 l 1
 518 307 520 322 520 335 c 0
 520 420 471 466 390 466 c 0
EndSplineSet
Validated: 1
EndChar

StartChar: uni1EBD
Encoding: 7869 7869 165
Width: 600
GlyphClass: 2
Flags: W
HStem: -12 58<255.132 445.139> 240 52<190 518.679> 466 56<308.618 469.743> 580 48<432.592 504.325> 635 47<329.109 399.904>
VStem: 108 72<122.044 238.869> 520 64<292.694 416.589>
LayerCount: 2
Fore
SplineSet
272 580 m 1
 288 636 318 682 370 682 c 0
 418 682 439 628 471 628 c 0
 492 628 508 646 520 682 c 1
 561 682 l 1
 546 626 515 580 463 580 c 0
 414 580 396 635 362 635 c 0
 341 635 326 616 314 580 c 1
 272 580 l 1
328 -12 m 0
 200 -12 108 72 108 212 c 0
 108 402 261 522 400 522 c 0
 519 522 584 446 584 328 c 0
 584 296 578 265 570 240 c 1
 182 240 l 1
 181 229 180 219 180 209 c 0
 180 111 244 46 346 46 c 0
 405 46 455 65 505 96 c 1
 522 47 l 1
 470 16 408 -12 328 -12 c 0
190 292 m 1
 516 292 l 1
 518 307 520 322 520 335 c 0
 520 420 471 466 390 466 c 0
 306 466 220 400 190 292 c 1
EndSplineSet
Validated: 1
EndChar

StartChar: f
Encoding: 102 102 166
Width: 600
GlyphClass: 2
Flags: HW
HStem: 0 21G<248 319.186> 452 58<189 319 398 598> 682 58<469.842 653.777>
LayerCount: 2
Fore
SplineSet
248 0 m 1
 319 452 l 1
 178 452 l 1
 189 510 l 1
 328 510 l 1
 332 534 l 2
 353 660 426 740 556 740 c 0
 602 740 646 732 688 710 c 1
 662 656 l 1
 625 678 595 682 552 682 c 0
 460 682 416 626 402 538 c 1
 398 510 l 1
 608 510 l 1
 598 452 l 1
 388 452 l 1
 316 0 l 1
 248 0 l 1
EndSplineSet
EndChar

StartChar: g
Encoding: 103 103 167
Width: 600
GlyphClass: 2
Flags: W
HStem: -227 54<163.879 341.173> 5 59<232.817 359.863> 462 60<291.817 444.039> 490 20G<515.684 576>
VStem: 96 70<134.628 320.222>
AnchorPoint: "Ancre-0" 300 0 basechar 0
AnchorPoint: "Ancre-1" 0 0 basechar 0
AnchorPoint: "Ancre-2" 381 510 basechar 0
LayerCount: 2
Fore
SplineSet
244 -227 m 0xd8
 181 -227 115 -208 64 -133 c 1
 104 -94 l 1
 144 -158 206 -173 255 -173 c 0
 348 -173 406 -119 427 0 c 2
 441 81 l 1
 396 39 331 5 271 5 c 0
 163 5 96 82 96 211 c 0
 96 402 232 522 365 522 c 0xe8
 422 522 467 496 504 452 c 1
 504 453 l 1
 522 510 l 1
 576 510 l 1
 495 0 l 2
 472 -148 388 -227 244 -227 c 0xd8
301 64 m 0
 348 64 395 91 447 142 c 1
 489 401 l 1
 452 445 411 462 368 462 c 0
 275 462 166 358 166 222 c 0
 166 131 225 64 301 64 c 0
EndSplineSet
Validated: 1
EndChar

StartChar: gbreve
Encoding: 287 287 168
Width: 600
GlyphClass: 2
Flags: W
HStem: -227 54<163.879 341.173> 5 59<232.817 359.863> 462 60<291.817 444.039> 490 20G<515.684 576> 575 45<349.085 453.784>
VStem: 96 70<134.628 320.222> 284 46<640.374 705> 493 45<662.195 705>
AnchorPoint: "Ancre-2" 410 692 basechar 0
AnchorPoint: "Ancre-0" 300 0 basechar 0
AnchorPoint: "Ancre-1" 0 0 basechar 0
LayerCount: 2
Fore
SplineSet
244 -227 m 0xdf
 181 -227 115 -208 64 -133 c 1
 104 -94 l 1
 144 -158 206 -173 255 -173 c 0
 348 -173 406 -119 427 0 c 2
 441 81 l 1
 396 39 331 5 271 5 c 0
 163 5 96 82 96 211 c 0
 96 402 232 522 365 522 c 0xef
 422 522 467 496 504 452 c 1
 504 453 l 1
 522 510 l 1
 576 510 l 1
 495 0 l 2
 472 -148 388 -227 244 -227 c 0xdf
301 64 m 0
 348 64 395 91 447 142 c 1
 489 401 l 1
 452 445 411 462 368 462 c 0
 275 462 166 358 166 222 c 0
 166 131 225 64 301 64 c 0
391 575 m 0
 311 575 284 636 284 693 c 0
 284 697 284 701 284 705 c 1
 330 705 l 1
 330 662 348 620 398 620 c 0
 449 620 479 662 493 705 c 1
 538 705 l 1
 523 645 477 575 391 575 c 0
EndSplineSet
Validated: 1
EndChar

StartChar: gcaron
Encoding: 487 487 169
Width: 600
GlyphClass: 2
Flags: W
HStem: -227 54<163.879 341.173> 5 59<232.817 359.863> 462 60<291.817 444.039> 490 20G<515.684 576> 701 20G<282 347.111 474.963 546>
VStem: 96 70<134.628 320.222>
AnchorPoint: "Ancre-2" 416 721 basechar 0
AnchorPoint: "Ancre-0" 300 0 basechar 0
AnchorPoint: "Ancre-1" 0 0 basechar 0
LayerCount: 2
Fore
SplineSet
356 573 m 1xcc
 282 721 l 1
 336 721 l 1
 396 613 l 1
 400 613 l 1
 492 721 l 1
 546 721 l 1
 426 573 l 1
 356 573 l 1xcc
244 -227 m 0
 181 -227 115 -208 64 -133 c 1
 104 -94 l 1
 144 -158 206 -173 255 -173 c 0
 348 -173 406 -119 427 0 c 2
 441 81 l 1
 396 39 331 5 271 5 c 0
 163 5 96 82 96 211 c 0
 96 402 232 522 365 522 c 0xec
 422 522 467 496 504 452 c 1
 504 453 l 1
 522 510 l 1
 576 510 l 1xdc
 495 0 l 2
 472 -148 388 -227 244 -227 c 0
301 64 m 0
 348 64 395 91 447 142 c 1
 489 401 l 1
 452 445 411 462 368 462 c 0
 275 462 166 358 166 222 c 0
 166 131 225 64 301 64 c 0
EndSplineSet
Validated: 1
EndChar

StartChar: gcircumflex
Encoding: 285 285 170
Width: 600
GlyphClass: 2
Flags: W
HStem: -227 54<163.879 341.173> 5 59<232.817 359.863> 462 60<291.817 444.039> 490 20G<515.684 576> 701 20G<362.784 459>
VStem: 96 70<134.628 320.222>
AnchorPoint: "Ancre-2" 416 721 basechar 0
AnchorPoint: "Ancre-1" 0 0 basechar 0
AnchorPoint: "Ancre-0" 300 0 basechar 0
LayerCount: 2
Fore
SplineSet
259 573 m 1xcc
 379 721 l 1
 449 721 l 1
 523 573 l 1
 469 573 l 1
 408 681 l 1
 404 681 l 1
 313 573 l 1
 259 573 l 1xcc
244 -227 m 0
 181 -227 115 -208 64 -133 c 1
 104 -94 l 1
 144 -158 206 -173 255 -173 c 0
 348 -173 406 -119 427 0 c 2
 441 81 l 1
 396 39 331 5 271 5 c 0
 163 5 96 82 96 211 c 0
 96 402 232 522 365 522 c 0xec
 422 522 467 496 504 452 c 1
 504 453 l 1
 522 510 l 1
 576 510 l 1xdc
 495 0 l 2
 472 -148 388 -227 244 -227 c 0
301 64 m 0
 348 64 395 91 447 142 c 1
 489 401 l 1
 452 445 411 462 368 462 c 0
 275 462 166 358 166 222 c 0
 166 131 225 64 301 64 c 0
EndSplineSet
Validated: 1
EndChar

StartChar: gdotaccent
Encoding: 289 289 171
Width: 600
GlyphClass: 2
Flags: W
HStem: -227 54<163.879 341.173> 5 59<232.817 359.863> 462 60<291.817 444.039> 490 20G<515.684 576> 631 129<366.589 452.884>
VStem: 96 70<134.628 320.222> 345 131<654.248 737.755>
AnchorPoint: "Ancre-2" 414 690 basechar 0
AnchorPoint: "Ancre-0" 300 0 basechar 0
AnchorPoint: "Ancre-1" 0 0 basechar 0
LayerCount: 2
Fore
SplineSet
244 -227 m 0xde
 181 -227 115 -208 64 -133 c 1
 104 -94 l 1
 144 -158 206 -173 255 -173 c 0
 348 -173 406 -119 427 0 c 2
 441 81 l 1
 396 39 331 5 271 5 c 0
 163 5 96 82 96 211 c 0
 96 402 232 522 365 522 c 0xee
 422 522 467 496 504 452 c 1
 504 453 l 1
 522 510 l 1
 576 510 l 1
 495 0 l 2
 472 -148 388 -227 244 -227 c 0xde
301 64 m 0
 348 64 395 91 447 142 c 1
 489 401 l 1
 452 445 411 462 368 462 c 0
 275 462 166 358 166 222 c 0
 166 131 225 64 301 64 c 0
400 631 m 0
 368 631 345 654 345 686 c 0
 345 730 381 760 420 760 c 0
 452 760 476 738 476 704 c 0
 476 662 439 631 400 631 c 0
EndSplineSet
Validated: 1
EndChar

StartChar: uni1E21
Encoding: 7713 7713 172
Width: 600
GlyphClass: 2
Flags: W
HStem: -227 54<163.879 341.173> 5 59<232.817 359.863> 462 60<291.817 444.039> 490 20G<515.684 576> 613 47<281 520>
VStem: 96 70<134.628 320.222>
AnchorPoint: "Ancre-2" 406 658 basechar 0
AnchorPoint: "Ancre-1" 0 0 basechar 0
AnchorPoint: "Ancre-0" 300 0 basechar 0
LayerCount: 2
Fore
SplineSet
274 613 m 1xcc
 281 660 l 1
 527 660 l 1
 520 613 l 1
 274 613 l 1xcc
244 -227 m 0
 181 -227 115 -208 64 -133 c 1
 104 -94 l 1
 144 -158 206 -173 255 -173 c 0
 348 -173 406 -119 427 0 c 2
 441 81 l 1
 396 39 331 5 271 5 c 0
 163 5 96 82 96 211 c 0
 96 402 232 522 365 522 c 0xec
 422 522 467 496 504 452 c 1
 504 453 l 1
 522 510 l 1
 576 510 l 1xdc
 495 0 l 2
 472 -148 388 -227 244 -227 c 0
301 64 m 0
 348 64 395 91 447 142 c 1
 489 401 l 1
 452 445 411 462 368 462 c 0
 275 462 166 358 166 222 c 0
 166 131 225 64 301 64 c 0
EndSplineSet
Validated: 1
EndChar

StartChar: h
Encoding: 104 104 173
Width: 600
GlyphClass: 2
Flags: W
HStem: 0 21G<97 170.12 450 523.145> 461 61<343.512 475.662> 708 20G<208.841 282>
VStem: 503 72<277.527 431.571>
LayerCount: 2
Fore
SplineSet
97 0 m 1
 212 728 l 1
 282 728 l 1
 253 543 l 1
 230 416 l 1
 294 478 358 522 434 522 c 0
 531 522 575 474 575 380 c 0
 575 361 573 340 570 318 c 2
 520 0 l 1
 450 0 l 1
 498 308 l 2
 501 327 503 344 503 360 c 0
 503 428 472 461 403 461 c 0
 342 461 296 428 223 359 c 1
 167 0 l 1
 97 0 l 1
EndSplineSet
Validated: 1
EndChar

StartChar: hbar
Encoding: 295 295 174
Width: 600
GlyphClass: 2
Flags: W
HStem: 0 21G<97 170.136 450 523.176> 440 61<340.05 472.195> 581 44<122 189 265 476> 708 20G<208.893 282>
VStem: 500 72<256.154 411.76>
LayerCount: 2
Fore
SplineSet
97 0 m 1
 189 581 l 1
 115 581 l 1
 122 620 l 1
 196 625 l 1
 212 728 l 1
 282 728 l 1
 265 625 l 1
 483 625 l 1
 476 581 l 1
 259 581 l 1
 250 522 l 1
 226 396 l 1
 291 457 354 501 430 501 c 0
 527 501 572 452 572 357 c 0
 572 338 570 318 567 296 c 2
 520 0 l 1
 450 0 l 1
 495 287 l 2
 498 306 500 323 500 339 c 0
 500 407 469 440 400 440 c 0
 339 440 292 407 220 338 c 1
 167 0 l 1
 97 0 l 1
EndSplineSet
Validated: 1
EndChar

StartChar: hcircumflex
Encoding: 293 293 175
Width: 600
GlyphClass: 2
Flags: W
HStem: 0 21G<97 170.12 450 523.145> 461 61<343.512 475.662> 708 20G<208.841 282>
VStem: 503 72<277.527 431.571>
LayerCount: 2
Fore
SplineSet
136 764 m 1
 251 878 l 1
 318 878 l 1
 395 764 l 1
 336 764 l 1
 280 838 l 1
 276 838 l 1
 194 764 l 1
 136 764 l 1
97 0 m 1
 212 728 l 1
 282 728 l 1
 253 543 l 1
 230 416 l 1
 294 478 358 522 434 522 c 0
 531 522 575 474 575 380 c 0
 575 361 573 340 570 318 c 2
 520 0 l 1
 450 0 l 1
 498 308 l 2
 501 327 503 344 503 360 c 0
 503 428 472 461 403 461 c 0
 342 461 296 428 223 359 c 1
 167 0 l 1
 97 0 l 1
EndSplineSet
Validated: 1
EndChar

StartChar: i
Encoding: 105 105 176
Width: 600
GlyphClass: 2
Flags: W
HStem: 0 58<117 310 379 562> 452 58<188 371> 634 129<391.875 477.572>
VStem: 369 131<656.852 740.093>
LayerCount: 2
Fore
SplineSet
424 634 m 0
 392 634 369 656 369 688 c 0
 369 732 405 763 444 763 c 0
 476 763 500 740 500 706 c 0
 500 664 462 634 424 634 c 0
108 0 m 1
 117 58 l 1
 310 58 l 1
 371 452 l 1
 178 452 l 1
 188 510 l 1
 450 510 l 1
 379 58 l 1
 572 58 l 1
 562 0 l 1
 108 0 l 1
EndSplineSet
Validated: 1
EndChar

StartChar: dotlessi
Encoding: 305 305 177
Width: 600
GlyphClass: 2
Flags: W
HStem: 0 58<117 310 379 562> 452 58<188 371>
LayerCount: 2
Fore
SplineSet
108 0 m 1
 117 58 l 1
 310 58 l 1
 371 452 l 1
 178 452 l 1
 188 510 l 1
 450 510 l 1
 379 58 l 1
 572 58 l 1
 562 0 l 1
 108 0 l 1
EndSplineSet
Validated: 1
EndChar

StartChar: iacute
Encoding: 237 237 178
Width: 600
GlyphClass: 2
Flags: W
HStem: 0 58<117 310 379 562> 452 58<188 371> 700 20G<428.306 522>
LayerCount: 2
Fore
SplineSet
331 576 m 1
 444 720 l 1
 522 720 l 1
 386 576 l 1
 331 576 l 1
108 0 m 1
 117 58 l 1
 310 58 l 1
 371 452 l 1
 178 452 l 1
 188 510 l 1
 450 510 l 1
 379 58 l 1
 572 58 l 1
 562 0 l 1
 108 0 l 1
EndSplineSet
Validated: 1
EndChar

StartChar: ibreve
Encoding: 301 301 179
Width: 600
GlyphClass: 2
Flags: W
HStem: 0 58<117 310 379 562> 452 58<188 371> 578 46<372.719 478.733>
VStem: 308 46<643.374 708> 517 45<665.195 708>
LayerCount: 2
Fore
SplineSet
415 578 m 0
 335 578 308 639 308 696 c 0
 308 700 308 704 308 708 c 1
 354 708 l 1
 354 707 354 706 354 705 c 0
 354 663 373 624 422 624 c 0
 473 624 504 665 517 708 c 1
 562 708 l 1
 547 648 501 578 415 578 c 0
108 0 m 1
 117 58 l 1
 310 58 l 1
 371 452 l 1
 178 452 l 1
 188 510 l 1
 450 510 l 1
 379 58 l 1
 572 58 l 1
 562 0 l 1
 108 0 l 1
EndSplineSet
Validated: 1
EndChar

StartChar: uni01D0
Encoding: 464 464 180
Width: 600
GlyphClass: 2
Flags: W
HStem: 0 58<117 310 379 562> 452 58<188 371> 700 20G<311 376.8 492 564>
LayerCount: 2
Fore
SplineSet
385 576 m 1
 311 720 l 1
 366 720 l 1
 420 620 l 1
 424 620 l 1
 509 720 l 1
 564 720 l 1
 445 576 l 1
 385 576 l 1
108 0 m 1
 117 58 l 1
 310 58 l 1
 371 452 l 1
 178 452 l 1
 188 510 l 1
 450 510 l 1
 379 58 l 1
 572 58 l 1
 562 0 l 1
 108 0 l 1
EndSplineSet
Validated: 1
EndChar

StartChar: icircumflex
Encoding: 238 238 181
Width: 600
GlyphClass: 2
Flags: W
HStem: 0 58<117 310 379 562> 452 58<188 371> 700 20G<391.472 478.278>
LayerCount: 2
Fore
SplineSet
289 576 m 1
 408 720 l 1
 468 720 l 1
 542 576 l 1
 487 576 l 1
 432 676 l 1
 428 676 l 1
 344 576 l 1
 289 576 l 1
108 0 m 1
 117 58 l 1
 310 58 l 1
 371 452 l 1
 178 452 l 1
 188 510 l 1
 450 510 l 1
 379 58 l 1
 572 58 l 1
 562 0 l 1
 108 0 l 1
EndSplineSet
Validated: 1
EndChar

StartChar: idieresis
Encoding: 239 239 182
Width: 600
GlyphClass: 2
Flags: W
HStem: 0 58<117 310 379 562> 452 58<188 371> 594 102<295.016 369.015 482.662 557.068>
VStem: 282 101<608.154 683.375> 469 101<606.625 682.628>
LayerCount: 2
Fore
SplineSet
324 594 m 0
 298 594 282 613 282 638 c 0
 282 670 307 696 341 696 c 0
 365 696 383 677 383 652 c 0
 383 620 355 594 324 594 c 0
512 594 m 0
 486 594 469 613 469 638 c 0
 469 670 496 696 528 696 c 0
 554 696 570 677 570 652 c 0
 570 620 545 594 512 594 c 0
108 0 m 1
 117 58 l 1
 310 58 l 1
 371 452 l 1
 178 452 l 1
 188 510 l 1
 450 510 l 1
 379 58 l 1
 572 58 l 1
 562 0 l 1
 108 0 l 1
EndSplineSet
Validated: 1
EndChar

StartChar: igrave
Encoding: 236 236 183
Width: 600
GlyphClass: 2
Flags: W
HStem: 0 58<117 310 379 562> 452 58<188 371> 700 20G<353 441.444>
LayerCount: 2
Fore
SplineSet
445 576 m 1
 353 720 l 1
 432 720 l 1
 500 576 l 1
 445 576 l 1
108 0 m 1
 117 58 l 1
 310 58 l 1
 371 452 l 1
 178 452 l 1
 188 510 l 1
 450 510 l 1
 379 58 l 1
 572 58 l 1
 562 0 l 1
 108 0 l 1
EndSplineSet
Validated: 1
EndChar

StartChar: imacron
Encoding: 299 299 184
Width: 600
GlyphClass: 2
Flags: W
HStem: 0 58<117 310 379 562> 452 58<188 371> 606 50<307 540>
LayerCount: 2
Fore
SplineSet
299 606 m 1
 307 656 l 1
 548 656 l 1
 540 606 l 1
 299 606 l 1
108 0 m 1
 117 58 l 1
 310 58 l 1
 371 452 l 1
 178 452 l 1
 188 510 l 1
 450 510 l 1
 379 58 l 1
 572 58 l 1
 562 0 l 1
 108 0 l 1
EndSplineSet
Validated: 1
EndChar

StartChar: iogonek
Encoding: 303 303 185
Width: 600
GlyphClass: 2
Flags: W
HStem: -206 55<297.007 377.268> 0 68<382 560> 490 20G<177.716 458.6> 624 140<385.836 474.691>
VStem: 228 65<-147.485 -67.4177> 359 142<650.337 736.929>
AnchorPoint: "Ancre-0" 300 0 basechar 0
AnchorPoint: "Ancre-1" 420 10 basechar 0
AnchorPoint: "Ancre-2" 433 713 basechar 0
LayerCount: 2
Fore
SplineSet
419 624 m 0
 384 624 359 648 359 683 c 0
 359 730 398 764 441 764 c 0
 476 764 501 739 501 703 c 0
 501 657 462 624 419 624 c 0
374 0 m 1
 323 -35 293 -74 293 -113 c 0
 293 -138 311 -151 332 -151 c 0
 348 -151 362 -146 374 -138 c 1
 390 -179 l 1
 368 -194 331 -206 306 -206 c 0
 262 -206 228 -181 228 -135 c 0
 228 -77 276 -28 316 0 c 1
 100 0 l 1
 114 133 l 1
 300 68 l 1
 320 383 l 1
 170 443 l 1
 181 510 l 1
 528 485 l 1
 382 68 l 1
 571 68 l 1
 560 0 l 1
 374 0 l 1
EndSplineSet
Validated: 1
EndChar

StartChar: itilde
Encoding: 297 297 186
Width: 600
GlyphClass: 2
Flags: W
HStem: 0 58<117 310 379 562> 452 58<188 371> 583 48<440.477 511.338> 638 48<336.858 407.334>
LayerCount: 2
Fore
SplineSet
280 583 m 1
 295 639 326 686 378 686 c 0
 426 686 446 631 478 631 c 0
 499 631 515 650 527 686 c 1
 569 686 l 1
 553 630 522 583 470 583 c 0
 421 583 403 638 369 638 c 0
 348 638 334 619 322 583 c 1
 280 583 l 1
108 0 m 1
 117 58 l 1
 310 58 l 1
 371 452 l 1
 178 452 l 1
 188 510 l 1
 450 510 l 1
 379 58 l 1
 572 58 l 1
 562 0 l 1
 108 0 l 1
EndSplineSet
Validated: 1
EndChar

StartChar: j
Encoding: 106 106 187
Width: 600
GlyphClass: 2
Flags: W
HStem: -217 58<64.34 262.631> 452 58<173 394> 631 129<415.793 501.546>
VStem: 394 130<654.248 737.755>
LayerCount: 2
Fore
SplineSet
448 631 m 0
 416 631 394 654 394 686 c 0
 394 730 430 760 469 760 c 0
 501 760 524 738 524 704 c 0
 524 662 487 631 448 631 c 0
160 -217 m 0
 110 -217 63 -203 28 -183 c 1
 61 -130 l 1
 92 -146 131 -159 169 -159 c 0
 271 -159 304 -120 320 -12 c 1
 394 452 l 1
 164 452 l 1
 173 510 l 1
 474 510 l 1
 392 -6 l 2
 372 -132 312 -217 160 -217 c 0
EndSplineSet
Validated: 1
EndChar

StartChar: uni0237
Encoding: 567 567 188
Width: 600
GlyphClass: 2
Flags: W
HStem: -217 58<64.34 262.631> 452 58<173 394>
LayerCount: 2
Fore
SplineSet
160 -217 m 0
 110 -217 63 -203 28 -183 c 1
 61 -130 l 1
 92 -146 131 -159 169 -159 c 0
 271 -159 304 -120 320 -12 c 1
 394 452 l 1
 164 452 l 1
 173 510 l 1
 474 510 l 1
 392 -6 l 2
 372 -132 312 -217 160 -217 c 0
EndSplineSet
Validated: 1
EndChar

StartChar: jcircumflex
Encoding: 309 309 189
Width: 600
GlyphClass: 2
Flags: W
HStem: -217 58<64.34 262.631> 452 58<173 394> 698 20G<415.586 502.207>
LayerCount: 2
Fore
SplineSet
313 573 m 1
 432 718 l 1
 492 718 l 1
 566 573 l 1
 511 573 l 1
 456 672 l 1
 452 672 l 1
 368 573 l 1
 313 573 l 1
160 -217 m 0
 110 -217 63 -203 28 -183 c 1
 61 -130 l 1
 92 -146 131 -159 169 -159 c 0
 271 -159 304 -120 320 -12 c 1
 394 452 l 1
 164 452 l 1
 173 510 l 1
 474 510 l 1
 392 -6 l 2
 372 -132 312 -217 160 -217 c 0
EndSplineSet
Validated: 1
EndChar

StartChar: k
Encoding: 107 107 190
Width: 600
GlyphClass: 2
Flags: W
HStem: 0 21G<112 185.121 481.139 572> 490 20G<521.404 625> 708 20G<222.868 296>
DStem2: 112 0 182 0 0.156434 0.987688<10.9504 153.656 238.812 736.871> 222 225 204 141 0.752023 0.659137<0 121.687 188.383 430.005> 398 310 347 267 0.48946 -0.872026<12.5347 316.337>
LayerCount: 2
Fore
SplineSet
112 0 m 1
 226 728 l 1
 296 728 l 1
 218 225 l 1
 222 225 l 1
 544 510 l 1
 625 510 l 1
 398 310 l 1
 572 0 l 1
 492 0 l 1
 347 267 l 1
 204 141 l 1
 182 0 l 1
 112 0 l 1
EndSplineSet
Validated: 1
EndChar

StartChar: kgreenlandic
Encoding: 312 312 191
Width: 600
GlyphClass: 2
Flags: W
HStem: 0 21G<112 185.165 480.939 572> 490 20G<188.863 262 489.5 625>
LayerCount: 2
Fore
SplineSet
112 0 m 1
 192 510 l 1
 262 510 l 1
 218 224 l 1
 326 320 435 415 544 510 c 1
 625 510 l 1
 398 310 l 1
 572 0 l 1
 492 0 l 1
 346 264 l 1
 204 139 l 1
 182 0 l 1
 112 0 l 1
EndSplineSet
Validated: 1
EndChar

StartChar: l
Encoding: 108 108 192
Width: 600
GlyphClass: 2
Flags: W
HStem: -12 58<366.747 515.224> 670 58<200 362>
VStem: 277 70<65.5 200.903>
LayerCount: 2
Fore
SplineSet
406 -12 m 0
 322 -12 277 30 277 115 c 0
 277 130 278 146 281 164 c 2
 362 670 l 1
 192 670 l 1
 200 728 l 1
 440 728 l 1
 350 158 l 2
 348 147 347 137 347 127 c 0
 347 71 377 46 430 46 c 0
 459 46 488 54 528 72 c 1
 538 18 l 1
 492 1 458 -12 406 -12 c 0
EndSplineSet
Validated: 1
EndChar

StartChar: lacute
Encoding: 314 314 193
Width: 600
GlyphClass: 2
Flags: W
HStem: -12 58<366.747 515.224> 670 58<200 362>
VStem: 277 70<65.5 200.903>
LayerCount: 2
Fore
SplineSet
354 776 m 1
 462 890 l 1
 544 890 l 1
 414 776 l 1
 354 776 l 1
406 -12 m 0
 322 -12 277 30 277 115 c 0
 277 130 278 146 281 164 c 2
 362 670 l 1
 192 670 l 1
 200 728 l 1
 440 728 l 1
 350 158 l 2
 348 147 347 137 347 127 c 0
 347 71 377 46 430 46 c 0
 459 46 488 54 528 72 c 1
 538 18 l 1
 492 1 458 -12 406 -12 c 0
EndSplineSet
Validated: 1
EndChar

StartChar: lcaron
Encoding: 318 318 194
Width: 600
GlyphClass: 2
Flags: W
HStem: -12 58<366.747 515.224> 670 58<200 362>
VStem: 277 70<65.5 200.903> 488 36<552 582.211>
LayerCount: 2
Fore
SplineSet
488 552 m 1
 518 773 l 1
 571 773 l 1
 562 716 l 1
 524 552 l 1
 488 552 l 1
406 -12 m 0
 322 -12 277 30 277 115 c 0
 277 130 278 146 281 164 c 2
 362 670 l 1
 192 670 l 1
 200 728 l 1
 440 728 l 1
 350 158 l 2
 348 147 347 137 347 127 c 0
 347 71 377 46 430 46 c 0
 459 46 488 54 528 72 c 1
 538 18 l 1
 492 1 458 -12 406 -12 c 0
EndSplineSet
Validated: 1
EndChar

StartChar: ldot
Encoding: 320 320 195
Width: 600
GlyphClass: 2
Flags: W
HStem: -12 58<331.651 479.169> 304 119<446.766 531.028> 670 58<162 324>
VStem: 240 70<68.5173 200.903> 428 122<323 404.375>
LayerCount: 2
Fore
SplineSet
369 -12 m 0
 285 -12 240 30 240 115 c 0
 240 130 241 146 244 164 c 2
 324 670 l 1
 154 670 l 1
 162 728 l 1
 403 728 l 1
 313 158 l 2
 311 147 310 136 310 127 c 0
 310 71 341 46 394 46 c 0
 422 46 452 54 492 72 c 1
 502 18 l 1
 456 1 421 -12 369 -12 c 0
478 304 m 0
 448 304 428 323 428 355 c 0
 428 396 461 423 498 423 c 0
 528 423 550 404 550 372 c 0
 550 332 517 304 478 304 c 0
EndSplineSet
Validated: 1
EndChar

StartChar: lslash
Encoding: 322 322 196
Width: 600
GlyphClass: 2
Flags: W
HStem: -12 58<366.747 515.224> 670 58<200 362>
VStem: 277 70<65.5 199.317>
LayerCount: 2
Fore
SplineSet
406 -12 m 0
 322 -12 277 30 277 115 c 0
 277 130 278 146 281 164 c 2
 313 364 l 1
 174 287 l 1
 184 350 l 1
 322 426 l 1
 362 670 l 1
 192 670 l 1
 200 728 l 1
 440 728 l 1
 398 464 l 1
 580 562 l 1
 570 500 l 1
 388 400 l 1
 350 158 l 2
 348 147 347 137 347 127 c 0
 347 71 377 46 430 46 c 0
 459 46 488 54 528 72 c 1
 538 18 l 1
 492 1 458 -12 406 -12 c 0
EndSplineSet
Validated: 1
EndChar

StartChar: m
Encoding: 109 109 197
Width: 600
GlyphClass: 2
Flags: W
HStem: 0 21G<64 135.191 280 341.138 485 556.169> 461 61<254.264 331.578 462.544 537.718> 490 20G<142.784 201>
VStem: 146 55<466.463 510> 341 59<333.548 411.312 433 451.578> 545 70<324.677 453.538>
LayerCount: 2
Fore
SplineSet
64 0 m 1xdc
 146 510 l 1
 201 510 l 1xbc
 196 442 l 1
 199 442 l 1
 232 490 268 522 322 522 c 0
 372 522 397 493 400 433 c 1
 439 489 476 522 530 522 c 0
 585 522 615 485 615 415 c 0
 615 400 614 384 611 366 c 2
 553 0 l 1
 485 0 l 1
 542 360 l 2
 544 375 545 388 545 399 c 0
 545 441 531 461 500 461 c 0
 462 461 433 433 397 376 c 1
 338 0 l 1
 280 0 l 1
 338 360 l 2
 340 374 341 386 341 397 c 0
 341 440 324 461 292 461 c 0
 256 461 228 433 192 376 c 1
 132 0 l 1
 64 0 l 1xdc
EndSplineSet
Validated: 1
EndChar

StartChar: n
Encoding: 110 110 198
Width: 600
GlyphClass: 2
Flags: W
HStem: 0 21G<97 170.12 450 523.145> 461 61<343.587 475.662> 490 20G<174.824 236>
VStem: 178 58<465.926 510> 503 72<277.527 431.571>
LayerCount: 2
Fore
SplineSet
97 0 m 1xd8
 178 510 l 1
 236 510 l 1xb8
 228 418 l 1
 232 418 l 1
 294 478 358 522 434 522 c 0
 531 522 575 474 575 380 c 0
 575 361 573 340 570 318 c 2
 520 0 l 1
 450 0 l 1
 498 308 l 2
 501 327 503 344 503 360 c 0
 503 428 472 461 403 461 c 0
 342 461 296 428 223 359 c 1
 167 0 l 1
 97 0 l 1xd8
EndSplineSet
Validated: 1
EndChar

StartChar: nacute
Encoding: 324 324 199
Width: 600
GlyphClass: 2
Flags: W
HStem: 0 21G<97 170.12 450 523.145> 461 61<343.587 475.662> 490 20G<174.824 236> 698 20G<414.276 508>
VStem: 178 58<465.926 510> 503 72<277.527 431.571>
LayerCount: 2
Fore
SplineSet
316 573 m 1x9c
 430 718 l 1
 508 718 l 1
 372 573 l 1
 316 573 l 1x9c
97 0 m 1
 178 510 l 1
 236 510 l 1xbc
 228 418 l 1
 232 418 l 1
 294 478 358 522 434 522 c 0
 531 522 575 474 575 380 c 0
 575 361 573 340 570 318 c 2
 520 0 l 1
 450 0 l 1
 498 308 l 2
 501 327 503 344 503 360 c 0
 503 428 472 461 403 461 c 0xdc
 342 461 296 428 223 359 c 1
 167 0 l 1
 97 0 l 1
EndSplineSet
Validated: 1
EndChar

StartChar: ncaron
Encoding: 328 328 200
Width: 600
GlyphClass: 2
Flags: W
HStem: 0 21G<97 170.12 450 523.145> 461 61<343.587 475.662> 490 20G<174.824 236> 698 20G<297 362.8 478 550>
VStem: 178 58<465.926 510> 503 72<277.527 431.571>
LayerCount: 2
Fore
SplineSet
371 573 m 1x9c
 297 718 l 1
 352 718 l 1
 406 618 l 1
 410 618 l 1
 495 718 l 1
 550 718 l 1
 431 573 l 1
 371 573 l 1x9c
97 0 m 1
 178 510 l 1
 236 510 l 1xbc
 228 418 l 1
 232 418 l 1
 294 478 358 522 434 522 c 0
 531 522 575 474 575 380 c 0
 575 361 573 340 570 318 c 2
 520 0 l 1
 450 0 l 1
 498 308 l 2
 501 327 503 344 503 360 c 0
 503 428 472 461 403 461 c 0xdc
 342 461 296 428 223 359 c 1
 167 0 l 1
 97 0 l 1
EndSplineSet
Validated: 1
EndChar

StartChar: uni1E45
Encoding: 7749 7749 201
Width: 600
GlyphClass: 2
Flags: W
HStem: 0 21G<97 170.12 450 523.145> 461 61<343.587 475.662> 490 20G<174.824 236> 631 129<376.589 462.884>
VStem: 178 58<465.926 510> 355 131<654.248 737.755> 503 72<277.527 431.571>
LayerCount: 2
Fore
SplineSet
410 631 m 0x9e
 378 631 355 654 355 686 c 0
 355 730 391 760 430 760 c 0
 462 760 486 738 486 704 c 0
 486 662 449 631 410 631 c 0x9e
97 0 m 1
 178 510 l 1
 236 510 l 1xbe
 228 418 l 1
 232 418 l 1
 294 478 358 522 434 522 c 0
 531 522 575 474 575 380 c 0
 575 361 573 340 570 318 c 2
 520 0 l 1
 450 0 l 1
 498 308 l 2
 501 327 503 344 503 360 c 0
 503 428 472 461 403 461 c 0xde
 342 461 296 428 223 359 c 1
 167 0 l 1
 97 0 l 1
EndSplineSet
Validated: 1
EndChar

StartChar: ntilde
Encoding: 241 241 202
Width: 600
GlyphClass: 2
Flags: W
HStem: 0 21G<97 170.12 450 523.145> 461 61<343.587 475.662> 490 20G<174.824 236> 580 48<425.794 497.325> 635 47<322.951 393.425>
VStem: 178 58<465.926 510> 503 72<277.527 431.571>
LayerCount: 2
Fore
SplineSet
266 580 m 1x9e
 282 636 312 682 364 682 c 0
 412 682 431 628 464 628 c 0
 485 628 501 646 513 682 c 1
 554 682 l 1
 539 626 508 580 456 580 c 0
 408 580 389 635 355 635 c 0
 334 635 320 616 308 580 c 1
 266 580 l 1x9e
97 0 m 1
 178 510 l 1
 236 510 l 1xbe
 228 418 l 1
 232 418 l 1
 294 478 358 522 434 522 c 0
 531 522 575 474 575 380 c 0
 575 361 573 340 570 318 c 2
 520 0 l 1
 450 0 l 1
 498 308 l 2
 501 327 503 344 503 360 c 0
 503 428 472 461 403 461 c 0xde
 342 461 296 428 223 359 c 1
 167 0 l 1
 97 0 l 1
EndSplineSet
Validated: 1
EndChar

StartChar: o
Encoding: 111 111 203
Width: 600
GlyphClass: 2
Flags: W
HStem: -12 58<236.657 390.823> 464 58<290.241 444.174>
VStem: 98 73<115.291 324.989> 509 73<180.819 392.742>
LayerCount: 2
Fore
SplineSet
298 -12 m 0
 184 -12 98 68 98 208 c 0
 98 404 238 522 383 522 c 0
 495 522 582 440 582 300 c 0
 582 105 442 -12 298 -12 c 0
308 46 m 0
 420 46 509 150 509 294 c 0
 509 394 458 464 374 464 c 0
 262 464 171 358 171 214 c 0
 171 112 224 46 308 46 c 0
EndSplineSet
Validated: 1
EndChar

StartChar: oacute
Encoding: 243 243 204
Width: 600
GlyphClass: 2
Flags: W
HStem: -12 58<236.657 390.823> 464 58<290.241 444.174> 698 20G<404.276 498>
VStem: 98 73<115.291 324.989> 509 73<180.819 392.742>
LayerCount: 2
Fore
SplineSet
306 573 m 1
 420 718 l 1
 498 718 l 1
 362 573 l 1
 306 573 l 1
298 -12 m 0
 184 -12 98 68 98 208 c 0
 98 404 238 522 383 522 c 0
 495 522 582 440 582 300 c 0
 582 105 442 -12 298 -12 c 0
308 46 m 0
 420 46 509 150 509 294 c 0
 509 394 458 464 374 464 c 0
 262 464 171 358 171 214 c 0
 171 112 224 46 308 46 c 0
EndSplineSet
Validated: 1
EndChar

StartChar: obreve
Encoding: 335 335 205
Width: 600
GlyphClass: 2
Flags: W
HStem: -12 58<236.657 390.823> 464 58<290.241 444.174> 575 45<349.085 453.784>
VStem: 98 73<115.291 324.989> 284 46<640.374 705> 493 45<662.195 705> 509 73<180.819 392.742>
LayerCount: 2
Fore
SplineSet
391 575 m 0xfc
 311 575 284 636 284 693 c 0
 284 697 284 701 284 705 c 1
 330 705 l 1
 330 662 348 620 398 620 c 0
 449 620 479 662 493 705 c 1
 538 705 l 1
 523 645 477 575 391 575 c 0xfc
298 -12 m 0
 184 -12 98 68 98 208 c 0
 98 404 238 522 383 522 c 0
 495 522 582 440 582 300 c 0xfa
 582 105 442 -12 298 -12 c 0
308 46 m 0
 420 46 509 150 509 294 c 0
 509 394 458 464 374 464 c 0
 262 464 171 358 171 214 c 0
 171 112 224 46 308 46 c 0
EndSplineSet
Validated: 1
EndChar

StartChar: uni01D2
Encoding: 466 466 206
Width: 600
GlyphClass: 2
Flags: W
HStem: -12 58<236.657 390.823> 464 58<290.241 444.174> 698 20G<287 352.8 468 540>
VStem: 98 73<115.291 324.989> 509 73<180.819 392.742>
LayerCount: 2
Fore
SplineSet
361 573 m 1
 287 718 l 1
 342 718 l 1
 396 618 l 1
 400 618 l 1
 485 718 l 1
 540 718 l 1
 421 573 l 1
 361 573 l 1
298 -12 m 0
 184 -12 98 68 98 208 c 0
 98 404 238 522 383 522 c 0
 495 522 582 440 582 300 c 0
 582 105 442 -12 298 -12 c 0
308 46 m 0
 420 46 509 150 509 294 c 0
 509 394 458 464 374 464 c 0
 262 464 171 358 171 214 c 0
 171 112 224 46 308 46 c 0
EndSplineSet
Validated: 1
EndChar

StartChar: ocircumflex
Encoding: 244 244 207
Width: 600
GlyphClass: 2
Flags: W
HStem: -12 58<236.657 390.823> 464 58<290.241 444.174> 698 20G<367.448 454.207>
VStem: 98 73<115.291 324.989> 509 73<180.819 392.742>
LayerCount: 2
Fore
SplineSet
264 573 m 1
 384 718 l 1
 444 718 l 1
 518 573 l 1
 462 573 l 1
 408 672 l 1
 404 672 l 1
 320 573 l 1
 264 573 l 1
298 -12 m 0
 184 -12 98 68 98 208 c 0
 98 404 238 522 383 522 c 0
 495 522 582 440 582 300 c 0
 582 105 442 -12 298 -12 c 0
308 46 m 0
 420 46 509 150 509 294 c 0
 509 394 458 464 374 464 c 0
 262 464 171 358 171 214 c 0
 171 112 224 46 308 46 c 0
EndSplineSet
Validated: 1
EndChar

StartChar: odieresis
Encoding: 246 246 208
Width: 600
GlyphClass: 2
Flags: W
HStem: -12 58<236.657 390.823> 464 58<290.241 444.174> 591 101<270.932 344.692 458.662 532.984>
VStem: 98 73<115.291 324.989> 258 101<605.351 679.151> 445 101<603.849 678.409> 509 73<180.819 392.742>
LayerCount: 2
Fore
SplineSet
300 591 m 0xf8
 274 591 258 609 258 634 c 0
 258 666 283 692 316 692 c 0
 340 692 359 674 359 649 c 0
 359 617 330 591 300 591 c 0xf8
487 591 m 0
 461 591 445 609 445 634 c 0
 445 666 472 692 504 692 c 0
 529 692 546 674 546 649 c 0xfc
 546 617 521 591 487 591 c 0
298 -12 m 0
 184 -12 98 68 98 208 c 0
 98 404 238 522 383 522 c 0
 495 522 582 440 582 300 c 0xfa
 582 105 442 -12 298 -12 c 0
308 46 m 0
 420 46 509 150 509 294 c 0
 509 394 458 464 374 464 c 0
 262 464 171 358 171 214 c 0
 171 112 224 46 308 46 c 0
EndSplineSet
Validated: 1
EndChar

StartChar: ograve
Encoding: 242 242 209
Width: 600
GlyphClass: 2
Flags: W
HStem: -12 58<236.657 390.823> 464 58<290.241 444.174> 698 20G<329 417.379>
VStem: 98 73<115.291 324.989> 509 73<180.819 392.742>
LayerCount: 2
Fore
SplineSet
421 573 m 1
 329 718 l 1
 408 718 l 1
 476 573 l 1
 421 573 l 1
298 -12 m 0
 184 -12 98 68 98 208 c 0
 98 404 238 522 383 522 c 0
 495 522 582 440 582 300 c 0
 582 105 442 -12 298 -12 c 0
308 46 m 0
 420 46 509 150 509 294 c 0
 509 394 458 464 374 464 c 0
 262 464 171 358 171 214 c 0
 171 112 224 46 308 46 c 0
EndSplineSet
Validated: 1
EndChar

StartChar: ohungarumlaut
Encoding: 337 337 210
Width: 600
GlyphClass: 2
Flags: W
HStem: -12 58<236.657 390.823> 464 58<290.241 444.174>
VStem: 98 73<115.291 324.989> 509 73<180.819 392.742>
LayerCount: 2
Fore
SplineSet
251 570 m 1
 344 712 l 1
 409 712 l 1
 300 570 l 1
 251 570 l 1
394 570 m 1
 488 712 l 1
 552 712 l 1
 442 570 l 1
 394 570 l 1
298 -12 m 0
 184 -12 98 68 98 208 c 0
 98 404 238 522 383 522 c 0
 495 522 582 440 582 300 c 0
 582 105 442 -12 298 -12 c 0
308 46 m 0
 420 46 509 150 509 294 c 0
 509 394 458 464 374 464 c 0
 262 464 171 358 171 214 c 0
 171 112 224 46 308 46 c 0
EndSplineSet
Validated: 1
EndChar

StartChar: omacron
Encoding: 333 333 211
Width: 600
GlyphClass: 2
Flags: W
HStem: -12 58<236.657 390.823> 464 58<290.241 444.174> 602 51<283 516>
VStem: 98 73<115.291 324.989> 509 73<180.819 392.742>
LayerCount: 2
Fore
SplineSet
275 602 m 1
 283 653 l 1
 524 653 l 1
 516 602 l 1
 275 602 l 1
298 -12 m 0
 184 -12 98 68 98 208 c 0
 98 404 238 522 383 522 c 0
 495 522 582 440 582 300 c 0
 582 105 442 -12 298 -12 c 0
308 46 m 0
 420 46 509 150 509 294 c 0
 509 394 458 464 374 464 c 0
 262 464 171 358 171 214 c 0
 171 112 224 46 308 46 c 0
EndSplineSet
Validated: 1
EndChar

StartChar: uni01EB
Encoding: 491 491 212
Width: 600
GlyphClass: 2
Flags: W
HStem: -206 50<277.848 360.168> -12 58<236.103 288> 464 58<290.241 444.174>
VStem: 98 73<116.486 324.989> 216 58<-152.245 -68.1714> 509 73<179.782 392.742>
LayerCount: 2
Fore
SplineSet
346 -8 m 1
 302 -42 274 -79 274 -117 c 0
 274 -143 292 -156 314 -156 c 0
 330 -156 344 -151 356 -143 c 1
 372 -180 l 1
 352 -194 316 -206 292 -206 c 0
 250 -206 216 -181 216 -136 c 0
 216 -86 252 -42 288 -12 c 1
 180 -7 98 72 98 208 c 0
 98 404 238 522 383 522 c 0
 495 522 582 440 582 300 c 0
 582 126 472 14 346 -8 c 1
171 214 m 0
 171 112 224 46 308 46 c 0
 420 46 509 150 509 294 c 0
 509 394 458 464 374 464 c 0
 262 464 171 358 171 214 c 0
EndSplineSet
Validated: 1
EndChar

StartChar: oslash
Encoding: 248 248 213
Width: 600
GlyphClass: 2
Flags: W
HStem: -12 56<234.74 389.998> 465 57<290.241 446.42>
VStem: 98 73<122.97 325.086> 509 73<183.534 387.097>
LayerCount: 2
Fore
SplineSet
96 -24 m 1
 68 4 l 1
 132 70 l 1
 112 104 98 154 98 208 c 0
 98 404 238 522 383 522 c 0
 438 522 486 503 522 469 c 1
 584 534 l 1
 614 506 l 1
 548 438 l 1
 570 404 582 354 582 300 c 0
 582 106 442 -12 298 -12 c 0
 244 -12 195 6 159 40 c 1
 96 -24 l 1
185 122 m 1
 472 420 l 1
 450 448 416 465 374 465 c 0
 262 465 171 358 171 214 c 0
 171 181 176 146 185 122 c 1
306 44 m 0
 418 44 509 150 509 294 c 0
 509 328 504 364 496 388 c 1
 208 90 l 1
 232 62 264 44 306 44 c 0
EndSplineSet
Validated: 1
EndChar

StartChar: otilde
Encoding: 245 245 214
Width: 600
GlyphClass: 2
Flags: W
HStem: -12 58<236.657 390.823> 464 58<290.241 444.174> 580 48<415.794 487.325> 635 47<312.951 383.425>
VStem: 98 73<115.291 324.989> 509 73<180.819 392.742>
LayerCount: 2
Fore
SplineSet
256 580 m 1
 272 636 302 682 354 682 c 0
 402 682 421 628 454 628 c 0
 475 628 491 646 503 682 c 1
 544 682 l 1
 529 626 498 580 446 580 c 0
 398 580 379 635 345 635 c 0
 324 635 310 616 298 580 c 1
 256 580 l 1
298 -12 m 0
 184 -12 98 68 98 208 c 0
 98 404 238 522 383 522 c 0
 495 522 582 440 582 300 c 0
 582 105 442 -12 298 -12 c 0
308 46 m 0
 420 46 509 150 509 294 c 0
 509 394 458 464 374 464 c 0
 262 464 171 358 171 214 c 0
 171 112 224 46 308 46 c 0
EndSplineSet
Validated: 1
EndChar

StartChar: oe
Encoding: 339 339 215
Width: 600
GlyphClass: 2
Flags: W
HStem: -12 56<147.29 251.549 421.589 548.962> 240 49<394 586.9> 463 59<201.254 306.987 471.258 573.201>
VStem: 45 67<83.5391 336.278> 341 43<174.209 240> 590 59<290.263 447.068>
LayerCount: 2
Fore
SplineSet
184 -12 m 0
 100 -12 45 64 45 192 c 0
 45 394 150 522 268 522 c 0
 331 522 372 474 386 390 c 1
 425 472 476 522 542 522 c 0
 614 522 649 446 649 350 c 0
 649 276 639 262 632 240 c 1
 388 240 l 1
 386 221 384 202 384 185 c 0
 384 100 414 44 477 44 c 0
 513 44 540 59 570 78 c 1
 588 32 l 1
 554 10 513 -12 466 -12 c 0
 401 -12 358 32 342 114 c 1
 302 32 246 -12 184 -12 c 0
394 289 m 1
 584 289 l 1
 588 315 590 339 590 362 c 0
 590 422 574 466 528 466 c 0
 464 466 419 395 394 289 c 1
196 44 m 0
 276 44 341 166 341 313 c 0
 341 403 313 463 262 463 c 0
 168 463 112 337 112 193 c 0
 112 106 139 44 196 44 c 0
EndSplineSet
Validated: 1
EndChar

StartChar: p
Encoding: 112 112 216
Width: 600
GlyphClass: 2
Flags: W
HStem: -205 21G<65 141.5> -12 58<241.192 391.056> 462 60<326.619 462.693> 490 20G<174.839 236>
VStem: 178 58<465.708 510> 512 74<190.424 409.62>
LayerCount: 2
Fore
SplineSet
65 -205 m 1xec
 178 510 l 1
 236 510 l 1xdc
 231 442 l 1
 234 442 l 1
 287 488 358 522 419 522 c 0
 530 522 586 444 586 322 c 0
 586 112 448 -12 314 -12 c 0
 269 -12 212 13 174 56 c 1
 162 -32 148 -118 135 -205 c 1
 65 -205 l 1xec
312 46 m 0
 420 46 512 154 512 312 c 0
 512 401 477 462 393 462 c 0xec
 348 462 289 435 226 379 c 1
 185 114 l 1
 227 66 278 46 312 46 c 0
EndSplineSet
Validated: 1
EndChar

StartChar: thorn
Encoding: 254 254 217
Width: 600
GlyphClass: 2
Flags: W
HStem: -209 21G<64 141> -12 58<240.821 389.977> 462 60<326.897 461.33> 640 20G<198.824 272>
VStem: 512 72<189.109 408.811>
LayerCount: 2
Fore
SplineSet
64 -209 m 1
 202 660 l 1
 272 660 l 1
 252 534 l 1
 234 440 l 1
 291 490 359 522 417 522 c 0
 528 522 584 443 584 319 c 0
 584 111 445 -12 314 -12 c 0
 266 -12 214 14 176 56 c 1
 162 -32 148 -121 134 -209 c 1
 64 -209 l 1
312 46 m 0
 418 46 512 152 512 312 c 0
 512 401 476 462 392 462 c 0
 346 462 289 435 226 379 c 1
 185 114 l 1
 227 66 276 46 312 46 c 0
EndSplineSet
Validated: 1
EndChar

StartChar: q
Encoding: 113 113 218
Width: 600
GlyphClass: 2
Flags: W
HStem: -205 21G<402 475.133> -12 58<226.563 357.916> 462 60<292.692 446.38> 490 20G<522.483 584>
VStem: 96 75<107.399 318.984> 528 56<484.625 510>
LayerCount: 2
Fore
SplineSet
402 -205 m 1xdc
 430 -26 l 1
 448 70 l 1
 398 26 333 -12 272 -12 c 0
 162 -12 96 63 96 196 c 0
 96 397 236 522 368 522 c 0xec
 428 522 470 496 510 452 c 1
 512 452 l 1
 528 510 l 1
 584 510 l 1
 472 -205 l 1
 402 -205 l 1xdc
294 46 m 0
 344 46 400 75 454 131 c 1
 496 396 l 1
 456 444 414 462 370 462 c 0
 268 462 171 356 171 208 c 0
 171 110 214 46 294 46 c 0
EndSplineSet
Validated: 1
EndChar

StartChar: r
Encoding: 114 114 219
Width: 600
GlyphClass: 2
Flags: W
HStem: 0 21G<152 225.127> 458 64<421.709 595.754> 490 20G<228.863 291>
LayerCount: 2
Fore
SplineSet
152 0 m 1xc0
 232 510 l 1
 291 510 l 1xa0
 276 386 l 1
 280 386 l 1
 344 468 430 522 522 522 c 0
 556 522 587 517 614 501 c 1
 588 440 l 1
 556 454 538 458 500 458 c 0
 424 458 348 417 270 307 c 1
 222 0 l 1
 152 0 l 1xc0
EndSplineSet
Validated: 1
EndChar

StartChar: racute
Encoding: 341 341 220
Width: 600
GlyphClass: 2
Flags: W
HStem: 0 21G<152 225.127> 458 64<421.709 595.754> 490 20G<228.863 291> 698 20G<404.276 498>
LayerCount: 2
Fore
SplineSet
306 573 m 1x90
 420 718 l 1
 498 718 l 1
 362 573 l 1
 306 573 l 1x90
152 0 m 1
 232 510 l 1
 291 510 l 1xb0
 276 386 l 1
 280 386 l 1
 344 468 430 522 522 522 c 0
 556 522 587 517 614 501 c 1
 588 440 l 1
 556 454 538 458 500 458 c 0xd0
 424 458 348 417 270 307 c 1
 222 0 l 1
 152 0 l 1
EndSplineSet
Validated: 1
EndChar

StartChar: rcaron
Encoding: 345 345 221
Width: 600
GlyphClass: 2
Flags: W
HStem: 0 21G<152 225.127> 458 64<421.709 595.754> 490 20G<228.863 291> 698 20G<287 352.8 468 540>
LayerCount: 2
Fore
SplineSet
361 573 m 1x90
 287 718 l 1
 342 718 l 1
 396 618 l 1
 400 618 l 1
 485 718 l 1
 540 718 l 1
 421 573 l 1
 361 573 l 1x90
152 0 m 1
 232 510 l 1
 291 510 l 1xb0
 276 386 l 1
 280 386 l 1
 344 468 430 522 522 522 c 0
 556 522 587 517 614 501 c 1
 588 440 l 1
 556 454 538 458 500 458 c 0xd0
 424 458 348 417 270 307 c 1
 222 0 l 1
 152 0 l 1
EndSplineSet
Validated: 1
EndChar

StartChar: s
Encoding: 115 115 222
Width: 600
GlyphClass: 2
Flags: W
HStem: -12 56<203.169 420.99> 466 56<274.976 473.38>
VStem: 162 74<338.391 431.046> 474 73<88.4336 184.267>
LayerCount: 2
Fore
SplineSet
310 -12 m 0
 214 -12 138 24 87 67 c 1
 128 114 l 1
 176 71 231 44 322 44 c 0
 421 44 474 88 474 140 c 0
 474 178 439 209 327 238 c 0
 235 262 162 306 162 370 c 0
 162 450 240 522 386 522 c 0
 456 522 525 493 567 459 c 1
 524 412 l 1
 486 444 438 466 376 466 c 0
 266 466 236 420 236 378 c 0
 236 338 290 311 373 288 c 0
 492 255 547 217 547 153 c 0
 547 65 457 -12 310 -12 c 0
EndSplineSet
Validated: 1
EndChar

StartChar: sacute
Encoding: 347 347 223
Width: 600
GlyphClass: 2
Flags: W
HStem: -12 56<203.169 420.99> 466 56<274.976 473.38> 698 20G<406.414 500>
VStem: 162 74<338.391 431.046> 474 73<88.4336 184.267>
LayerCount: 2
Fore
SplineSet
309 573 m 1
 422 718 l 1
 500 718 l 1
 364 573 l 1
 309 573 l 1
310 -12 m 0
 214 -12 138 24 87 67 c 1
 128 114 l 1
 176 71 231 44 322 44 c 0
 421 44 474 88 474 140 c 0
 474 178 439 209 327 238 c 0
 235 262 162 306 162 370 c 0
 162 450 240 522 386 522 c 0
 456 522 525 493 567 459 c 1
 524 412 l 1
 486 444 438 466 376 466 c 0
 266 466 236 420 236 378 c 0
 236 338 290 311 373 288 c 0
 492 255 547 217 547 153 c 0
 547 65 457 -12 310 -12 c 0
EndSplineSet
Validated: 1
EndChar

StartChar: scaron
Encoding: 353 353 224
Width: 600
GlyphClass: 2
Flags: W
HStem: -12 56<203.169 420.99> 466 56<274.976 473.38> 698 20G<290 355 471 542>
VStem: 162 74<338.391 431.046> 474 73<88.4336 184.267>
LayerCount: 2
Fore
SplineSet
364 573 m 1
 290 718 l 1
 344 718 l 1
 399 618 l 1
 403 618 l 1
 488 718 l 1
 542 718 l 1
 424 573 l 1
 364 573 l 1
310 -12 m 0
 214 -12 138 24 87 67 c 1
 128 114 l 1
 176 71 231 44 322 44 c 0
 421 44 474 88 474 140 c 0
 474 178 439 209 327 238 c 0
 235 262 162 306 162 370 c 0
 162 450 240 522 386 522 c 0
 456 522 525 493 567 459 c 1
 524 412 l 1
 486 444 438 466 376 466 c 0
 266 466 236 420 236 378 c 0
 236 338 290 311 373 288 c 0
 492 255 547 217 547 153 c 0
 547 65 457 -12 310 -12 c 0
EndSplineSet
Validated: 1
EndChar

StartChar: scedilla
Encoding: 351 351 225
Width: 600
GlyphClass: 2
Flags: W
HStem: -212 38<201 271.049> -12 56<330 420.859> 466 56<274.976 473.38>
VStem: 162 74<338.391 431.046> 298 56<-152.663 -87.8616> 474 73<87.7179 184.267>
LayerCount: 2
Fore
SplineSet
373 288 m 0
 492 255 547 217 547 153 c 0
 547 68 465 -6 330 -12 c 1
 306 -52 l 1
 334 -62 354 -78 354 -111 c 0
 354 -175 279 -204 201 -212 c 1
 200 -174 l 1
 257 -166 298 -152 298 -120 c 0
 298 -96 276 -83 240 -75 c 1
 282 -12 l 1
 199 -6 133 29 87 67 c 1
 128 114 l 1
 176 71 231 44 322 44 c 0
 421 44 474 88 474 140 c 0
 474 178 439 209 327 238 c 0
 235 262 162 306 162 370 c 0
 162 450 240 522 386 522 c 0
 456 522 525 493 567 459 c 1
 524 412 l 1
 486 444 438 466 376 466 c 0
 266 466 236 420 236 378 c 0
 236 338 290 311 373 288 c 0
EndSplineSet
Validated: 1
EndChar

StartChar: scircumflex
Encoding: 349 349 226
Width: 600
GlyphClass: 2
Flags: W
HStem: -12 56<203.169 420.99> 466 56<274.976 473.38> 698 20G<369.586 456.207>
VStem: 162 74<338.391 431.046> 474 73<88.4336 184.267>
LayerCount: 2
Fore
SplineSet
267 573 m 1
 386 718 l 1
 446 718 l 1
 520 573 l 1
 465 573 l 1
 410 672 l 1
 406 672 l 1
 322 573 l 1
 267 573 l 1
310 -12 m 0
 214 -12 138 24 87 67 c 1
 128 114 l 1
 176 71 231 44 322 44 c 0
 421 44 474 88 474 140 c 0
 474 178 439 209 327 238 c 0
 235 262 162 306 162 370 c 0
 162 450 240 522 386 522 c 0
 456 522 525 493 567 459 c 1
 524 412 l 1
 486 444 438 466 376 466 c 0
 266 466 236 420 236 378 c 0
 236 338 290 311 373 288 c 0
 492 255 547 217 547 153 c 0
 547 65 457 -12 310 -12 c 0
EndSplineSet
Validated: 1
EndChar

StartChar: uni1E61
Encoding: 7777 7777 227
Width: 600
GlyphClass: 2
Flags: W
HStem: -12 56<203.169 420.99> 466 56<274.976 473.38> 631 129<369.793 455.546>
VStem: 162 74<338.391 431.046> 348 130<654.248 738.265> 474 73<88.4336 184.267>
LayerCount: 2
Fore
SplineSet
402 631 m 0xf8
 370 631 348 654 348 686 c 0
 348 730 383 760 423 760 c 0
 455 760 478 738 478 704 c 0
 478 662 441 631 402 631 c 0xf8
310 -12 m 0
 214 -12 138 24 87 67 c 1
 128 114 l 1
 176 71 231 44 322 44 c 0
 421 44 474 88 474 140 c 0
 474 178 439 209 327 238 c 0
 235 262 162 306 162 370 c 0
 162 450 240 522 386 522 c 0
 456 522 525 493 567 459 c 1
 524 412 l 1
 486 444 438 466 376 466 c 0
 266 466 236 420 236 378 c 0
 236 338 290 311 373 288 c 0
 492 255 547 217 547 153 c 0xf4
 547 65 457 -12 310 -12 c 0
EndSplineSet
Validated: 1
EndChar

StartChar: germandbls
Encoding: 223 223 228
Width: 600
GlyphClass: 2
Flags: W
HStem: -12 56<330.206 475.407> 0 21G<93 166.15> 695 58<321.128 455.163>
VStem: 342 72<330.132 432.742> 476 70<542.914 673.39> 518 70<85.8938 204.46>
LayerCount: 2
Fore
SplineSet
400 -12 m 0xb4
 344 -12 299 6 263 36 c 1
 301 87 l 1
 333 59 366 44 407 44 c 0
 476 44 518 94 518 148 c 0xb4
 518 258 342 245 342 359 c 0
 342 477 476 502 476 614 c 0
 476 660 450 695 398 695 c 0
 322 695 266 651 246 527 c 2
 163 0 l 1
 93 0 l 1
 179 540 l 2
 199 670 289 753 409 753 c 0
 499 753 546 694 546 624 c 0x78
 546 493 414 464 414 374 c 0
 414 290 588 303 588 163 c 0
 588 65 506 -12 400 -12 c 0xb4
EndSplineSet
Validated: 1
EndChar

StartChar: t
Encoding: 116 116 229
Width: 600
GlyphClass: 2
Flags: W
HStem: -12 58<335.306 523.567> 452 58<154 284 363 598>
VStem: 237 70<76.1562 232.413>
LayerCount: 2
Fore
SplineSet
392 -12 m 0
 278 -12 237 44 237 133 c 0
 237 152 238 172 242 194 c 2
 284 452 l 1
 144 452 l 1
 154 510 l 1
 296 510 l 1
 320 660 l 1
 394 708 l 1
 363 510 l 1
 608 510 l 1
 598 452 l 1
 353 452 l 1
 312 193 l 1
 309 175 307 158 307 143 c 0
 307 80 337 46 416 46 c 0
 464 46 503 55 540 70 c 1
 548 18 l 1
 501 0 443 -12 392 -12 c 0
EndSplineSet
Validated: 1
EndChar

StartChar: tcaron
Encoding: 357 357 230
Width: 600
GlyphClass: 2
Flags: W
HStem: -12 58<335.306 523.567> 452 58<154 284 363 598>
VStem: 237 70<76.1562 232.413> 488 36<577 607.211>
LayerCount: 2
Fore
SplineSet
488 577 m 1
 520 798 l 1
 572 798 l 1
 562 741 l 1
 524 577 l 1
 488 577 l 1
392 -12 m 0
 278 -12 237 44 237 133 c 0
 237 152 238 172 242 194 c 2
 284 452 l 1
 144 452 l 1
 154 510 l 1
 296 510 l 1
 320 660 l 1
 394 708 l 1
 363 510 l 1
 608 510 l 1
 598 452 l 1
 353 452 l 1
 312 193 l 1
 309 175 307 158 307 143 c 0
 307 80 337 46 416 46 c 0
 464 46 503 55 540 70 c 1
 548 18 l 1
 501 0 443 -12 392 -12 c 0
EndSplineSet
Validated: 1
EndChar

StartChar: uni0163
Encoding: 355 355 231
Width: 600
GlyphClass: 2
Flags: W
HStem: -212 38<236 306.281> -12 58<366 522.882> 452 58<154 284 363 598>
VStem: 237 70<74.5795 296.5> 333 57<-152.663 -87.8616>
LayerCount: 2
Fore
SplineSet
353 452 m 1
 312 193 l 1
 309 175 307 158 307 143 c 0
 307 80 337 46 416 46 c 0
 464 46 503 55 540 70 c 1
 548 18 l 1
 501 0 443 -12 392 -12 c 0
 383 -12 374 -13 366 -12 c 1
 341 -52 l 1
 369 -62 390 -78 390 -111 c 0
 390 -175 314 -204 236 -212 c 1
 236 -174 l 1
 292 -166 333 -152 333 -120 c 0
 333 -96 312 -83 276 -75 c 1
 324 -4 l 1
 261 16 237 65 237 133 c 0
 237 152 239 172 242 194 c 2
 284 452 l 1
 144 452 l 1
 154 510 l 1
 296 510 l 1
 320 660 l 1
 394 708 l 1
 363 510 l 1
 608 510 l 1
 598 452 l 1
 353 452 l 1
EndSplineSet
Validated: 1
EndChar

StartChar: uni1E97
Encoding: 7831 7831 232
Width: 600
GlyphClass: 2
Flags: W
HStem: -12 58<335.306 523.567> 452 58<154 284 363 598> 698 101<221.422 295.609 409.255 483.068>
VStem: 208 102<712.351 785.745> 237 70<76.1562 232.413> 396 100<710.849 785.745>
LayerCount: 2
Fore
SplineSet
250 698 m 0xf4
 224 698 208 716 208 741 c 0
 208 773 234 799 268 799 c 0
 292 799 310 781 310 756 c 0
 310 724 281 698 250 698 c 0xf4
438 698 m 0
 412 698 396 716 396 741 c 0
 396 773 422 799 454 799 c 0
 480 799 496 781 496 756 c 0
 496 724 471 698 438 698 c 0
392 -12 m 0
 278 -12 237 44 237 133 c 0
 237 152 238 172 242 194 c 2
 284 452 l 1
 144 452 l 1
 154 510 l 1
 296 510 l 1
 320 660 l 1
 394 708 l 1
 363 510 l 1
 608 510 l 1
 598 452 l 1
 353 452 l 1
 312 193 l 1
 309 175 307 158 307 143 c 0xec
 307 80 337 46 416 46 c 0
 464 46 503 55 540 70 c 1
 548 18 l 1
 501 0 443 -12 392 -12 c 0
EndSplineSet
Validated: 1
EndChar

StartChar: u
Encoding: 117 117 233
Width: 600
GlyphClass: 2
Flags: W
HStem: -12 60<205.347 339.153> 0 21G<444 505.137> 490 20G<157.855 230 508.872 582>
VStem: 105 72<77.5364 231.75> 444 58<0 44.625>
LayerCount: 2
Fore
SplineSet
248 -12 m 0xb8
 151 -12 105 35 105 129 c 0
 105 148 107 169 111 192 c 2
 161 510 l 1
 230 510 l 1
 182 202 l 2
 179 183 177 165 177 149 c 0
 177 81 208 48 278 48 c 0xb8
 338 48 386 81 456 152 c 1
 512 510 l 1
 582 510 l 1
 502 0 l 1
 444 0 l 1x78
 452 93 l 1
 448 93 l 1
 389 31 324 -12 248 -12 c 0xb8
EndSplineSet
Validated: 1
EndChar

StartChar: uacute
Encoding: 250 250 234
Width: 600
GlyphClass: 2
Flags: W
HStem: -12 60<205.347 339.153> 0 21G<444 505.137> 490 20G<157.855 230 508.872 582> 698 20G<404.276 498>
VStem: 105 72<77.5364 231.75> 444 58<0 44.625>
LayerCount: 2
Fore
SplineSet
306 573 m 1x3c
 420 718 l 1
 498 718 l 1
 362 573 l 1
 306 573 l 1x3c
248 -12 m 0xbc
 151 -12 105 35 105 129 c 0
 105 148 107 169 111 192 c 2
 161 510 l 1
 230 510 l 1
 182 202 l 2
 179 183 177 165 177 149 c 0
 177 81 208 48 278 48 c 0xbc
 338 48 386 81 456 152 c 1
 512 510 l 1
 582 510 l 1
 502 0 l 1
 444 0 l 1x7c
 452 93 l 1
 448 93 l 1
 389 31 324 -12 248 -12 c 0xbc
EndSplineSet
Validated: 1
EndChar

StartChar: ubreve
Encoding: 365 365 235
Width: 600
GlyphClass: 2
Flags: W
HStem: -12 60<205.347 339.153> 0 21G<444 505.137> 490 20G<157.855 230 508.872 582> 575 45<349.085 453.784>
VStem: 105 72<77.5364 231.75> 284 46<640.374 705> 444 58<0 44.625> 493 45<662.195 705>
LayerCount: 2
Fore
SplineSet
391 575 m 0x3d
 311 575 284 636 284 693 c 0
 284 697 284 701 284 705 c 1
 330 705 l 1
 330 662 348 620 398 620 c 0
 449 620 479 662 493 705 c 1
 538 705 l 1
 523 645 477 575 391 575 c 0x3d
248 -12 m 0xbe
 151 -12 105 35 105 129 c 0
 105 148 107 169 111 192 c 2
 161 510 l 1
 230 510 l 1
 182 202 l 2
 179 183 177 165 177 149 c 0
 177 81 208 48 278 48 c 0xbe
 338 48 386 81 456 152 c 1
 512 510 l 1
 582 510 l 1
 502 0 l 1
 444 0 l 1x7e
 452 93 l 1
 448 93 l 1
 389 31 324 -12 248 -12 c 0xbe
EndSplineSet
Validated: 1
EndChar

StartChar: uni01D4
Encoding: 468 468 236
Width: 600
GlyphClass: 2
Flags: W
HStem: -12 60<205.347 339.153> 0 21G<444 505.137> 490 20G<157.855 230 508.872 582> 698 20G<287 352.8 468 540>
VStem: 105 72<77.5364 231.75> 444 58<0 44.625>
LayerCount: 2
Fore
SplineSet
361 573 m 1x3c
 287 718 l 1
 342 718 l 1
 396 618 l 1
 400 618 l 1
 485 718 l 1
 540 718 l 1
 421 573 l 1
 361 573 l 1x3c
248 -12 m 0xbc
 151 -12 105 35 105 129 c 0
 105 148 107 169 111 192 c 2
 161 510 l 1
 230 510 l 1
 182 202 l 2
 179 183 177 165 177 149 c 0
 177 81 208 48 278 48 c 0xbc
 338 48 386 81 456 152 c 1
 512 510 l 1
 582 510 l 1
 502 0 l 1
 444 0 l 1x7c
 452 93 l 1
 448 93 l 1
 389 31 324 -12 248 -12 c 0xbc
EndSplineSet
Validated: 1
EndChar

StartChar: ucircumflex
Encoding: 251 251 237
Width: 600
GlyphClass: 2
Flags: W
HStem: -12 60<205.347 339.153> 0 21G<444 505.137> 490 20G<157.855 230 508.872 582> 698 20G<367.448 454.207>
VStem: 105 72<77.5364 231.75> 444 58<0 44.625>
LayerCount: 2
Fore
SplineSet
264 573 m 1x3c
 384 718 l 1
 444 718 l 1
 518 573 l 1
 462 573 l 1
 408 672 l 1
 404 672 l 1
 320 573 l 1
 264 573 l 1x3c
248 -12 m 0xbc
 151 -12 105 35 105 129 c 0
 105 148 107 169 111 192 c 2
 161 510 l 1
 230 510 l 1
 182 202 l 2
 179 183 177 165 177 149 c 0
 177 81 208 48 278 48 c 0xbc
 338 48 386 81 456 152 c 1
 512 510 l 1
 582 510 l 1
 502 0 l 1
 444 0 l 1x7c
 452 93 l 1
 448 93 l 1
 389 31 324 -12 248 -12 c 0xbc
EndSplineSet
Validated: 1
EndChar

StartChar: udieresis
Encoding: 252 252 238
Width: 600
GlyphClass: 2
Flags: W
HStem: -12 60<205.347 339.153> 0 21G<444 505.137> 490 20G<157.855 230 508.872 582> 591 101<270.932 344.692 458.662 532.984>
VStem: 105 72<77.5364 231.75> 258 101<605.351 679.151> 444 58<0 44.625> 445 101<603.849 678.409>
LayerCount: 2
Fore
SplineSet
300 591 m 0x3c
 274 591 258 609 258 634 c 0
 258 666 283 692 316 692 c 0
 340 692 359 674 359 649 c 0
 359 617 330 591 300 591 c 0x3c
487 591 m 0
 461 591 445 609 445 634 c 0
 445 666 472 692 504 692 c 0
 529 692 546 674 546 649 c 0x3d
 546 617 521 591 487 591 c 0
248 -12 m 0xbe
 151 -12 105 35 105 129 c 0
 105 148 107 169 111 192 c 2
 161 510 l 1
 230 510 l 1
 182 202 l 2
 179 183 177 165 177 149 c 0
 177 81 208 48 278 48 c 0xbe
 338 48 386 81 456 152 c 1
 512 510 l 1
 582 510 l 1
 502 0 l 1
 444 0 l 1x7e
 452 93 l 1
 448 93 l 1
 389 31 324 -12 248 -12 c 0xbe
EndSplineSet
Validated: 1
EndChar

StartChar: ugrave
Encoding: 249 249 239
Width: 600
GlyphClass: 2
Flags: W
HStem: -12 60<205.347 339.153> 0 21G<444 505.137> 490 20G<157.855 230 508.872 582> 698 20G<329 417.379>
VStem: 105 72<77.5364 231.75> 444 58<0 44.625>
LayerCount: 2
Fore
SplineSet
421 573 m 1x3c
 329 718 l 1
 408 718 l 1
 476 573 l 1
 421 573 l 1x3c
248 -12 m 0xbc
 151 -12 105 35 105 129 c 0
 105 148 107 169 111 192 c 2
 161 510 l 1
 230 510 l 1
 182 202 l 2
 179 183 177 165 177 149 c 0
 177 81 208 48 278 48 c 0xbc
 338 48 386 81 456 152 c 1
 512 510 l 1
 582 510 l 1
 502 0 l 1
 444 0 l 1x7c
 452 93 l 1
 448 93 l 1
 389 31 324 -12 248 -12 c 0xbc
EndSplineSet
Validated: 1
EndChar

StartChar: uhungarumlaut
Encoding: 369 369 240
Width: 600
GlyphClass: 2
Flags: W
HStem: -12 60<205.347 339.153> 0 21G<444 505.137> 490 20G<157.855 230 508.872 582>
VStem: 105 72<77.5364 231.75> 444 58<0 44.625>
LayerCount: 2
Fore
SplineSet
251 570 m 1x38
 344 712 l 1
 409 712 l 1
 300 570 l 1
 251 570 l 1x38
394 570 m 1
 488 712 l 1
 552 712 l 1
 442 570 l 1
 394 570 l 1
248 -12 m 0xb8
 151 -12 105 35 105 129 c 0
 105 148 107 169 111 192 c 2
 161 510 l 1
 230 510 l 1
 182 202 l 2
 179 183 177 165 177 149 c 0
 177 81 208 48 278 48 c 0xb8
 338 48 386 81 456 152 c 1
 512 510 l 1
 582 510 l 1
 502 0 l 1
 444 0 l 1x78
 452 93 l 1
 448 93 l 1
 389 31 324 -12 248 -12 c 0xb8
EndSplineSet
Validated: 1
EndChar

StartChar: umacron
Encoding: 363 363 241
Width: 600
GlyphClass: 2
Flags: W
HStem: -12 60<205.347 339.153> 0 21G<444 505.137> 490 20G<157.855 230 508.872 582> 602 51<283 516>
VStem: 105 72<77.5364 231.75> 444 58<0 44.625>
LayerCount: 2
Fore
SplineSet
275 602 m 1x3c
 283 653 l 1
 524 653 l 1
 516 602 l 1
 275 602 l 1x3c
248 -12 m 0xbc
 151 -12 105 35 105 129 c 0
 105 148 107 169 111 192 c 2
 161 510 l 1
 230 510 l 1
 182 202 l 2
 179 183 177 165 177 149 c 0
 177 81 208 48 278 48 c 0xbc
 338 48 386 81 456 152 c 1
 512 510 l 1
 582 510 l 1
 502 0 l 1
 444 0 l 1x7c
 452 93 l 1
 448 93 l 1
 389 31 324 -12 248 -12 c 0xbc
EndSplineSet
Validated: 1
EndChar

StartChar: uogonek
Encoding: 371 371 242
Width: 600
GlyphClass: 2
Flags: W
HStem: -206 50<417.865 500.668> 25 52<243.197 363.547> 490 20G<193.698 202.523 546.265 553.059>
VStem: 130 68<131.696 388.172> 357 57<-152.245 -75.6765>
LayerCount: 2
Fore
SplineSet
454 -156 m 0
 470 -156 485 -151 497 -143 c 1
 512 -180 l 1
 492 -194 456 -206 432 -206 c 0
 390 -206 357 -181 357 -136 c 0
 357 -79 404 -30 446 0 c 1
 447 31 449 62 450 93 c 1
 421 63 388 42 350 42 c 1
 319 31 293 25 270 25 c 0
 227 25 198 46 180 90 c 1
 141 90 130 177 130 255 c 0
 130 293 132 329 136 351 c 1
 202 510 l 1
 206 357 l 1
 202 335 198 287 198 241 c 0
 198 184 205 129 227 129 c 1
 239 95 257 77 289 77 c 0
 308 77 332 83 361 96 c 1
 393 96 447 291 484 329 c 1
 554 510 l 1
 542 255 l 1
 497 0 l 1
 471 -18 460 -35 460 -55 c 1
 432 -86 414 -76 414 -117 c 0
 414 -143 432 -156 454 -156 c 0
EndSplineSet
Validated: 1
EndChar

StartChar: uring
Encoding: 367 367 243
Width: 600
GlyphClass: 2
Flags: W
HStem: -12 60<205.347 339.153> 0 21G<444 505.137> 490 20G<157.855 230 508.872 582> 541 33<359.537 428.958> 688 34<370.459 442.06>
VStem: 105 72<77.5364 231.75> 310 40<580.673 671.326> 444 58<0 44.625> 450 41<591.556 682.529>
LayerCount: 2
Fore
SplineSet
386 541 m 0x3e80
 340 541 310 571 310 618 c 0
 310 678 356 722 414 722 c 0
 460 722 491 692 491 646 c 0
 491 584 443 541 386 541 c 0x3e80
392 574 m 0
 422 574 450 603 450 642 c 0
 450 671 433 688 409 688 c 0
 378 688 350 661 350 622 c 0
 350 593 367 574 392 574 c 0
248 -12 m 0xbf
 151 -12 105 35 105 129 c 0
 105 148 107 169 111 192 c 2
 161 510 l 1
 230 510 l 1
 182 202 l 2
 179 183 177 165 177 149 c 0
 177 81 208 48 278 48 c 0xbf
 338 48 386 81 456 152 c 1
 512 510 l 1
 582 510 l 1
 502 0 l 1
 444 0 l 1x7f
 452 93 l 1
 448 93 l 1
 389 31 324 -12 248 -12 c 0xbf
EndSplineSet
Validated: 1
EndChar

StartChar: utilde
Encoding: 361 361 244
Width: 600
GlyphClass: 2
Flags: W
HStem: -12 60<205.347 339.153> 0 21G<444 505.137> 490 20G<157.855 230 508.872 582> 580 48<415.794 487.325> 635 47<312.951 383.425>
VStem: 105 72<77.5364 231.75> 444 58<0 44.625>
LayerCount: 2
Fore
SplineSet
256 580 m 1x3e
 272 636 302 682 354 682 c 0
 402 682 421 628 454 628 c 0
 475 628 491 646 503 682 c 1
 544 682 l 1
 529 626 498 580 446 580 c 0
 398 580 379 635 345 635 c 0
 324 635 310 616 298 580 c 1
 256 580 l 1x3e
248 -12 m 0xbe
 151 -12 105 35 105 129 c 0
 105 148 107 169 111 192 c 2
 161 510 l 1
 230 510 l 1
 182 202 l 2
 179 183 177 165 177 149 c 0
 177 81 208 48 278 48 c 0xbe
 338 48 386 81 456 152 c 1
 512 510 l 1
 582 510 l 1
 502 0 l 1
 444 0 l 1x7e
 452 93 l 1
 448 93 l 1
 389 31 324 -12 248 -12 c 0xbe
EndSplineSet
Validated: 1
EndChar

StartChar: v
Encoding: 118 118 245
Width: 600
GlyphClass: 2
Flags: W
HStem: 0 60<305.367 325.396> 490 20G<136 210.768 547.94 626>
LayerCount: 2
Fore
SplineSet
263 0 m 1
 136 510 l 1
 206 510 l 1
 278 208 l 2
 291 157 300 106 310 60 c 1
 314 60 l 1
 338 106 364 157 392 208 c 2
 559 510 l 1
 626 510 l 1
 340 0 l 1
 263 0 l 1
EndSplineSet
Validated: 1
EndChar

StartChar: w
Encoding: 119 119 246
Width: 600
GlyphClass: 2
Flags: W
HStem: 0 61<181 193.241 440 451.776> 490 20G<90 162.968 597.774 672>
VStem: 90 72<401.818 510> 375 65<250.526 290.312>
LayerCount: 2
Fore
SplineSet
123 0 m 1
 90 510 l 1
 162 510 l 1
 177 200 l 2
 179 161 181 123 181 85 c 0
 181 77 181 69 181 61 c 1
 185 61 l 1
 203 107 218 153 236 200 c 2
 348 489 l 1
 412 489 l 1
 431 200 l 2
 435 152 438 107 440 61 c 1
 444 61 l 1
 461 107 475 152 493 200 c 2
 605 510 l 1
 672 510 l 1
 480 0 l 1
 394 0 l 1
 375 280 l 1
 373 328 373 377 370 427 c 1
 366 427 l 1
 350 382 335 336 314 280 c 2
 208 0 l 1
 123 0 l 1
EndSplineSet
Validated: 1
EndChar

StartChar: wacute
Encoding: 7811 7811 247
Width: 600
GlyphClass: 2
Flags: W
HStem: 0 61<181 193.241 440 451.776> 490 20G<90 162.968 597.774 672> 698 20G<404.276 498>
VStem: 90 72<401.818 510> 375 65<250.526 290.312>
LayerCount: 2
Fore
SplineSet
306 573 m 1
 420 718 l 1
 498 718 l 1
 362 573 l 1
 306 573 l 1
123 0 m 1
 90 510 l 1
 162 510 l 1
 177 200 l 2
 179 161 181 123 181 85 c 0
 181 77 181 69 181 61 c 1
 185 61 l 1
 203 107 218 153 236 200 c 2
 348 489 l 1
 412 489 l 1
 431 200 l 2
 435 152 438 107 440 61 c 1
 444 61 l 1
 461 107 475 152 493 200 c 2
 605 510 l 1
 672 510 l 1
 480 0 l 1
 394 0 l 1
 375 280 l 1
 373 328 373 377 370 427 c 1
 366 427 l 1
 350 382 335 336 314 280 c 2
 208 0 l 1
 123 0 l 1
EndSplineSet
Validated: 1
EndChar

StartChar: wcircumflex
Encoding: 373 373 248
Width: 600
GlyphClass: 2
Flags: W
HStem: 0 61<181 193.241 440 451.776> 490 20G<90 162.968 597.774 672> 698 20G<367.448 454.207>
VStem: 90 72<401.818 510> 375 65<250.526 290.312>
LayerCount: 2
Fore
SplineSet
264 573 m 1
 384 718 l 1
 444 718 l 1
 518 573 l 1
 462 573 l 1
 408 672 l 1
 404 672 l 1
 320 573 l 1
 264 573 l 1
123 0 m 1
 90 510 l 1
 162 510 l 1
 177 200 l 2
 179 161 181 123 181 85 c 0
 181 77 181 69 181 61 c 1
 185 61 l 1
 203 107 218 153 236 200 c 2
 348 489 l 1
 412 489 l 1
 431 200 l 2
 435 152 438 107 440 61 c 1
 444 61 l 1
 461 107 475 152 493 200 c 2
 605 510 l 1
 672 510 l 1
 480 0 l 1
 394 0 l 1
 375 280 l 1
 373 328 373 377 370 427 c 1
 366 427 l 1
 350 382 335 336 314 280 c 2
 208 0 l 1
 123 0 l 1
EndSplineSet
Validated: 1
EndChar

StartChar: wdieresis
Encoding: 7813 7813 249
Width: 600
GlyphClass: 2
Flags: W
HStem: 0 61<181 193.241 440 451.776> 490 20G<90 162.968 597.774 672> 591 101<270.932 344.692 458.662 532.984>
VStem: 90 72<401.818 510> 258 101<605.351 679.151> 375 65<250.526 290.312> 445 101<603.849 678.409>
LayerCount: 2
Fore
SplineSet
300 591 m 0
 274 591 258 609 258 634 c 0
 258 666 283 692 316 692 c 0
 340 692 359 674 359 649 c 0
 359 617 330 591 300 591 c 0
487 591 m 0
 461 591 445 609 445 634 c 0
 445 666 472 692 504 692 c 0
 529 692 546 674 546 649 c 0
 546 617 521 591 487 591 c 0
123 0 m 1
 90 510 l 1
 162 510 l 1
 177 200 l 2
 179 161 181 123 181 85 c 0
 181 77 181 69 181 61 c 1
 185 61 l 1
 203 107 218 153 236 200 c 2
 348 489 l 1
 412 489 l 1
 431 200 l 2
 435 152 438 107 440 61 c 1
 444 61 l 1
 461 107 475 152 493 200 c 2
 605 510 l 1
 672 510 l 1
 480 0 l 1
 394 0 l 1
 375 280 l 1
 373 328 373 377 370 427 c 1
 366 427 l 1
 350 382 335 336 314 280 c 2
 208 0 l 1
 123 0 l 1
EndSplineSet
Validated: 1
EndChar

StartChar: wgrave
Encoding: 7809 7809 250
Width: 600
GlyphClass: 2
Flags: W
HStem: 0 61<181 193.241 440 451.776> 490 20G<90 162.968 597.774 672> 698 20G<329 417.379>
VStem: 90 72<401.818 510> 375 65<250.526 290.312>
LayerCount: 2
Fore
SplineSet
421 573 m 1
 329 718 l 1
 408 718 l 1
 476 573 l 1
 421 573 l 1
123 0 m 1
 90 510 l 1
 162 510 l 1
 177 200 l 2
 179 161 181 123 181 85 c 0
 181 77 181 69 181 61 c 1
 185 61 l 1
 203 107 218 153 236 200 c 2
 348 489 l 1
 412 489 l 1
 431 200 l 2
 435 152 438 107 440 61 c 1
 444 61 l 1
 461 107 475 152 493 200 c 2
 605 510 l 1
 672 510 l 1
 480 0 l 1
 394 0 l 1
 375 280 l 1
 373 328 373 377 370 427 c 1
 366 427 l 1
 350 382 335 336 314 280 c 2
 208 0 l 1
 123 0 l 1
EndSplineSet
Validated: 1
EndChar

StartChar: x
Encoding: 120 120 251
Width: 600
GlyphClass: 2
Flags: W
HStem: 0 21G<69 160.825 440.889 530> 490 20G<164 253.413 506.419 598>
LayerCount: 2
Fore
SplineSet
69 0 m 1
 298 264 l 1
 164 510 l 1
 243 510 l 1
 306 389 l 1
 318 363 334 332 350 304 c 1
 354 304 l 1
 378 332 403 363 426 393 c 1
 523 510 l 1
 598 510 l 1
 382 260 l 1
 530 0 l 1
 452 0 l 1
 382 126 l 2
 366 156 348 190 332 219 c 1
 328 219 l 1
 302 189 276 158 250 126 c 2
 144 0 l 1
 69 0 l 1
EndSplineSet
Validated: 1
EndChar

StartChar: y
Encoding: 121 121 252
Width: 600
GlyphClass: 2
Flags: W
HStem: -217 59<52.9326 177.379> 490 20G<134 209.217 549.431 628>
VStem: 134 70<485.689 510>
LayerCount: 2
Fore
SplineSet
95 -217 m 0
 73 -217 50 -213 34 -207 c 1
 59 -151 l 1
 71 -155 86 -158 102 -158 c 0
 172 -158 220 -115 262 -40 c 2
 282 -4 l 1
 134 510 l 1
 204 510 l 1
 282 211 l 2
 294 167 309 113 322 65 c 1
 326 65 l 1
 352 113 378 166 402 211 c 2
 560 510 l 1
 628 510 l 1
 324 -46 l 2
 274 -138 202 -217 95 -217 c 0
EndSplineSet
Validated: 1
EndChar

StartChar: yacute
Encoding: 253 253 253
Width: 600
GlyphClass: 2
Flags: W
HStem: -217 59<52.9326 177.379> 490 20G<134 209.217 549.431 628> 698 20G<414.276 508>
VStem: 134 70<485.689 510>
LayerCount: 2
Fore
SplineSet
316 573 m 1
 430 718 l 1
 508 718 l 1
 372 573 l 1
 316 573 l 1
95 -217 m 0
 73 -217 50 -213 34 -207 c 1
 59 -151 l 1
 71 -155 86 -158 102 -158 c 0
 172 -158 220 -115 262 -40 c 2
 282 -4 l 1
 134 510 l 1
 204 510 l 1
 282 211 l 2
 294 167 309 113 322 65 c 1
 326 65 l 1
 352 113 378 166 402 211 c 2
 560 510 l 1
 628 510 l 1
 324 -46 l 2
 274 -138 202 -217 95 -217 c 0
EndSplineSet
Validated: 1
EndChar

StartChar: ycircumflex
Encoding: 375 375 254
Width: 600
GlyphClass: 2
Flags: W
HStem: -217 59<52.9326 177.379> 490 20G<134 209.217 549.431 628> 698 20G<377.448 464.207>
VStem: 134 70<485.689 510>
LayerCount: 2
Fore
SplineSet
274 573 m 1
 394 718 l 1
 454 718 l 1
 528 573 l 1
 472 573 l 1
 418 672 l 1
 414 672 l 1
 330 573 l 1
 274 573 l 1
95 -217 m 0
 73 -217 50 -213 34 -207 c 1
 59 -151 l 1
 71 -155 86 -158 102 -158 c 0
 172 -158 220 -115 262 -40 c 2
 282 -4 l 1
 134 510 l 1
 204 510 l 1
 282 211 l 2
 294 167 309 113 322 65 c 1
 326 65 l 1
 352 113 378 166 402 211 c 2
 560 510 l 1
 628 510 l 1
 324 -46 l 2
 274 -138 202 -217 95 -217 c 0
EndSplineSet
Validated: 1
EndChar

StartChar: ydieresis
Encoding: 255 255 255
Width: 600
GlyphClass: 2
Flags: W
HStem: -217 59<52.9326 177.379> 490 20G<134 209.217 549.431 628> 591 101<280.932 354.692 468.662 542.984>
VStem: 134 70<485.689 510> 268 101<605.351 679.151> 455 101<603.849 678.409>
LayerCount: 2
Fore
SplineSet
310 591 m 0
 284 591 268 609 268 634 c 0
 268 666 293 692 326 692 c 0
 350 692 369 674 369 649 c 0
 369 617 340 591 310 591 c 0
497 591 m 0
 471 591 455 609 455 634 c 0
 455 666 482 692 514 692 c 0
 539 692 556 674 556 649 c 0
 556 617 531 591 497 591 c 0
95 -217 m 0
 73 -217 50 -213 34 -207 c 1
 59 -151 l 1
 71 -155 86 -158 102 -158 c 0
 172 -158 220 -115 262 -40 c 2
 282 -4 l 1
 134 510 l 1
 204 510 l 1
 282 211 l 2
 294 167 309 113 322 65 c 1
 326 65 l 1
 352 113 378 166 402 211 c 2
 560 510 l 1
 628 510 l 1
 324 -46 l 2
 274 -138 202 -217 95 -217 c 0
EndSplineSet
Validated: 1
EndChar

StartChar: uni1E8F
Encoding: 7823 7823 256
Width: 600
GlyphClass: 2
Flags: W
HStem: -217 59<52.9326 177.379> 490 20G<134 209.217 549.431 628> 631 129<376.589 462.884>
VStem: 134 70<485.689 510> 355 131<654.248 737.755>
LayerCount: 2
Fore
SplineSet
410 631 m 0
 378 631 355 654 355 686 c 0
 355 730 391 760 430 760 c 0
 462 760 486 738 486 704 c 0
 486 662 449 631 410 631 c 0
95 -217 m 0
 73 -217 50 -213 34 -207 c 1
 59 -151 l 1
 71 -155 86 -158 102 -158 c 0
 172 -158 220 -115 262 -40 c 2
 282 -4 l 1
 134 510 l 1
 204 510 l 1
 282 211 l 2
 294 167 309 113 322 65 c 1
 326 65 l 1
 352 113 378 166 402 211 c 2
 560 510 l 1
 628 510 l 1
 324 -46 l 2
 274 -138 202 -217 95 -217 c 0
EndSplineSet
Validated: 1
EndChar

StartChar: ygrave
Encoding: 7923 7923 257
Width: 600
GlyphClass: 2
Flags: W
HStem: -217 59<52.9326 177.379> 490 20G<134 209.217 549.431 628> 698 20G<339 427.379>
VStem: 134 70<485.689 510>
LayerCount: 2
Fore
SplineSet
431 573 m 1
 339 718 l 1
 418 718 l 1
 486 573 l 1
 431 573 l 1
95 -217 m 0
 73 -217 50 -213 34 -207 c 1
 59 -151 l 1
 71 -155 86 -158 102 -158 c 0
 172 -158 220 -115 262 -40 c 2
 282 -4 l 1
 134 510 l 1
 204 510 l 1
 282 211 l 2
 294 167 309 113 322 65 c 1
 326 65 l 1
 352 113 378 166 402 211 c 2
 560 510 l 1
 628 510 l 1
 324 -46 l 2
 274 -138 202 -217 95 -217 c 0
EndSplineSet
Validated: 1
EndChar

StartChar: uni1EF9
Encoding: 7929 7929 258
Width: 600
GlyphClass: 2
Flags: W
HStem: -221 59<52.1574 176.857> 490 20G<134 209.217 549.431 628> 611 49<427.102 495.717> 670 47<321.725 391.127>
VStem: 134 70<485.689 510> 264 41<611 652.031>
LayerCount: 2
Fore
SplineSet
264 611 m 1
 278 669 311 717 363 717 c 0
 412 717 431 660 464 660 c 0
 485 660 501 681 512 717 c 1
 554 717 l 1
 539 661 506 611 454 611 c 0
 405 611 389 670 355 670 c 0
 333 670 317 649 305 611 c 1
 264 611 l 1
94 -221 m 0
 72 -221 49 -217 34 -211 c 1
 58 -155 l 1
 70 -159 86 -162 101 -162 c 0
 171 -162 221 -116 260 -44 c 2
 282 -4 l 1
 134 510 l 1
 204 510 l 1
 282 211 l 2
 294 167 309 113 322 65 c 1
 326 65 l 1
 352 113 378 166 402 211 c 2
 560 510 l 1
 628 510 l 1
 323 -50 l 2
 273 -142 202 -221 94 -221 c 0
EndSplineSet
Validated: 1
EndChar

StartChar: z
Encoding: 122 122 259
Width: 600
GlyphClass: 2
Flags: W
HStem: 0 58<182 530> 452 58<190 489>
LayerCount: 2
Fore
SplineSet
71 0 m 1
 77 38 l 1
 489 452 l 1
 180 452 l 1
 190 510 l 1
 601 510 l 1
 595 472 l 1
 182 58 l 1
 540 58 l 1
 530 0 l 1
 71 0 l 1
EndSplineSet
Validated: 1
EndChar

StartChar: zacute
Encoding: 378 378 260
Width: 600
GlyphClass: 2
Flags: W
HStem: 0 58<182 530> 452 58<190 489>
LayerCount: 2
Fore
SplineSet
353 604 m 1
 468 755 l 1
 546 755 l 1
 408 604 l 1
 353 604 l 1
71 0 m 1
 77 38 l 1
 489 452 l 1
 180 452 l 1
 190 510 l 1
 601 510 l 1
 595 472 l 1
 182 58 l 1
 540 58 l 1
 530 0 l 1
 71 0 l 1
EndSplineSet
Validated: 1
EndChar

StartChar: zcaron
Encoding: 382 382 261
Width: 600
GlyphClass: 2
Flags: W
HStem: 0 58<182 530> 452 58<190 489> 698 20G<287 352.8 468 540>
LayerCount: 2
Fore
SplineSet
361 573 m 1
 287 718 l 1
 342 718 l 1
 396 618 l 1
 400 618 l 1
 485 718 l 1
 540 718 l 1
 421 573 l 1
 361 573 l 1
71 0 m 1
 77 38 l 1
 489 452 l 1
 180 452 l 1
 190 510 l 1
 601 510 l 1
 595 472 l 1
 182 58 l 1
 540 58 l 1
 530 0 l 1
 71 0 l 1
EndSplineSet
Validated: 1
EndChar

StartChar: zdotaccent
Encoding: 380 380 262
Width: 600
GlyphClass: 2
Flags: W
HStem: 0 58<182 530> 452 58<190 489> 631 129<366.589 452.884>
VStem: 345 131<654.248 737.755>
LayerCount: 2
Fore
SplineSet
400 631 m 0
 368 631 345 654 345 686 c 0
 345 730 381 760 420 760 c 0
 452 760 476 738 476 704 c 0
 476 662 439 631 400 631 c 0
71 0 m 1
 77 38 l 1
 489 452 l 1
 180 452 l 1
 190 510 l 1
 601 510 l 1
 595 472 l 1
 182 58 l 1
 540 58 l 1
 530 0 l 1
 71 0 l 1
EndSplineSet
Validated: 1
EndChar

StartChar: ordfeminine
Encoding: 170 170 263
Width: 600
GlyphClass: 2
Flags: W
HStem: 252 44<286.415 394.362> 510 21G<277.351 302> 544 44<311.54 446.646>
VStem: 222 58<304.538 382.866> 435 46<260 298> 459 56<463.19 532.477>
LayerCount: 2
Fore
SplineSet
312 252 m 0xf8
 261 252 222 281 222 331 c 0
 222 409 296 448 458 464 c 1
 459 470 459 476 459 482 c 0
 459 516 443 544 396 544 c 0
 356 544 318 527 286 510 c 1
 270 547 l 1
 305 566 359 588 412 588 c 0
 484 588 515 550 515 489 c 0xf4
 515 479 514 468 512 456 c 2
 481 260 l 1
 435 260 l 1
 436 298 l 1
 434 298 l 1
 398 272 355 252 312 252 c 0xf8
336 296 m 0
 368 296 400 313 437 339 c 1
 451 426 l 1
 324 412 280 385 280 340 c 0
 280 311 304 296 336 296 c 0
EndSplineSet
Validated: 1
EndChar

StartChar: ordmasculine
Encoding: 186 186 264
Width: 600
GlyphClass: 2
Flags: W
HStem: 252 46<293.317 412.606> 542 46<323.512 439.442>
VStem: 208 58<324.566 481.103> 466 59<357.194 516.516>
LayerCount: 2
Fore
SplineSet
340 252 m 0
 266 252 208 304 208 394 c 0
 208 516 299 588 392 588 c 0
 468 588 525 536 525 448 c 0
 525 326 434 252 340 252 c 0
347 298 m 0
 416 298 466 359 466 443 c 0
 466 503 438 542 386 542 c 0
 318 542 266 480 266 396 c 0
 266 337 295 298 347 298 c 0
EndSplineSet
Validated: 1
EndChar

StartChar: pi
Encoding: 960 960 265
Width: 600
GlyphClass: 2
Flags: W
HStem: -12 58<478.635 543.345> -4 21G<120 207> 450 60<124 210 272.598 473 535.759 628>
VStem: 210 66<323.879 450> 408 68<48.5082 211.316>
LayerCount: 2
Fore
SplineSet
492 -12 m 0xb8
 434 -12 408 17 408 73 c 0
 408 113 449 312 473 450 c 1
 276 450 l 1
 252 302 224 148 190 -4 c 1x78
 120 0 l 1
 160 153 188 306 210 450 c 1
 115 450 l 1
 124 504 l 1
 194 510 l 1
 638 510 l 1
 628 450 l 1
 540 450 l 1
 510 304 476 99 476 84 c 0
 476 58 488 46 514 46 c 0
 520 46 530 47 544 53 c 1
 544 0 l 1
 530 -6 516 -12 492 -12 c 0xb8
EndSplineSet
Validated: 1
EndChar

StartChar: zero
Encoding: 48 48 266
Width: 600
Flags: W
HStem: -12 57<242.136 382.557> 615 57<319.778 465.707>
VStem: 118 64<173.476 420.562> 523 65<244.078 503.238>
LayerCount: 2
Fore
SplineSet
298 -12 m 0
 182 -12 118 83 118 244 c 0
 118 504 232 672 406 672 c 0
 523 672 588 582 588 420 c 0
 588 163 472 -12 298 -12 c 0
188 169 m 1
 497 554 l 1
 476 596 442 615 398 615 c 0
 276 615 182 483 182 250 c 2
 182 228 l 1
 183 210 185 181 188 169 c 1
308 45 m 0
 429 45 523 184 523 414 c 0
 523 420 523 426 523 432 c 0
 522 456 518 488 516 504 c 1
 204 116 l 1
 225 68 261 45 308 45 c 0
EndSplineSet
Validated: 1
EndChar

StartChar: one
Encoding: 49 49 267
Width: 600
Flags: W
HStem: 0 58<110 294 364 526> 568 46<246 344.525> 640 20G<387 460>
LayerCount: 2
Fore
SplineSet
101 0 m 1
 110 58 l 1
 294 58 l 1
 376 568 l 1
 239 568 l 1
 246 614 l 1
 315 624 366 640 408 660 c 1
 460 660 l 1
 364 58 l 1
 536 58 l 1
 526 0 l 1
 101 0 l 1
EndSplineSet
Validated: 1
EndChar

StartChar: two
Encoding: 50 50 268
Width: 600
Flags: W
HStem: 0 61<189.876 520> 614 58<283.115 449.161>
VStem: 494 70<420.339 570.797>
LayerCount: 2
Fore
SplineSet
76 0 m 1
 83 42 l 1
 357 264 494 379 494 502 c 0
 494 567 454 614 368 614 c 0
 306 614 247 578 198 532 c 1
 164 573 l 1
 228 631 297 672 385 672 c 0
 498 672 564 608 564 510 c 0
 564 370 417 245 188 56 c 1
 228 59 269 61 308 61 c 2
 529 61 l 1
 520 0 l 1
 76 0 l 1
EndSplineSet
Validated: 1
EndChar

StartChar: three
Encoding: 51 51 269
Width: 600
Flags: W
HStem: -12 58<194.506 387.135> 316 56<264 395.416> 614 58<287.445 462.475>
VStem: 474 72<124.231 256.955> 502 74<448.16 576.998>
LayerCount: 2
Fore
SplineSet
286 -12 m 0xf0
 176 -12 111 33 73 81 c 1
 116 128 l 1
 152 86 206 46 292 46 c 0
 391 46 474 106 474 194 c 0xf0
 474 268 411 316 255 316 c 1
 264 372 l 1
 436 372 502 439 502 518 c 0
 502 577 455 614 382 614 c 0
 320 614 258 584 210 544 c 1
 178 589 l 1
 238 637 310 672 392 672 c 0
 499 672 576 620 576 529 c 0xe8
 576 434 504 376 410 348 c 1
 408 344 l 1
 484 328 546 275 546 196 c 0
 546 69 424 -12 286 -12 c 0xf0
EndSplineSet
Validated: 1
EndChar

StartChar: four
Encoding: 52 52 270
Width: 600
Flags: W
HStem: 0 21G<373 443.191> 188 56<160 403 478 572> 640 20G<384.836 474>
LayerCount: 2
Fore
SplineSet
373 0 m 1
 403 188 l 1
 70 188 l 1
 77 234 l 1
 400 660 l 1
 474 660 l 1
 160 244 l 1
 412 244 l 1
 442 433 l 1
 509 433 l 1
 478 244 l 1
 581 244 l 1
 572 188 l 1
 470 188 l 1
 440 0 l 1
 373 0 l 1
EndSplineSet
Validated: 1
EndChar

StartChar: five
Encoding: 53 53 271
Width: 600
Flags: W
HStem: -12 58<185.15 377.717> 363 54<257.834 429.569> 599 61<289 582>
VStem: 484 73<148.403 309.993>
LayerCount: 2
Fore
SplineSet
284 -12 m 0
 170 -12 112 32 70 76 c 1
 114 124 l 1
 150 84 197 46 288 46 c 0
 390 46 484 122 484 234 c 0
 484 315 432 363 342 363 c 0
 287 363 251 346 201 320 c 1
 164 346 l 1
 237 660 l 1
 592 660 l 1
 582 599 l 1
 289 599 l 1
 238 387 l 1
 278 405 315 417 367 417 c 0
 477 417 557 363 557 246 c 0
 557 80 417 -12 284 -12 c 0
EndSplineSet
Validated: 1
EndChar

StartChar: six
Encoding: 54 54 272
Width: 600
Flags: W
HStem: -12 56<252.53 406.917> 348 54<300.088 455.244> 612 60<356.986 531.058>
VStem: 121 68<111.528 314.352> 498 68<138.83 304.59>
LayerCount: 2
Fore
SplineSet
320 -12 m 0
 200 -12 121 74 121 234 c 0
 121 539 286 672 452 672 c 0
 528 672 580 644 614 604 c 1
 568 560 l 1
 539 594 496 612 447 612 c 0
 341 612 234 538 196 312 c 1
 256 366 329 402 396 402 c 0
 502 402 566 344 566 236 c 0
 566 88 444 -12 320 -12 c 0
329 44 m 0
 420 44 498 120 498 227 c 0
 498 303 458 348 376 348 c 0
 324 348 257 321 190 253 c 1
 189 242 189 231 189 220 c 0
 189 108 237 44 329 44 c 0
EndSplineSet
Validated: 1
EndChar

StartChar: seven
Encoding: 55 55 273
Width: 600
Flags: W
HStem: 0 21G<232 331> 599 61<176 543>
VStem: 232 74<0 92.1016>
LayerCount: 2
Fore
SplineSet
232 0 m 1
 284 258 365 411 543 599 c 1
 166 599 l 1
 176 660 l 1
 636 660 l 1
 628 616 l 1
 426 413 356 259 306 0 c 1
 232 0 l 1
EndSplineSet
Validated: 1
EndChar

StartChar: eight
Encoding: 56 56 274
Width: 600
Flags: W
HStem: -12 54<216.937 412.921> 618 54<319.324 477.901>
VStem: 94 66<94.06 229.817> 190 65<429.029 557.109> 489 69<110.511 243.976> 520 62<444.413 576.288>
LayerCount: 2
Fore
SplineSet
300 -12 m 0xf8
 170 -12 94 55 94 147 c 0
 94 253 183 311 265 348 c 1
 265 352 l 1
 223 382 190 428 190 486 c 0
 190 594 289 672 411 672 c 0
 523 672 582 610 582 524 c 0xf4
 582 445 523 381 457 338 c 1
 456 334 l 1
 512 302 558 265 558 189 c 0
 558 77 458 -12 300 -12 c 0xf8
410 354 m 1
 480 400 520 450 520 510 c 0
 520 568 482 618 402 618 c 0
 318 618 255 564 255 490 c 0
 255 417 324 384 410 354 c 1
311 42 m 0
 423 42 489 101 489 182 c 0xf8
 489 267 405 290 304 328 c 1
 222 286 160 238 160 158 c 0
 160 90 217 42 311 42 c 0
EndSplineSet
Validated: 1
EndChar

StartChar: nine
Encoding: 57 57 275
Width: 600
Flags: HW
HStem: -12 58<175.754 346.361> 258 55<250.769 405.017> 616 56<298.403 453.33>
VStem: 139 69<355.094 523.649> 518 66<350.807 544.634>
LayerCount: 2
Fore
SplineSet
254 -12 m 0
 178 -12 127 16 91 54 c 1
 139 100 l 1
 167 66 210 46 260 46 c 0
 366 46 469 123 508 346 c 1
 447 292 377 258 309 258 c 0
 204 258 139 314 139 424 c 0
 139 571 262 672 384 672 c 0
 506 672 584 586 584 426 c 0
 584 120 418 -12 254 -12 c 0
331 313 m 0
 382 313 448 339 518 406 c 1
 519 416 518 425 518 434 c 0
 518 550 471 616 376 616 c 0
 286 616 208 540 208 432 c 0
 208 357 249 313 331 313 c 0
EndSplineSet
Validated: 1
EndChar

StartChar: zero.alt
Encoding: 65537 -1 276
Width: 600
Flags: W
HStem: -12 57<242.897 382.172> 274 132<314.888 393.866> 615 57<319.917 461.883>
VStem: 118 66<119.56 420.475> 294 121<295.236 385.5> 520 68<243.71 545.31>
LayerCount: 2
Fore
SplineSet
298 -12 m 0
 182 -12 118 83 118 244 c 0
 118 504 232 672 406 672 c 0
 523 672 588 582 588 420 c 0
 588 163 472 -12 298 -12 c 0
308 45 m 0
 428 45 520 184 520 416 c 0
 520 551 473 615 398 615 c 0
 276 615 184 482 184 247 c 0
 184 113 232 45 308 45 c 0
344 274 m 0
 316 274 294 294 294 329 c 0
 294 377 328 406 364 406 c 0
 392 406 415 386 415 350 c 0
 415 302 379 274 344 274 c 0
EndSplineSet
Validated: 1
EndChar

StartChar: four.alt
Encoding: 65538 -1 277
Width: 600
Flags: W
HStem: 0 21G<373 443.191> 188 56<160 403 478 572> 640 20G<455.362 545>
LayerCount: 2
Fore
SplineSet
373 0 m 1
 403 188 l 1
 70 188 l 1
 77 234 l 1
 474 660 l 1
 545 660 l 1
 478 244 l 1
 581 244 l 1
 572 188 l 1
 470 188 l 1
 440 0 l 1
 373 0 l 1
160 244 m 1
 412 244 l 1
 448 470 l 2
 454 505 462 547 470 582 c 1
 465 582 l 1
 441 551 412 520 386 490 c 1
 160 244 l 1
EndSplineSet
Validated: 1
EndChar

StartChar: zero.subs
Encoding: 65539 -1 278
Width: 600
Flags: W
HStem: -182 44<232.302 333.486> 102 44<258.631 363.196>
VStem: 156 56<-117.61 50.0627> 384 54<-83.2486 82.3557>
LayerCount: 2
Fore
SplineSet
271 -182 m 0
 202 -182 156 -133 156 -48 c 0
 156 72 231 146 323 146 c 0
 393 146 438 98 438 16 c 0
 438 -104 365 -182 271 -182 c 0
278 -138 m 0
 334 -138 384 -84 384 12 c 0
 384 72 356 102 317 102 c 0
 261 102 212 52 212 -44 c 0
 212 -106 239 -138 278 -138 c 0
EndSplineSet
Validated: 1
EndChar

StartChar: one.subs
Encoding: 65540 -1 279
Width: 600
Flags: W
HStem: 64 38<226 296.377>
VStem: 221 147<89.6667 104.77>
LayerCount: 2
Fore
SplineSet
266 -170 m 1
 303 64 l 1
 221 64 l 1
 226 102 l 1
 270 109 296 119 324 134 c 1
 368 134 l 1
 320 -170 l 1
 266 -170 l 1
EndSplineSet
Validated: 1
EndChar

StartChar: two.subs
Encoding: 65541 -1 280
Width: 600
Flags: W
HStem: -170 46<256 393> 100 46<244.831 349.626>
VStem: 358 55<-0.0379295 91.1569>
LayerCount: 2
Fore
SplineSet
160 -170 m 1
 164 -138 l 1
 292 -49 358 -4 358 48 c 0
 358 80 338 100 302 100 c 0
 274 100 244 82 220 57 c 1
 190 86 l 1
 224 120 268 146 315 146 c 0
 377 146 413 115 413 61 c 0
 413 -5 344 -54 256 -124 c 1
 400 -124 l 1
 393 -170 l 1
 160 -170 l 1
EndSplineSet
Validated: 1
EndChar

StartChar: three.subs
Encoding: 65542 -1 281
Width: 600
Flags: W
HStem: -182 44<210.914 334.045> -33 33<262 329.428> 102 44<242.232 352.742>
VStem: 348 56<-123.68 -45.5772> 356 57<19.7574 96.5577>
LayerCount: 2
Fore
SplineSet
270 -182 m 0xf0
 223 -182 178 -160 154 -126 c 1
 190 -92 l 1
 205 -118 236 -138 274 -138 c 0
 316 -138 348 -120 348 -80 c 0xf0
 348 -48 318 -33 257 -33 c 1
 262 0 l 1
 326 0 356 28 356 64 c 0
 356 88 340 102 306 102 c 0
 282 102 248 88 224 66 c 1
 202 100 l 1
 230 128 277 146 321 146 c 0
 377 146 413 120 413 74 c 0xe8
 413 32 393 4 344 -12 c 1
 380 -21 404 -46 404 -80 c 0
 404 -145 343 -182 270 -182 c 0xf0
EndSplineSet
Validated: 1
EndChar

StartChar: four.subs
Encoding: 65543 -1 282
Width: 600
Flags: W
HStem: -95 39<223 322 377 422>
VStem: 160 267
LayerCount: 2
Fore
SplineSet
310 -170 m 1
 322 -95 l 1
 160 -95 l 1
 164 -68 l 1
 348 134 l 1
 408 134 l 1
 377 -56 l 1
 427 -56 l 1
 422 -95 l 1
 372 -95 l 1
 360 -170 l 1
 310 -170 l 1
223 -56 m 1
 327 -56 l 1
 337 6 l 1
 354 85 l 1
 350 85 l 1
 309 37 266 -10 223 -56 c 1
EndSplineSet
Validated: 1
EndChar

StartChar: five.subs
Encoding: 65544 -1 283
Width: 600
Flags: W
HStem: -182 44<212.432 335.329> -12 34<254.923 342.687> 86 48<277 417>
VStem: 356 56<-116.698 -22.2472>
LayerCount: 2
Fore
SplineSet
272 -182 m 0
 215 -182 182 -160 154 -126 c 1
 190 -92 l 1
 208 -118 234 -138 276 -138 c 0
 321 -138 356 -110 356 -66 c 0
 356 -32 334 -12 294 -12 c 0
 267 -12 246 -24 224 -38 c 1
 198 -20 l 1
 240 134 l 1
 424 134 l 1
 417 86 l 1
 277 86 l 1
 254 10 l 1
 272 19 293 22 314 22 c 0
 373 22 412 -8 412 -62 c 0
 412 -133 348 -182 272 -182 c 0
EndSplineSet
Validated: 1
EndChar

StartChar: six.subs
Encoding: 65545 -1 284
Width: 600
Flags: W
HStem: -182 44<239.427 345.307> -22 38<253.461 353.389> 102 44<283.639 416.618>
VStem: 170 52<-121.323 -43.1392> 363 51<-120.322 -29.7441>
LayerCount: 2
Fore
SplineSet
283 -182 m 0
 217 -182 170 -136 170 -58 c 0
 170 70 250 146 352 146 c 0
 390 146 416 133 438 116 c 1
 410 78 l 1
 394 92 376 102 348 102 c 0
 291 102 244 62 226 -20 c 1
 256 2 290 16 326 16 c 0
 388 16 414 -18 414 -64 c 0
 414 -129 355 -182 283 -182 c 0
290 -138 m 0
 334 -138 363 -111 363 -70 c 0
 363 -42 346 -22 308 -22 c 0
 280 -22 254 -33 222 -59 c 1
 222 -61 222 -62 222 -64 c 0
 222 -116 253 -138 290 -138 c 0
EndSplineSet
Validated: 1
EndChar

StartChar: seven.subs
Encoding: 65546 -1 285
Width: 600
Flags: W
HStem: 87 47<205 371>
VStem: 230 56<-170 -92.7368>
LayerCount: 2
Fore
SplineSet
230 -170 m 1
 252 -64 291 3 371 87 c 1
 198 87 l 1
 205 134 l 1
 444 134 l 1
 440 102 l 1
 338 8 308 -64 286 -170 c 1
 230 -170 l 1
EndSplineSet
Validated: 1
EndChar

StartChar: eight.subs
Encoding: 65547 -1 286
Width: 600
Flags: W
HStem: -182 40<224.966 336.766> 106 40<261.701 363.993>
VStem: 160 53<-130.346 -51.9426> 197 53<25.0508 94.4323> 358 51<-123.085 -52.5951> 370 54<21.7067 98.9864>
LayerCount: 2
Fore
SplineSet
271 -182 m 0xc8
 203 -182 160 -144 160 -102 c 0xe8
 160 -56 198 -30 240 -12 c 1
 242 -9 l 1
 217 7 197 24 197 54 c 0
 197 106 257 146 323 146 c 0
 383 146 424 115 424 72 c 0xd4
 424 30 389 4 359 -12 c 1
 358 -12 l 1
 387 -24 409 -47 409 -83 c 0
 409 -140 345 -182 271 -182 c 0xc8
322 4 m 1
 359 24 370 44 370 66 c 0
 370 88 353 106 317 106 c 0
 277 106 250 85 250 58 c 0xd4
 250 30 284 16 322 4 c 1
278 -142 m 0
 316 -142 358 -119 358 -87 c 0
 358 -53 316 -41 274 -28 c 1
 234 -44 213 -70 213 -96 c 0xe8
 213 -122 242 -142 278 -142 c 0
EndSplineSet
Validated: 1
EndChar

StartChar: nine.subs
Encoding: 65548 -1 287
Width: 600
Flags: W
HStem: -182 44<179.497 310.593> -52 40<240.357 341.609> 102 44<250.201 355.659>
VStem: 180 52<-4.36719 84.5435> 372 52<7.41727 84.8796>
LayerCount: 2
Fore
SplineSet
242 -182 m 0
 204 -182 178 -168 156 -150 c 1
 186 -114 l 1
 202 -128 220 -138 248 -138 c 0
 305 -138 348 -97 366 -16 c 1
 338 -38 306 -52 270 -52 c 0
 208 -52 180 -18 180 28 c 0
 180 94 238 146 310 146 c 0
 376 146 424 99 424 22 c 0
 424 -106 344 -182 242 -182 c 0
288 -12 m 0
 316 -12 341 -3 372 23 c 1
 372 25 372 26 372 28 c 0
 372 79 342 102 305 102 c 0
 261 102 232 75 232 34 c 0
 232 6 250 -12 288 -12 c 0
EndSplineSet
Validated: 1
EndChar

StartChar: fraction
Encoding: 8260 8260 288
Width: 600
Flags: W
LayerCount: 2
Fore
SplineSet
450 394 m 1
 425 420 l 1
 625 624 l 1
 663 584 l 1
 450 394 l 1
80 33 m 1
 42 72 l 1
 254 264 l 1
 280 236 l 1
 80 33 l 1
EndSplineSet
Validated: 1
EndChar

StartChar: onehalf
Encoding: 189 189 289
Width: 600
Flags: W
HStem: 0 46<420 556> 270 46<406.387 510.966> 568 38<171 241.514>
VStem: 520 57<168.281 261.157>
LayerCount: 2
Fore
SplineSet
210 334 m 1
 247 568 l 1
 164 568 l 1
 171 606 l 1
 215 613 239 622 268 638 c 1
 313 638 l 1
 266 334 l 1
 210 334 l 1
450 394 m 1
 425 420 l 1
 625 624 l 1
 663 584 l 1
 450 394 l 1
322 0 m 1
 327 32 l 1
 455 121 520 166 520 218 c 0
 520 250 500 270 464 270 c 0
 436 270 406 252 383 227 c 1
 354 256 l 1
 386 290 431 316 478 316 c 0
 540 316 577 285 577 231 c 0
 577 163 508 116 420 46 c 1
 564 46 l 1
 556 0 l 1
 322 0 l 1
80 33 m 1
 42 72 l 1
 254 264 l 1
 280 236 l 1
 80 33 l 1
EndSplineSet
Validated: 1
EndChar

StartChar: uni2153
Encoding: 8531 8531 290
Width: 600
Flags: W
HStem: -12 44<373.909 497.661> 137 35<426 495.836> 272 44<403.877 515.726> 568 38<171 241.514>
VStem: 512 56<46.5703 124.535> 519 57<190.647 266.558>
LayerCount: 2
Fore
SplineSet
210 334 m 1xf0
 247 568 l 1
 164 568 l 1
 171 606 l 1
 215 613 239 622 268 638 c 1
 313 638 l 1
 266 334 l 1
 210 334 l 1xf0
450 394 m 1
 425 420 l 1
 625 624 l 1
 663 584 l 1
 450 394 l 1
433 -12 m 0
 386 -12 341 10 317 44 c 1
 352 78 l 1
 368 52 400 32 438 32 c 0
 480 32 512 50 512 94 c 0xf8
 512 122 478 137 420 137 c 1
 426 172 l 1
 490 172 519 198 519 234 c 0
 519 258 503 272 467 272 c 0
 443 272 409 258 386 236 c 1
 366 270 l 1
 394 298 440 316 484 316 c 0
 540 316 576 290 576 244 c 0xf4
 576 202 554 173 506 157 c 1
 542 149 568 125 568 90 c 0xf8
 568 25 506 -12 433 -12 c 0
80 33 m 1
 42 72 l 1
 254 264 l 1
 280 236 l 1
 80 33 l 1
EndSplineSet
Validated: 1
EndChar

StartChar: uni2154
Encoding: 8532 8532 291
Width: 600
Flags: W
HStem: -12 44<373.909 497.661> 137 35<426 495.836> 272 44<403.877 515.726> 334 48<201 338> 604 46<189.465 292.093>
VStem: 300 58<503.968 596.093> 512 56<46.5703 124.535> 519 57<190.647 266.558>
LayerCount: 2
Fore
SplineSet
104 334 m 1xfc
 108 366 l 1
 238 456 300 499 300 553 c 0
 300 585 282 604 246 604 c 0
 218 604 188 586 164 560 c 1
 134 590 l 1
 168 624 212 650 259 650 c 0
 321 650 358 620 358 566 c 0
 358 498 287 450 201 382 c 1
 346 382 l 1
 338 334 l 1
 104 334 l 1xfc
450 394 m 1
 425 420 l 1
 625 624 l 1
 663 584 l 1
 450 394 l 1
433 -12 m 0
 386 -12 341 10 317 44 c 1
 352 78 l 1
 368 52 400 32 438 32 c 0
 480 32 512 50 512 94 c 0xfe
 512 122 478 137 420 137 c 1
 426 172 l 1
 490 172 519 198 519 234 c 0
 519 258 503 272 467 272 c 0
 443 272 409 258 386 236 c 1
 366 270 l 1
 394 298 440 316 484 316 c 0
 540 316 576 290 576 244 c 0xfd
 576 202 554 173 506 157 c 1
 542 149 568 125 568 90 c 0xfe
 568 25 506 -12 433 -12 c 0
80 33 m 1
 42 72 l 1
 254 264 l 1
 280 236 l 1
 80 33 l 1
EndSplineSet
Validated: 1
EndChar

StartChar: onequarter
Encoding: 188 188 292
Width: 600
Flags: W
HStem: 0 21G<472 525.158> 76 38<385 484 540 584> 568 38<171 241.514>
LayerCount: 2
Fore
SplineSet
210 334 m 1
 247 568 l 1
 164 568 l 1
 171 606 l 1
 215 613 239 622 268 638 c 1
 313 638 l 1
 266 334 l 1
 210 334 l 1
450 394 m 1
 425 420 l 1
 625 624 l 1
 663 584 l 1
 450 394 l 1
472 0 m 1
 484 76 l 1
 322 76 l 1
 325 102 l 1
 510 304 l 1
 570 304 l 1
 540 114 l 1
 590 114 l 1
 584 76 l 1
 534 76 l 1
 522 0 l 1
 472 0 l 1
80 33 m 1
 42 72 l 1
 254 264 l 1
 280 236 l 1
 80 33 l 1
385 114 m 1
 490 114 l 1
 500 176 l 1
 517 255 l 1
 513 255 l 1
 472 207 429 160 385 114 c 1
EndSplineSet
Validated: 1
EndChar

StartChar: threequarters
Encoding: 190 190 293
Width: 600
Flags: W
HStem: 0 21G<472 526.421> 76 38<386 484 540 585> 322 44<157.317 278.266> 472 34<206 276> 606 44<183.893 297.726>
VStem: 292 56<381.539 459.345> 301 57<525.432 601.091>
LayerCount: 2
Fore
SplineSet
214 322 m 0xfc
 168 322 123 345 98 379 c 1
 134 413 l 1
 150 387 182 366 218 366 c 0
 260 366 292 386 292 424 c 0xfc
 292 456 263 472 201 472 c 1
 206 506 l 1
 270 506 301 532 301 568 c 0
 301 592 285 606 249 606 c 0
 225 606 191 594 168 572 c 1
 146 605 l 1
 175 633 220 650 266 650 c 0
 322 650 358 622 358 578 c 0xfa
 358 536 336 508 288 492 c 1
 324 483 348 460 348 426 c 0
 348 361 288 322 214 322 c 0xfc
478 394 m 1
 454 420 l 1
 654 624 l 1
 692 584 l 1
 478 394 l 1
472 0 m 1
 484 76 l 1
 322 76 l 1
 325 102 l 1
 512 304 l 1
 571 304 l 1
 540 114 l 1
 590 114 l 1
 585 76 l 1
 536 76 l 1
 523 0 l 1
 472 0 l 1
108 33 m 1
 71 72 l 1
 284 264 l 1
 308 236 l 1
 108 33 l 1
386 114 m 1
 489 114 l 1
 499 176 l 1
 517 255 l 1
 512 255 l 1
 471 207 429 160 386 114 c 1
EndSplineSet
Validated: 1
EndChar

StartChar: zero.dnom
Encoding: 65549 -1 294
Width: 600
Flags: W
HStem: -12 44<259.327 360.408> 272 44<285.307 389.681>
VStem: 184 54<53.2935 220.063> 410 56<86.7514 252.356>
LayerCount: 2
Fore
SplineSet
298 -12 m 0
 229 -12 184 38 184 122 c 0
 184 242 258 316 350 316 c 0
 420 316 466 268 466 186 c 0
 466 66 392 -12 298 -12 c 0
305 32 m 0
 361 32 410 86 410 182 c 0
 410 242 382 272 342 272 c 0
 288 272 238 222 238 126 c 0
 238 64 267 32 305 32 c 0
EndSplineSet
Validated: 1
EndChar

StartChar: one.dnom
Encoding: 65550 -1 295
Width: 600
Flags: W
HStem: 0 21G<292 350.158> 234 38<253 323.377>
VStem: 246 149
LayerCount: 2
Fore
SplineSet
292 0 m 1
 329 234 l 1
 246 234 l 1
 253 272 l 1
 297 279 323 289 351 304 c 1
 395 304 l 1
 347 0 l 1
 292 0 l 1
EndSplineSet
Validated: 1
EndChar

StartChar: two.dnom
Encoding: 65551 -1 296
Width: 600
Flags: W
HStem: 0 46<283 420> 270 46<270.137 375.574>
VStem: 384 56<168.281 261.157>
LayerCount: 2
Fore
SplineSet
186 0 m 1
 190 32 l 1
 318 121 384 166 384 218 c 0
 384 250 363 270 329 270 c 0
 300 270 270 252 246 227 c 1
 217 256 l 1
 251 290 294 316 341 316 c 0
 403 316 440 285 440 231 c 0
 440 163 371 116 283 46 c 1
 427 46 l 1
 420 0 l 1
 186 0 l 1
EndSplineSet
Validated: 1
EndChar

StartChar: three.dnom
Encoding: 65552 -1 297
Width: 600
Flags: W
HStem: -12 44<238.166 362.584> 137 35<290 359.523> 272 44<270.453 378.189>
VStem: 376 55<46.3203 124.616> 382 58<190.647 266.558>
LayerCount: 2
Fore
SplineSet
296 -12 m 0xf0
 249 -12 204 10 180 44 c 1
 216 78 l 1
 231 52 264 32 302 32 c 0
 344 32 376 50 376 90 c 0xf0
 376 122 345 137 284 137 c 1
 290 172 l 1
 354 172 382 198 382 234 c 0
 382 258 367 272 331 272 c 0
 307 272 276 258 252 236 c 1
 229 270 l 1
 257 298 304 316 348 316 c 0
 404 316 440 290 440 244 c 0xe8
 440 202 419 173 370 157 c 1
 406 149 431 125 431 90 c 0
 431 25 369 -12 296 -12 c 0xf0
EndSplineSet
Validated: 1
EndChar

StartChar: four.dnom
Encoding: 65553 -1 298
Width: 600
Flags: W
HStem: 0 21G<336 389.421> 76 38<250 349 404 448>
VStem: 186 268
LayerCount: 2
Fore
SplineSet
336 0 m 1
 349 76 l 1
 186 76 l 1
 190 102 l 1
 375 304 l 1
 434 304 l 1
 404 114 l 1
 454 114 l 1
 448 76 l 1
 399 76 l 1
 386 0 l 1
 336 0 l 1
250 114 m 1
 354 114 l 1
 364 176 l 1
 380 255 l 1
 378 255 l 1
 336 207 293 161 250 114 c 1
EndSplineSet
Validated: 1
EndChar

StartChar: five.dnom
Encoding: 65554 -1 299
Width: 600
Flags: W
HStem: -12 44<237.793 362.376> 156 36<281.464 371.13> 256 48<304 444>
VStem: 384 55<53.6935 145.62>
LayerCount: 2
Fore
SplineSet
299 -12 m 0
 242 -12 208 10 180 44 c 1
 216 78 l 1
 234 52 260 32 302 32 c 0
 347 32 384 60 384 104 c 0
 384 138 360 156 320 156 c 0
 293 156 274 146 252 132 c 1
 225 150 l 1
 266 304 l 1
 451 304 l 1
 444 256 l 1
 304 256 l 1
 281 180 l 1
 299 189 321 192 342 192 c 0
 401 192 439 161 439 108 c 0
 439 36 375 -12 299 -12 c 0
EndSplineSet
Validated: 1
EndChar

StartChar: six.dnom
Encoding: 65555 -1 300
Width: 600
Flags: W
HStem: -12 44<267.251 372.634> 148 38<281.337 381.116> 272 44<311.119 444.68>
VStem: 198 50<51.3585 126.412> 390 54<49.3192 140.551>
LayerCount: 2
Fore
SplineSet
311 -12 m 0
 245 -12 198 34 198 112 c 0
 198 240 278 316 380 316 c 0
 420 316 444 303 466 286 c 1
 438 248 l 1
 422 262 402 272 376 272 c 0
 318 272 270 232 254 150 c 1
 284 173 317 186 354 186 c 0
 415 186 444 152 444 106 c 0
 444 41 385 -12 311 -12 c 0
318 32 m 0
 364 32 390 60 390 100 c 0
 390 128 375 148 336 148 c 0
 308 148 280 137 248 110 c 1
 248 56 280 32 318 32 c 0
EndSplineSet
Validated: 1
EndChar

StartChar: seven.dnom
Encoding: 65556 -1 301
Width: 600
Flags: W
HStem: 0 21G<257 324> 257 47<232 398>
VStem: 257 56<0 77.2632>
LayerCount: 2
Fore
SplineSet
257 0 m 1
 279 106 318 173 398 257 c 1
 225 257 l 1
 232 304 l 1
 471 304 l 1
 466 272 l 1
 364 178 335 106 313 0 c 1
 257 0 l 1
EndSplineSet
Validated: 1
EndChar

StartChar: eight.dnom
Encoding: 65557 -1 302
Width: 600
Flags: W
HStem: -12 40<251.875 363.563> 276 40<288.593 391.356>
VStem: 188 52<39.2912 117.325> 224 52<195.051 263.037> 385 51<47.9199 118.091> 398 53<192.656 268.721>
LayerCount: 2
Fore
SplineSet
298 -12 m 0xc8
 230 -12 188 26 188 68 c 0xe8
 188 114 226 139 268 157 c 1
 268 161 l 1
 244 177 224 194 224 224 c 0
 224 276 285 316 350 316 c 0
 410 316 451 285 451 242 c 0xd4
 451 200 416 176 384 160 c 1
 385 156 l 1
 414 144 436 123 436 87 c 0
 436 31 372 -12 298 -12 c 0xc8
349 174 m 1
 386 194 398 214 398 236 c 0
 398 258 380 276 344 276 c 0
 304 276 276 255 276 228 c 0xd4
 276 200 309 186 349 174 c 1
304 28 m 0
 342 28 385 52 385 84 c 0
 385 118 344 129 302 142 c 1
 262 126 240 100 240 74 c 0xe8
 240 48 268 28 304 28 c 0
EndSplineSet
Validated: 1
EndChar

StartChar: nine.dnom
Encoding: 65558 -1 303
Width: 600
Flags: W
HStem: -12 44<205.861 337.116> 118 40<266.698 369.446> 272 44<277.438 381.642>
VStem: 206 53<165.348 254.543> 399 53<177.417 254.88>
LayerCount: 2
Fore
SplineSet
268 -12 m 0
 230 -12 205 2 183 20 c 1
 212 56 l 1
 227 42 246 32 274 32 c 0
 331 32 376 73 394 154 c 1
 366 132 332 118 296 118 c 0
 234 118 206 152 206 198 c 0
 206 264 266 316 338 316 c 0
 404 316 452 269 452 192 c 0
 452 64 370 -12 268 -12 c 0
314 158 m 0
 342 158 368 167 399 193 c 1
 399 195 399 196 399 198 c 0
 399 248 368 272 331 272 c 0
 288 272 259 245 259 204 c 0
 259 176 276 158 314 158 c 0
EndSplineSet
Validated: 1
EndChar

StartChar: zero.numr
Encoding: 65559 -1 304
Width: 600
Flags: W
HStem: 322 44<311.957 413.062> 606 44<338.051 443.51>
VStem: 237 53<387.293 554.714> 464 54<424.301 586.927>
LayerCount: 2
Fore
SplineSet
352 322 m 0
 282 322 237 372 237 456 c 0
 237 577 311 650 403 650 c 0
 473 650 518 603 518 520 c 0
 518 398 444 322 352 322 c 0
358 366 m 0
 412 366 464 422 464 516 c 0
 464 578 435 606 396 606 c 0
 340 606 290 558 290 460 c 0
 290 398 318 366 358 366 c 0
EndSplineSet
Validated: 1
EndChar

StartChar: one.numr
Encoding: 65560 -1 305
Width: 600
Flags: W
HStem: 568 38<306 376.839>
VStem: 300 148<593.667 608.729>
LayerCount: 2
Fore
SplineSet
346 334 m 1
 382 568 l 1
 300 568 l 1
 306 606 l 1
 350 613 374 622 404 638 c 1
 448 638 l 1
 400 334 l 1
 346 334 l 1
EndSplineSet
Validated: 1
EndChar

StartChar: two.numr
Encoding: 65561 -1 306
Width: 600
Flags: W
HStem: 334 48<336 474> 604 46<325.441 428.454>
VStem: 436 56<501.344 595.9>
LayerCount: 2
Fore
SplineSet
240 334 m 1
 244 366 l 1
 374 456 436 499 436 553 c 0
 436 585 418 604 382 604 c 0
 354 604 324 586 300 560 c 1
 269 590 l 1
 303 624 349 650 396 650 c 0
 458 650 492 619 492 566 c 0
 492 498 425 450 336 382 c 1
 480 382 l 1
 474 334 l 1
 240 334 l 1
EndSplineSet
Validated: 1
EndChar

StartChar: three.numr
Encoding: 65562 -1 307
Width: 600
Flags: W
HStem: 322 44<292.967 414.545> 472 34<342 411.91> 606 44<320.33 431.88>
VStem: 429 55<381.539 458.747> 436 57<524.897 601.091>
LayerCount: 2
Fore
SplineSet
350 322 m 0xf0
 303 322 259 345 233 379 c 1
 270 413 l 1
 286 387 317 366 355 366 c 0
 397 366 429 386 429 424 c 0xf0
 429 456 398 472 336 472 c 1
 342 506 l 1
 407 506 436 532 436 568 c 0
 436 592 420 606 384 606 c 0
 360 606 328 594 305 572 c 1
 282 605 l 1
 310 633 358 650 402 650 c 0
 457 650 493 622 493 578 c 0xe8
 493 536 473 508 424 492 c 1
 461 483 484 460 484 426 c 0
 484 361 423 322 350 322 c 0xf0
EndSplineSet
Validated: 1
EndChar

StartChar: four.numr
Encoding: 65563 -1 308
Width: 600
Flags: W
HStem: 410 38<304 401 458 501>
VStem: 238 270
LayerCount: 2
Fore
SplineSet
390 334 m 1
 401 410 l 1
 238 410 l 1
 243 437 l 1
 428 638 l 1
 488 638 l 1
 458 448 l 1
 508 448 l 1
 501 410 l 1
 451 410 l 1
 440 334 l 1
 390 334 l 1
304 448 m 1
 408 448 l 1
 418 510 l 1
 434 588 l 1
 430 588 l 1
 304 448 l 1
EndSplineSet
Validated: 1
EndChar

StartChar: five.numr
Encoding: 65564 -1 309
Width: 600
Flags: W
HStem: 322 44<293.411 415.822> 490 38<333.828 425.247> 590 48<356 496>
VStem: 437 55<387.694 480.209>
LayerCount: 2
Fore
SplineSet
352 322 m 0
 296 322 262 345 233 379 c 1
 270 413 l 1
 289 387 314 366 356 366 c 0
 401 366 437 394 437 438 c 0
 437 471 414 490 374 490 c 0
 347 490 328 481 304 465 c 1
 278 484 l 1
 320 638 l 1
 504 638 l 1
 496 590 l 1
 356 590 l 1
 333 513 l 1
 353 523 373 528 394 528 c 0
 454 528 492 496 492 442 c 0
 492 370 429 322 352 322 c 0
EndSplineSet
Validated: 1
EndChar

StartChar: six.numr
Encoding: 65565 -1 310
Width: 600
Flags: W
HStem: 322 44<317.986 423.85> 482 38<332.408 434.076> 606 44<361.384 495.868>
VStem: 250 50<383.875 460.824> 442 52<384.26 475.1>
LayerCount: 2
Fore
SplineSet
364 322 m 0
 298 322 250 369 250 446 c 0
 250 574 331 650 433 650 c 0
 471 650 496 637 518 619 c 1
 488 583 l 1
 472 595 454 606 426 606 c 0
 369 606 324 566 306 484 c 1
 335 507 369 520 405 520 c 0
 466 520 494 487 494 441 c 0
 494 375 436 322 364 322 c 0
370 366 m 0
 413 366 442 395 442 435 c 0
 442 463 427 482 388 482 c 0
 360 482 332 472 300 444 c 1
 300 442 300 441 300 440 c 0
 300 389 333 366 370 366 c 0
EndSplineSet
Validated: 1
EndChar

StartChar: seven.numr
Encoding: 65566 -1 311
Width: 600
Flags: W
HStem: 592 46<285 452>
VStem: 310 56<334 411.437>
LayerCount: 2
Fore
SplineSet
310 334 m 1
 332 440 372 508 452 592 c 1
 278 592 l 1
 285 638 l 1
 524 638 l 1
 519 606 l 1
 417 510 386 439 366 334 c 1
 310 334 l 1
EndSplineSet
Validated: 1
EndChar

StartChar: eight.numr
Encoding: 65567 -1 312
Width: 600
Flags: W
HStem: 322 40<304.765 417.266> 609 41<341.967 444.809>
VStem: 241 52<373.085 451.502> 278 52<530.58 596.403> 438 52<381.126 452.131> 451 53<527.418 602.179>
LayerCount: 2
Fore
SplineSet
352 322 m 0xc8
 282 322 241 359 241 402 c 0xe8
 241 446 279 472 321 492 c 1
 320 496 l 1
 296 512 278 530 278 560 c 0
 278 612 337 650 403 650 c 0
 463 650 504 618 504 576 c 0xd4
 504 533 469 510 438 494 c 1
 438 490 l 1
 466 476 490 458 490 422 c 0
 490 364 426 322 352 322 c 0xc8
402 510 m 1
 438 528 451 548 451 570 c 0
 451 592 432 609 397 609 c 0
 358 609 330 588 330 562 c 0xd4
 330 535 362 522 402 510 c 1
358 362 m 0
 396 362 438 385 438 417 c 0
 438 451 396 464 354 476 c 1
 315 460 293 434 293 408 c 0xe8
 293 382 320 362 358 362 c 0
EndSplineSet
Validated: 1
EndChar

StartChar: nine.numr
Encoding: 65568 -1 313
Width: 600
Flags: W
HStem: 322 44<258.257 390.573> 452 39<319.78 419.692> 606 44<330.719 434.573>
VStem: 260 52<498.574 588.14> 452 52<510.417 588.437>
LayerCount: 2
Fore
SplineSet
322 322 m 0
 284 322 257 335 236 353 c 1
 265 390 l 1
 281 377 300 366 328 366 c 0
 384 366 429 406 447 487 c 1
 417 467 384 452 348 452 c 0
 288 452 260 484 260 532 c 0
 260 597 319 650 391 650 c 0
 457 650 504 602 504 526 c 0
 504 398 424 322 322 322 c 0
366 491 m 0
 394 491 421 500 452 526 c 1
 452 528 452 529 452 531 c 0
 452 583 421 606 384 606 c 0
 342 606 312 578 312 538 c 0
 312 510 328 491 366 491 c 0
EndSplineSet
Validated: 1
EndChar

StartChar: zero.sups
Encoding: 65569 -1 314
Width: 600
Flags: W
HStem: 428 44<329.176 429.767> 712 44<355.051 459.256>
VStem: 254 53<493.998 660.063> 480 54<526.751 692.356>
LayerCount: 2
Fore
SplineSet
368 428 m 0
 299 428 254 478 254 562 c 0
 254 682 328 756 420 756 c 0
 489 756 534 708 534 626 c 0
 534 506 460 428 368 428 c 0
376 472 m 0
 430 472 480 526 480 622 c 0
 480 682 451 712 413 712 c 0
 357 712 307 662 307 566 c 0
 307 504 337 472 376 472 c 0
EndSplineSet
Validated: 1
EndChar

StartChar: one.sups
Encoding: 65570 -1 315
Width: 600
Flags: W
HStem: 674 38<324 392.741>
VStem: 317 148
LayerCount: 2
Fore
SplineSet
362 440 m 1
 399 674 l 1
 317 674 l 1
 324 712 l 1
 368 719 391 729 421 744 c 1
 465 744 l 1
 417 440 l 1
 362 440 l 1
EndSplineSet
Validated: 1
EndChar

StartChar: two.sups
Encoding: 65571 -1 316
Width: 600
Flags: W
HStem: 440 46<353 490> 667 21G<295.931 330> 710 46<342.031 444.853>
VStem: 453 56<609.473 701.805>
LayerCount: 2
Fore
SplineSet
256 440 m 1
 260 472 l 1
 390 561 453 608 453 660 c 0
 453 692 434 710 398 710 c 0
 370 710 342 692 318 667 c 1
 286 696 l 1
 321 730 365 756 412 756 c 0
 474 756 509 725 509 671 c 0
 509 605 441 556 353 486 c 1
 497 486 l 1
 490 440 l 1
 256 440 l 1
EndSplineSet
Validated: 1
EndChar

StartChar: three.sups
Encoding: 65572 -1 317
Width: 600
Flags: W
HStem: 428 44<307.51 432.723> 498 20G<264.824 293.5> 577 35<358 428.199> 712 44<340.842 449.189>
VStem: 446 55<486.32 564.616> 452 58<630.647 707.673>
LayerCount: 2
Fore
SplineSet
366 428 m 0xf8
 319 428 276 450 250 484 c 1
 286 518 l 1
 301 492 334 472 372 472 c 0
 415 472 446 490 446 530 c 0xf8
 446 562 415 577 353 577 c 1
 358 612 l 1
 422 612 452 638 452 674 c 0
 452 698 438 712 402 712 c 0
 378 712 346 698 322 676 c 1
 300 710 l 1
 328 738 374 756 418 756 c 0
 473 756 510 730 510 684 c 0xf4
 510 642 489 613 440 597 c 1
 476 589 501 565 501 530 c 0
 501 465 439 428 366 428 c 0xf8
EndSplineSet
Validated: 1
EndChar

